<svg width="30" height="31" viewBox="0 0 30 31" fill="none" xmlns="http://www.w3.org/2000/svg">
<path d="M28.4855 5.10425H1.49922C0.649641 5.10425 0 5.74341 0 6.57928V16.413C0 17.2489 0.649641 17.888 1.49922 17.888H28.4855C29.3351 17.888 29.9847 17.2489 29.9847 16.413V6.57928C29.9848 5.74341 29.3351 5.10425 28.4855 5.10425ZM28.9853 16.413C28.9853 16.708 28.7854 16.9047 28.4855 16.9047H1.49922C1.19937 16.9047 0.999498 16.708 0.999498 16.413V6.57928C0.999498 6.28428 1.24939 6.08763 1.49922 6.08763H28.4855C28.7853 6.08763 28.9852 6.28428 28.9852 6.57928V16.413H28.9853Z" fill="#FE8501"/>
<path d="M12.9934 9.52934H16.9914C17.2912 9.52934 17.4911 9.33269 17.4911 9.03768C17.4911 8.74267 17.2912 8.54602 16.9914 8.54602H12.9934C12.6935 8.54602 12.4937 8.74267 12.4937 9.03768C12.4937 9.33269 12.6935 9.52934 12.9934 9.52934Z" fill="#FE8501"/>
<path d="M27.486 14.938H2.49874C2.1989 14.938 1.99902 15.1346 1.99902 15.4296C1.99902 15.7247 2.1989 15.9213 2.49874 15.9213H27.486C27.7859 15.9213 27.9857 15.7247 27.9857 15.4296C27.9857 15.1346 27.7859 14.938 27.486 14.938Z" fill="#FE8501"/>
<path d="M27.486 12.9712H2.49874C2.1989 12.9712 1.99902 13.1678 1.99902 13.4629C1.99902 13.7579 2.1989 13.9545 2.49874 13.9545H27.486C27.7859 13.9545 27.9857 13.7579 27.9857 13.4629C27.9857 13.1678 27.7859 12.9712 27.486 12.9712Z" fill="#FE8501"/>
<path d="M15.2423 21.379C14.7426 21.1332 14.4927 20.8382 14.4927 20.5923C14.4927 20.3465 14.7925 20.0515 15.1923 19.7564C15.4422 19.6581 15.4922 19.3631 15.3922 19.1173C15.2922 18.8714 14.9924 18.7731 14.7426 18.9206C13.9429 19.3631 13.4932 19.9532 13.4932 20.5924C13.4932 21.2315 13.9429 21.8216 14.7426 22.3133C15.2423 22.5591 15.4922 22.8541 15.4922 23.1C15.4922 23.3459 15.1923 23.6409 14.7426 23.8867C14.4927 23.985 14.3928 24.28 14.5427 24.5258C14.6426 24.6733 14.7926 24.7717 14.9924 24.7717C15.0924 24.7717 15.1424 24.7717 15.2423 24.7225C16.042 24.28 16.4917 23.69 16.4917 23.0508C16.4917 22.4116 16.0419 21.7724 15.2423 21.379Z" fill="#FE8501"/>
<path d="M9.74496 22.3624C9.24524 22.1166 8.99535 21.8216 8.99535 21.5757C8.99535 21.3299 9.29519 21.0349 9.695 20.7398C9.94489 20.6415 10.0448 20.3465 9.89488 20.1007C9.79491 19.8548 9.49507 19.7565 9.24524 19.904C8.44562 20.3465 7.99585 20.9366 7.99585 21.5758C7.99585 22.2149 8.44562 22.805 9.24524 23.2967C9.74496 23.5425 9.99485 23.8375 9.99485 24.0834C9.99485 24.3293 9.695 24.6243 9.24524 24.8701C8.99535 24.9685 8.89544 25.2635 9.04536 25.5093C9.14533 25.6568 9.29525 25.7551 9.49513 25.7551C9.59509 25.7551 9.64505 25.7551 9.74502 25.706C10.5446 25.2635 10.9944 24.6735 10.9944 24.0343C10.9944 23.395 10.5446 22.7558 9.74496 22.3624Z" fill="#FE8501"/>
<path d="M20.7393 22.3624C20.2396 22.1166 19.9897 21.8216 19.9897 21.5757C19.9897 21.3299 20.2896 21.0349 20.6894 20.7398C20.9393 20.6415 20.9892 20.3465 20.8893 20.1007C20.7893 19.8548 20.4895 19.7565 20.2396 19.904C19.44 20.3465 18.9902 20.9366 18.9902 21.5758C18.9902 22.2149 19.44 22.805 20.2396 23.2967C20.7393 23.5425 20.9892 23.8375 20.9892 24.0834C20.9892 24.3293 20.6894 24.6243 20.2396 24.8701C19.9897 24.9685 19.8898 25.2635 20.0397 25.5093C20.1397 25.6568 20.2896 25.7551 20.4895 25.7551C20.5895 25.7551 20.6394 25.7551 20.7394 25.706C21.539 25.2635 21.9888 24.6735 21.9888 24.0343C21.9888 23.395 21.5389 22.7558 20.7393 22.3624Z" fill="#FE8501"/>
</svg>
