<svg width="30" height="31" viewBox="0 0 30 31" fill="none" xmlns="http://www.w3.org/2000/svg">
<path d="M29.686 16.7499C29.686 15.9858 29.1874 15.3363 28.4987 15.1086C28.5215 14.9514 28.5336 14.7923 28.5336 14.6318C28.5336 12.8144 27.0549 11.3357 25.2375 11.3357C24.7488 11.3357 24.2677 11.4453 23.8304 11.6514C23.5508 10.9972 23.1126 10.4128 22.5544 9.96058C21.7778 9.33143 20.7988 8.98491 19.7977 8.98491C18.7455 8.98491 17.7281 9.3633 16.9328 10.0504C16.3262 10.5745 15.8785 11.2521 15.6319 12.0034C15.2632 11.8831 14.87 11.8178 14.4617 11.8178C12.5734 11.8178 11.0041 13.2096 10.7258 15.0213H1.9134C1.71138 15.0213 1.51755 15.0564 1.3372 15.1204V4.412C1.3372 3.0776 2.42281 1.99199 3.75722 1.99199C4.95691 1.99199 5.95494 2.86965 6.14439 4.01645C4.84744 4.29676 3.87246 5.45244 3.87246 6.83202C3.87246 7.15025 4.13048 7.40821 4.44865 7.40821H9.0582C9.37638 7.40821 9.6344 7.15025 9.6344 6.83202C9.6344 5.43233 8.6309 4.26317 7.30571 4.00475C7.10283 2.2261 5.58929 0.8396 3.75722 0.8396C1.78744 0.8396 0.184814 2.44217 0.184814 4.412V16.7499C0.184814 17.501 0.66657 18.1415 1.3372 18.3794V22.6485C1.3372 25.3589 3.34922 27.6079 5.95799 27.9812L5.91362 28.123C5.74981 28.6473 5.84246 29.2018 6.16778 29.6444C6.49322 30.0869 6.99485 30.3407 7.54414 30.3407C8.29532 30.3407 8.95057 29.859 9.1746 29.1421L9.52031 28.036H20.3506L20.6962 29.142C20.9202 29.859 21.5754 30.3407 22.3266 30.3407C22.8759 30.3407 23.3775 30.0869 23.7029 29.6444C24.0282 29.2018 24.1209 28.6474 23.9571 28.123L23.9127 27.9812C26.5216 27.6079 28.5336 25.359 28.5336 22.6485V18.3794C29.2042 18.1415 29.686 17.5011 29.686 16.7499V16.7499ZM6.75343 5.10344C7.50461 5.10344 8.14545 5.58508 8.38325 6.25582H5.1236C5.3614 5.58513 6.00224 5.10344 6.75343 5.10344ZM19.7977 10.1374C21.2955 10.1374 22.621 11.1967 22.9494 12.6562C22.9933 12.8513 23.1353 13.0097 23.3245 13.0747C23.5136 13.1397 23.7229 13.1018 23.8775 12.9749C24.2593 12.661 24.7424 12.4882 25.2375 12.4882C26.4196 12.4882 27.3812 13.4498 27.3812 14.6319C27.3812 14.7634 27.3693 14.8936 27.3457 15.0214H18.1976C18.041 14.0019 17.4757 13.1155 16.6747 12.5351C17.045 11.1273 18.3085 10.1374 19.7977 10.1374V10.1374ZM14.4618 12.9702C15.7125 12.9702 16.7612 13.8489 17.0246 15.0213H11.8988C12.1623 13.8489 13.211 12.9702 14.4618 12.9702ZM8.07464 28.7984C8.00175 29.0317 7.78856 29.1884 7.54414 29.1884C7.3654 29.1884 7.20217 29.1058 7.09638 28.9618C6.99047 28.8178 6.9604 28.6374 7.01364 28.4668L7.14824 28.036H8.3129L8.07464 28.7984ZM22.7744 28.9618C22.6686 29.1058 22.5054 29.1884 22.3267 29.1884C22.0823 29.1884 21.8691 29.0316 21.7962 28.7983L21.5579 28.036H22.7226L22.8572 28.4667C22.9104 28.6373 22.8804 28.8178 22.7744 28.9618V28.9618ZM27.9574 17.3261H17.5283C17.2101 17.3261 16.9521 17.584 16.9521 17.9023C16.9521 18.2205 17.2101 18.4785 17.5283 18.4785H27.3812V22.6485C27.3812 24.9837 25.4814 26.8836 23.1462 26.8836H6.72462C4.38942 26.8836 2.48959 24.9837 2.48959 22.6485V18.4785H12.3425C12.6607 18.4785 12.9187 18.2205 12.9187 17.9023C12.9187 17.584 12.6607 17.3261 12.3425 17.3261H1.9134C1.59568 17.3261 1.3372 17.0676 1.3372 16.7499C1.3372 16.4322 1.59568 16.1737 1.9134 16.1737H27.9574C28.2751 16.1737 28.5336 16.4322 28.5336 16.7499C28.5336 17.0676 28.2751 17.3261 27.9574 17.3261Z" fill="#D98600"/>
<path d="M5.02495 9.13674C5.02495 8.81851 4.76693 8.56055 4.44875 8.56055C4.13058 8.56055 3.87256 8.81851 3.87256 9.13674V9.92423C3.87256 10.2425 4.13058 10.5004 4.44875 10.5004C4.76693 10.5004 5.02495 10.2425 5.02495 9.92423V9.13674Z" fill="#D98600"/>
<path d="M7.32963 9.13674C7.32963 8.81851 7.07161 8.56055 6.75344 8.56055C6.43527 8.56055 6.17725 8.81851 6.17725 9.13674V9.92423C6.17725 10.2425 6.43527 10.5004 6.75344 10.5004C7.07161 10.5004 7.32963 10.2425 7.32963 9.92423V9.13674Z" fill="#D98600"/>
<path d="M9.63432 9.13674C9.63432 8.81851 9.3763 8.56055 9.05813 8.56055C8.73995 8.56055 8.48193 8.81851 8.48193 9.13674V9.92423C8.48193 10.2425 8.73995 10.5004 9.05813 10.5004C9.3763 10.5004 9.63432 10.2425 9.63432 9.92423V9.13674Z" fill="#D98600"/>
<path d="M4.44875 11.9291C4.13058 11.9291 3.87256 12.187 3.87256 12.5053V13.2928C3.87256 13.611 4.13058 13.869 4.44875 13.869C4.76693 13.869 5.02495 13.611 5.02495 13.2928V12.5053C5.02495 12.187 4.76698 11.9291 4.44875 11.9291Z" fill="#D98600"/>
<path d="M6.75344 11.9291C6.43527 11.9291 6.17725 12.187 6.17725 12.5053V13.2928C6.17725 13.611 6.43527 13.869 6.75344 13.869C7.07161 13.869 7.32963 13.611 7.32963 13.2928V12.5053C7.32963 12.187 7.07167 11.9291 6.75344 11.9291Z" fill="#D98600"/>
<path d="M9.05813 11.9291C8.73995 11.9291 8.48193 12.187 8.48193 12.5053V13.2928C8.48193 13.611 8.73995 13.869 9.05813 13.869C9.3763 13.869 9.63432 13.611 9.63432 13.2928V12.5053C9.63432 12.187 9.37636 11.9291 9.05813 11.9291Z" fill="#D98600"/>
<path d="M19.4382 5.36859C19.2132 5.59359 19.2132 5.95844 19.4382 6.1835C19.5507 6.29603 19.6981 6.35226 19.8456 6.35226C19.993 6.35226 20.1405 6.29603 20.253 6.1835C21.0787 5.35775 21.0787 4.01424 20.253 3.1885C19.8766 2.81213 19.8766 2.19963 20.253 1.82326C20.478 1.59826 20.478 1.23341 20.253 1.00835C20.028 0.783349 19.6632 0.783349 19.4381 1.00835C18.6124 1.8341 18.6124 3.17761 19.4381 4.00335C19.8146 4.37972 19.8146 4.99222 19.4382 5.36859Z" fill="#D98600"/>
<path d="M24.0275 7.54864C23.8025 7.77364 23.8025 8.13849 24.0275 8.36355C24.1401 8.47608 24.2875 8.53232 24.435 8.53232C24.5824 8.53232 24.7298 8.47608 24.8424 8.36355C25.6681 7.53781 25.6681 6.1943 24.8424 5.36855C24.466 4.99218 24.466 4.37969 24.8424 4.00332C25.0674 3.77831 25.0674 3.41347 24.8424 3.18841C24.6173 2.9634 24.2526 2.9634 24.0275 3.18841C23.2018 4.01415 23.2018 5.35766 24.0275 6.18341C24.404 6.55983 24.404 7.17227 24.0275 7.54864V7.54864Z" fill="#D98600"/>
<path d="M14.8486 7.54864C14.6236 7.77364 14.6236 8.13849 14.8486 8.36355C14.9611 8.47608 15.1085 8.53232 15.256 8.53232C15.4034 8.53232 15.5509 8.47608 15.6634 8.36355C16.4891 7.53781 16.4891 6.1943 15.6634 5.36855C15.287 4.99218 15.287 4.37969 15.6634 4.00332C15.8884 3.77831 15.8884 3.41347 15.6634 3.18841C15.4384 2.9634 15.0736 2.9634 14.8485 3.18841C14.0228 4.01415 14.0228 5.35766 14.8485 6.18341C15.225 6.55983 15.225 7.17227 14.8486 7.54864V7.54864Z" fill="#D98600"/>
<path d="M14.9353 17.3263C14.7838 17.3263 14.6351 17.3879 14.528 17.4951C14.4208 17.6023 14.3591 17.7509 14.3591 17.9025C14.3591 18.054 14.4207 18.2027 14.528 18.3099C14.6351 18.417 14.7838 18.4787 14.9353 18.4787C15.0869 18.4787 15.2355 18.417 15.3426 18.3099C15.4498 18.2021 15.5115 18.054 15.5115 17.9025C15.5115 17.7509 15.4499 17.6023 15.3426 17.4951C15.2355 17.3879 15.0869 17.3263 14.9353 17.3263Z" fill="#D98600"/>
</svg>
