<svg width="31" height="31" viewBox="0 0 31 31" fill="none" xmlns="http://www.w3.org/2000/svg">
<path d="M29.1715 20.6606H28.7105V16.973C28.7099 16.4842 28.5154 16.0156 28.1698 15.6699C27.8241 15.3243 27.3555 15.1298 26.8667 15.1292V7.29292C26.8661 6.8041 26.6716 6.33549 26.326 5.98985C25.9803 5.6442 25.5117 5.44974 25.0229 5.4491H5.66278C5.17396 5.44974 4.70535 5.6442 4.3597 5.98985C4.01406 6.33549 3.81959 6.8041 3.81895 7.29292V15.1292C3.33014 15.1298 2.86153 15.3243 2.51588 15.6699C2.17024 16.0156 1.97577 16.4842 1.97513 16.973V20.6606H1.51418C1.39193 20.6606 1.27468 20.7092 1.18823 20.7956C1.10179 20.8821 1.05322 20.9993 1.05322 21.1216V22.9654C1.05322 23.0877 1.10179 23.2049 1.18823 23.2913C1.27468 23.3778 1.39193 23.4264 1.51418 23.4264H1.97513V25.2702C1.97513 25.3924 2.0237 25.5097 2.11014 25.5961C2.19659 25.6826 2.31384 25.7311 2.43609 25.7311H3.81895C3.92549 25.7312 4.02875 25.6943 4.11112 25.6267C4.1935 25.5592 4.24989 25.4651 4.27069 25.3606L4.65789 23.4264H26.0278L26.415 25.3606C26.4358 25.4651 26.4922 25.5592 26.5746 25.6267C26.6569 25.6943 26.7602 25.7312 26.8667 25.7311H28.2496C28.3718 25.7311 28.4891 25.6826 28.5755 25.5961C28.662 25.5097 28.7105 25.3924 28.7105 25.2702V23.4264H29.1715C29.2938 23.4264 29.411 23.3778 29.4974 23.2913C29.5839 23.2049 29.6325 23.0877 29.6325 22.9654V21.1216C29.6325 20.9993 29.5839 20.8821 29.4974 20.7956C29.411 20.7092 29.2938 20.6606 29.1715 20.6606ZM4.74087 7.29292C4.74119 7.04851 4.83842 6.8142 5.01124 6.64138C5.18406 6.46856 5.41837 6.37133 5.66278 6.37101H25.0229C25.2673 6.37133 25.5016 6.46856 25.6744 6.64138C25.8473 6.8142 25.9445 7.04851 25.9448 7.29292V15.1292H25.0229V13.2853C25.0223 12.7965 24.8278 12.3279 24.4821 11.9823C24.1365 11.6366 23.6679 11.4422 23.1791 11.4415H17.6476C17.1588 11.4422 16.6902 11.6366 16.3445 11.9823C15.9989 12.3279 15.8044 12.7965 15.8038 13.2853V15.1292H14.8819V13.2853C14.8812 12.7965 14.6868 12.3279 14.3411 11.9823C13.9955 11.6366 13.5269 11.4422 13.0381 11.4415H7.5066C7.01778 11.4422 6.54917 11.6366 6.20353 11.9823C5.85788 12.3279 5.66342 12.7965 5.66278 13.2853V15.1292H4.74087V7.29292ZM24.101 13.2853V15.1292H16.7257V13.2853C16.726 13.0409 16.8233 12.8066 16.9961 12.6338C17.1689 12.461 17.4032 12.3637 17.6476 12.3634H23.1791C23.4235 12.3637 23.6578 12.461 23.8306 12.6338C24.0034 12.8066 24.1007 13.0409 24.101 13.2853ZM13.96 13.2853V15.1292H6.58469V13.2853C6.58501 13.0409 6.68224 12.8066 6.85506 12.6338C7.02788 12.461 7.26219 12.3637 7.5066 12.3634H13.0381C13.2825 12.3637 13.5168 12.461 13.6896 12.6338C13.8624 12.8066 13.9597 13.0409 13.96 13.2853ZM2.89704 16.973C2.89736 16.7286 2.9946 16.4943 3.16742 16.3214C3.34024 16.1486 3.57455 16.0514 3.81895 16.0511H26.8667C27.1111 16.0514 27.3454 16.1486 27.5183 16.3214C27.6911 16.4943 27.7883 16.7286 27.7886 16.973V20.6606H2.89704V16.973ZM3.44097 24.8092H2.89704V23.4264H3.71754L3.44097 24.8092ZM27.7886 24.8092H27.2447L26.9681 23.4264H27.7886V24.8092ZM28.7105 22.5044H1.97513V21.5825H28.7105V22.5044Z" fill="#D98600"/>
</svg>
