<svg width="30" height="31" viewBox="0 0 30 31" fill="none" xmlns="http://www.w3.org/2000/svg">
<path d="M19.3601 20.1997C19.3601 19.7107 19.1659 19.2417 18.8201 18.896C18.4743 18.5502 18.0053 18.3559 17.5163 18.3559H11.5838L11.9848 15.1845C11.9871 15.1662 11.9871 15.1476 11.9848 15.1292C11.9848 12.5755 10.1779 11.9025 9.21911 11.9025C9.11565 11.8987 9.01391 11.9298 8.93029 11.9909C8.84667 12.0519 8.78603 12.1393 8.75815 12.239L6.91433 18.6417C6.60461 19.2524 6.1242 19.7601 5.53146 20.1029V19.7388C5.53146 19.6165 5.4829 19.4993 5.39645 19.4128C5.31001 19.3264 5.19276 19.2778 5.07051 19.2778H0.460955C0.338702 19.2778 0.221457 19.3264 0.135011 19.4128C0.0485648 19.4993 0 19.6165 0 19.7388L0 29.8798C0 30.002 0.0485648 30.1193 0.135011 30.2057C0.221457 30.2922 0.338702 30.3407 0.460955 30.3407H5.07051C5.19276 30.3407 5.31001 30.2922 5.39645 30.2057C5.4829 30.1193 5.53146 30.002 5.53146 29.8798V29.571L8.17274 30.3407C8.21392 30.3478 8.25601 30.3478 8.2972 30.3407H16.1334C16.4826 30.3358 16.8233 30.2318 17.1157 30.0408C17.4081 29.8499 17.6402 29.5798 17.7851 29.262C17.93 28.9442 17.9817 28.5918 17.9341 28.2459C17.8865 27.8999 17.7416 27.5745 17.5163 27.3077C17.7446 27.1702 17.9405 26.9849 18.0903 26.7646C18.2401 26.5442 18.3404 26.2939 18.3842 26.031C18.428 25.7682 18.4143 25.4989 18.3441 25.2418C18.2738 24.9848 18.1487 24.746 17.9773 24.5419C18.2056 24.4045 18.4014 24.2192 18.5512 23.9988C18.7011 23.7784 18.8014 23.5282 18.8452 23.2653C18.889 23.0024 18.8753 22.7332 18.805 22.4761C18.7348 22.219 18.6096 21.9803 18.4382 21.7762C18.7155 21.6161 18.9464 21.3865 19.1081 21.1101C19.2697 20.8337 19.3566 20.5199 19.3601 20.1997ZM4.60955 29.4188H0.921911V20.1997H4.60955V29.4188ZM16.1334 29.4188H8.36173L5.53146 28.6122V21.0663C6.91433 20.7483 7.74866 19.1027 7.78553 19.0243C7.79827 18.9975 7.80906 18.9697 7.8178 18.9413L9.5556 12.8659C10.0949 12.9858 11.0537 13.4329 11.0629 15.1016L10.602 18.7616C10.5941 18.8259 10.5999 18.8912 10.6189 18.9531C10.638 19.0151 10.6699 19.0723 10.7126 19.1211C10.7563 19.1709 10.8102 19.2106 10.8707 19.2377C10.9311 19.2647 10.9967 19.2784 11.0629 19.2778H17.5163C17.7608 19.2778 17.9953 19.375 18.1682 19.5478C18.3411 19.7207 18.4382 19.9552 18.4382 20.1997C18.4382 20.4442 18.3411 20.6787 18.1682 20.8516C17.9953 21.0245 17.7608 21.1216 17.5163 21.1216H15.2115C15.0893 21.1216 14.972 21.1702 14.8856 21.2567C14.7991 21.3431 14.7506 21.4603 14.7506 21.5826C14.7506 21.7049 14.7991 21.8221 14.8856 21.9085C14.972 21.995 15.0893 22.0436 15.2115 22.0436H17.0553C17.2999 22.0436 17.5343 22.1407 17.7072 22.3136C17.8801 22.4865 17.9773 22.721 17.9773 22.9655C17.9773 23.21 17.8801 23.4445 17.7072 23.6174C17.5343 23.7902 17.2999 23.8874 17.0553 23.8874H14.7506C14.6283 23.8874 14.5111 23.9359 14.4246 24.0224C14.3382 24.1088 14.2896 24.2261 14.2896 24.3483C14.2896 24.4706 14.3382 24.5878 14.4246 24.6743C14.5111 24.7607 14.6283 24.8093 14.7506 24.8093H16.5944C16.8389 24.8093 17.0734 24.9064 17.2463 25.0793C17.4192 25.2522 17.5163 25.4867 17.5163 25.7312C17.5163 25.9757 17.4192 26.2102 17.2463 26.3831C17.0734 26.556 16.8389 26.6531 16.5944 26.6531H14.2896C14.1674 26.6531 14.0501 26.7017 13.9637 26.7881C13.8772 26.8746 13.8287 26.9918 13.8287 27.1141C13.8287 27.2363 13.8772 27.3536 13.9637 27.44C14.0501 27.5265 14.1674 27.575 14.2896 27.575H16.1334C16.3779 27.575 16.6124 27.6721 16.7853 27.845C16.9582 28.0179 17.0553 28.2524 17.0553 28.4969C17.0553 28.7414 16.9582 28.9759 16.7853 29.1488C16.6124 29.3217 16.3779 29.4188 16.1334 29.4188Z" fill="#D98600"/>
<path d="M5.99245 7.75398H6.4534V8.21493C6.4534 8.33719 6.50197 8.45443 6.58842 8.54088C6.67486 8.62732 6.79211 8.67589 6.91436 8.67589C7.03661 8.67589 7.15386 8.62732 7.2403 8.54088C7.32675 8.45443 7.37532 8.33719 7.37532 8.21493V7.75398H7.83627C7.95852 7.75398 8.07577 7.70541 8.16222 7.61897C8.24866 7.53252 8.29723 7.41528 8.29723 7.29302C8.29723 7.17077 8.24866 7.05352 8.16222 6.96708C8.07577 6.88063 7.95852 6.83207 7.83627 6.83207H7.37532V6.37111C7.37532 6.24886 7.32675 6.13161 7.2403 6.04517C7.15386 5.95872 7.03661 5.91016 6.91436 5.91016C6.79211 5.91016 6.67486 5.95872 6.58842 6.04517C6.50197 6.13161 6.4534 6.24886 6.4534 6.37111V6.83207H5.99245C5.8702 6.83207 5.75295 6.88063 5.6665 6.96708C5.58006 7.05352 5.53149 7.17077 5.53149 7.29302C5.53149 7.41528 5.58006 7.53252 5.6665 7.61897C5.75295 7.70541 5.8702 7.75398 5.99245 7.75398V7.75398Z" fill="#D98600"/>
<path d="M24.8917 23.8874H24.4307V23.4264C24.4307 23.3042 24.3822 23.1869 24.2957 23.1005C24.2093 23.014 24.092 22.9655 23.9698 22.9655C23.8475 22.9655 23.7303 23.014 23.6438 23.1005C23.5574 23.1869 23.5088 23.3042 23.5088 23.4264V23.8874H23.0479C22.9256 23.8874 22.8084 23.9359 22.7219 24.0224C22.6355 24.1088 22.5869 24.2261 22.5869 24.3483C22.5869 24.4706 22.6355 24.5878 22.7219 24.6743C22.8084 24.7607 22.9256 24.8093 23.0479 24.8093H23.5088V25.2702C23.5088 25.3925 23.5574 25.5097 23.6438 25.5962C23.7303 25.6826 23.8475 25.7312 23.9698 25.7312C24.092 25.7312 24.2093 25.6826 24.2957 25.5962C24.3822 25.5097 24.4307 25.3925 24.4307 25.2702V24.8093H24.8917C25.0139 24.8093 25.1312 24.7607 25.2176 24.6743C25.3041 24.5878 25.3526 24.4706 25.3526 24.3483C25.3526 24.2261 25.3041 24.1088 25.2176 24.0224C25.1312 23.9359 25.0139 23.8874 24.8917 23.8874Z" fill="#D98600"/>
<path d="M19.36 0.839559C16.6704 0.839559 14.091 1.90798 12.1892 3.80979C10.2874 5.7116 9.21899 8.29101 9.21899 10.9806C9.21899 11.1028 9.26756 11.2201 9.354 11.3065C9.44045 11.393 9.5577 11.4415 9.67995 11.4415C9.8022 11.4415 9.91945 11.393 10.0059 11.3065C10.0923 11.2201 10.1409 11.1028 10.1409 10.9806C10.1415 9.23251 10.639 7.52063 11.5755 6.04458C12.5119 4.56852 13.8488 3.38913 15.43 2.64396C17.0113 1.89879 18.7719 1.61854 20.5064 1.8359C22.2409 2.05327 23.8778 2.75928 25.2263 3.87161C26.5748 4.98394 27.5793 6.45673 28.1226 8.11823C28.6658 9.77972 28.7256 11.5614 28.2947 13.2556C27.8639 14.9497 26.9603 16.4865 25.6893 17.6866C24.4183 18.8867 22.8323 19.7007 21.1163 20.0337C20.994 20.0454 20.8814 20.1051 20.8031 20.1997C20.7249 20.2944 20.6875 20.4162 20.6991 20.5385C20.7107 20.6607 20.7704 20.7734 20.8651 20.8516C20.9597 20.9298 21.0816 20.9673 21.2038 20.9556H21.2914C23.7903 20.4988 26.0267 19.1206 27.5582 17.0939C29.0897 15.0672 29.8048 12.5395 29.5621 10.0108C29.3193 7.48211 28.1363 5.13664 26.2471 3.43835C24.3579 1.74006 21.9002 0.812642 19.36 0.839559V0.839559Z" fill="#D98600"/>
<path d="M23.5086 12.8245C23.5086 11.8465 23.1201 10.9085 22.4285 10.2169C21.737 9.52536 20.799 9.13685 19.821 9.13685H18.8991C18.6546 9.13685 18.4201 9.03972 18.2472 8.86682C18.0743 8.69393 17.9772 8.45944 17.9772 8.21494C17.9772 7.97043 18.0743 7.73594 18.2472 7.56305C18.4201 7.39015 18.6546 7.29302 18.8991 7.29302H22.1258C22.4925 7.29302 22.8443 7.14733 23.1036 6.88799C23.3629 6.62866 23.5086 6.27692 23.5086 5.91016C23.5086 5.5434 23.3629 5.19166 23.1036 4.93232C22.8443 4.67299 22.4925 4.52729 22.1258 4.52729H20.7429V3.14443C20.7429 3.02217 20.6943 2.90493 20.6079 2.81848C20.5214 2.73204 20.4042 2.68347 20.2819 2.68347H18.4381C18.3159 2.68347 18.1986 2.73204 18.1122 2.81848C18.0257 2.90493 17.9772 3.02217 17.9772 3.14443V4.64714C17.1106 4.87363 16.356 5.40778 15.8544 6.14986C15.3528 6.89194 15.1385 7.79122 15.2514 8.67978C15.3643 9.56834 15.7967 10.3854 16.468 10.9785C17.1392 11.5715 18.0034 11.9 18.8991 11.9026H19.821C20.0655 11.9026 20.3 11.9997 20.4729 12.1726C20.6458 12.3455 20.7429 12.58 20.7429 12.8245C20.7429 13.069 20.6458 13.3035 20.4729 13.4764C20.3 13.6493 20.0655 13.7464 19.821 13.7464H16.5943C16.2275 13.7464 15.8758 13.8921 15.6165 14.1514C15.3571 14.4108 15.2114 14.7625 15.2114 15.1293C15.2114 15.496 15.3571 15.8478 15.6165 16.1071C15.8758 16.3664 16.2275 16.5121 16.5943 16.5121H17.9772V17.895C17.9772 18.0173 18.0257 18.1345 18.1122 18.2209C18.1986 18.3074 18.3159 18.356 18.4381 18.356H20.2819C20.4042 18.356 20.5214 18.3074 20.6079 18.2209C20.6943 18.1345 20.7429 18.0173 20.7429 17.895V16.3923C21.534 16.188 22.2349 15.7268 22.7355 15.081C23.2361 14.4353 23.508 13.6416 23.5086 12.8245ZM20.2174 15.558C20.1066 15.5736 20.0054 15.629 19.9324 15.7138C19.8595 15.7986 19.8199 15.9071 19.821 16.0189V17.434H18.8991V16.0512C18.8991 15.9289 18.8505 15.8117 18.7641 15.7252C18.6776 15.6388 18.5604 15.5902 18.4381 15.5902H16.5943C16.472 15.5902 16.3548 15.5417 16.2683 15.4552C16.1819 15.3688 16.1333 15.2515 16.1333 15.1293C16.1333 15.007 16.1819 14.8898 16.2683 14.8033C16.3548 14.7169 16.472 14.6683 16.5943 14.6683H19.821C20.31 14.6683 20.779 14.4741 21.1248 14.1283C21.4705 13.7825 21.6648 13.3135 21.6648 12.8245C21.6648 12.3355 21.4705 11.8665 21.1248 11.5207C20.779 11.1749 20.31 10.9807 19.821 10.9807H18.8991C18.2042 10.9746 17.537 10.7072 17.0303 10.2316C16.5237 9.75595 16.2146 9.10703 16.1646 8.4139C16.1147 7.72077 16.3275 7.03423 16.7607 6.49087C17.1939 5.9475 17.8158 5.58714 18.5026 5.48147C18.6134 5.46582 18.7147 5.41042 18.7876 5.32561C18.8606 5.2408 18.9002 5.13237 18.8991 5.02052V3.60538H19.821V4.98825C19.821 5.1105 19.8695 5.22775 19.956 5.31419C20.0424 5.40064 20.1597 5.4492 20.2819 5.4492H22.1258C22.248 5.4492 22.3653 5.49777 22.4517 5.58421C22.5381 5.67066 22.5867 5.78791 22.5867 5.91016C22.5867 6.03241 22.5381 6.14966 22.4517 6.2361C22.3653 6.32255 22.248 6.37111 22.1258 6.37111H18.8991C18.4101 6.37111 17.9411 6.56537 17.5953 6.91116C17.2495 7.25694 17.0552 7.72592 17.0552 8.21494C17.0552 8.70395 17.2495 9.17293 17.5953 9.51871C17.9411 9.8645 18.4101 10.0588 18.8991 10.0588H19.821C20.5159 10.0648 21.183 10.3323 21.6897 10.8079C22.1964 11.2835 22.5055 11.9324 22.5554 12.6255C22.6054 13.3187 22.3926 14.0052 21.9594 14.5486C21.5261 15.0919 20.9042 15.4523 20.2174 15.558V15.558Z" fill="#D98600"/>
</svg>
