<svg width="28" height="21" viewBox="0 0 28 21" fill="none" xmlns="http://www.w3.org/2000/svg">
<g clip-path="url(#clip0_1371_8739)">
<path d="M15.5198 14.9342C15.5198 15.7958 16.4714 16.4967 17.6412 16.4967H20.1338C21.3035 16.4967 22.2552 15.7958 22.2552 14.9342V13.0983C22.2552 12.2367 21.3035 11.5358 20.1338 11.5358H17.6412C16.4714 11.5358 15.5198 12.2367 15.5198 13.0983V14.9342ZM17.6412 13.0983H20.1338L20.1351 14.9342C20.1351 14.9342 20.1348 14.9342 20.1338 14.9342H17.6412V13.0983Z" fill="white"/>
<path d="M21.1945 9.69983C21.7803 9.69983 22.2552 9.35005 22.2552 8.91858C22.2552 8.48711 21.7803 8.13733 21.1945 8.13733C20.6087 8.13733 20.1338 8.48711 20.1338 8.91858C20.1338 9.35005 20.6087 9.69983 21.1945 9.69983Z" fill="white"/>
<path d="M16.5805 9.69983C17.1663 9.69983 17.6412 9.35005 17.6412 8.91858C17.6412 8.48711 17.1663 8.13733 16.5805 8.13733C15.9947 8.13733 15.5198 8.48711 15.5198 8.91858C15.5198 9.35005 15.9947 9.69983 16.5805 9.69983Z" fill="white"/>
<path d="M26.8162 14.4655C27.402 14.4655 27.8769 14.1157 27.8769 13.6842V5.40295C27.8769 3.67983 25.9736 2.27795 23.6341 2.27795H22.2552V1.4967C22.2552 1.06522 21.7803 0.715454 21.1945 0.715454C20.6087 0.715454 20.1338 1.06522 20.1338 1.4967V2.27795H15.3076V1.4967C15.3076 1.06522 14.8327 0.715454 14.2469 0.715454C13.6611 0.715454 13.1862 1.06522 13.1862 1.4967V2.27795H8.41308V1.4967C8.41308 1.06522 7.9382 0.715454 7.35238 0.715454C6.76656 0.715454 6.29168 1.06522 6.29168 1.4967V2.27795H4.96581C2.62634 2.27795 0.723022 3.67983 0.723022 5.40295V17.5905C0.723022 19.3136 2.62634 20.7155 4.96581 20.7155H23.6341C25.9736 20.7155 27.8769 19.3136 27.8769 17.5905C27.8769 17.159 27.402 16.8092 26.8162 16.8092C26.2303 16.8092 25.7555 17.159 25.7555 17.5905C25.7555 18.452 24.8038 19.153 23.6341 19.153H4.96581C3.79607 19.153 2.84442 18.452 2.84442 17.5905V5.40295C2.84442 4.54139 3.79607 3.84045 4.96581 3.84045H6.29168V4.6217C6.29168 5.05319 6.76656 5.40295 7.35238 5.40295C7.9382 5.40295 8.41308 5.05319 8.41308 4.6217V3.84045H13.1862V4.6217C13.1862 5.05319 13.6611 5.40295 14.2469 5.40295C14.8327 5.40295 15.3076 5.05319 15.3076 4.6217V3.84045H20.1338V4.6217C20.1338 5.05319 20.6087 5.40295 21.1945 5.40295C21.7803 5.40295 22.2552 5.05319 22.2552 4.6217V3.84045H23.6341C24.8038 3.84045 25.7555 4.54139 25.7555 5.40295V13.6842C25.7555 14.1157 26.2303 14.4655 26.8162 14.4655Z" fill="white"/>
<path d="M7.35232 16.4967C7.93813 16.4967 8.41302 16.1469 8.41302 15.7155C8.41302 15.284 7.93813 14.9342 7.35232 14.9342C6.76652 14.9342 6.29163 15.284 6.29163 15.7155C6.29163 16.1469 6.76652 16.4967 7.35232 16.4967Z" fill="white"/>
<path d="M7.35232 9.69983C7.93813 9.69983 8.41302 9.35005 8.41302 8.91858C8.41302 8.48711 7.93813 8.13733 7.35232 8.13733C6.76652 8.13733 6.29163 8.48711 6.29163 8.91858C6.29163 9.35005 6.76652 9.69983 7.35232 9.69983Z" fill="white"/>
<path d="M7.35232 13.0983C7.93813 13.0983 8.41302 12.7485 8.41302 12.317C8.41302 11.8855 7.93813 11.5358 7.35232 11.5358C6.76652 11.5358 6.29163 11.8855 6.29163 12.317C6.29163 12.7485 6.76652 13.0983 7.35232 13.0983Z" fill="white"/>
<path d="M11.9665 13.0983C12.5523 13.0983 13.0272 12.7485 13.0272 12.317C13.0272 11.8855 12.5523 11.5358 11.9665 11.5358C11.3807 11.5358 10.9058 11.8855 10.9058 12.317C10.9058 12.7485 11.3807 13.0983 11.9665 13.0983Z" fill="white"/>
<path d="M11.9665 9.69983C12.5523 9.69983 13.0272 9.35005 13.0272 8.91858C13.0272 8.48711 12.5523 8.13733 11.9665 8.13733C11.3807 8.13733 10.9058 8.48711 10.9058 8.91858C10.9058 9.35005 11.3807 9.69983 11.9665 9.69983Z" fill="white"/>
<path d="M11.9665 16.4967C12.5523 16.4967 13.0272 16.1469 13.0272 15.7155C13.0272 15.284 12.5523 14.9342 11.9665 14.9342C11.3807 14.9342 10.9058 15.284 10.9058 15.7155C10.9058 16.1469 11.3807 16.4967 11.9665 16.4967Z" fill="white"/>
</g>
<defs>
<clipPath id="clip0_1371_8739">
<rect width="27.1538" height="20" fill="white" transform="translate(0.723022 0.715454)"/>
</clipPath>
</defs>
</svg>
