<svg width="20" height="21" viewBox="0 0 20 21" fill="none" xmlns="http://www.w3.org/2000/svg">
<g clip-path="url(#clip0_333_566)">
<path d="M10.8985 14.9246C10.8985 15.7861 11.5994 16.4871 12.461 16.4871H14.2969C15.1585 16.4871 15.8594 15.7861 15.8594 14.9246V13.0886C15.8594 12.2271 15.1585 11.5261 14.2969 11.5261H12.461C11.5994 11.5261 10.8985 12.2271 10.8985 13.0886V14.9246ZM12.461 13.0886H14.2969L14.2979 14.9245C14.2979 14.9245 14.2976 14.9246 14.2969 14.9246H12.461V13.0886Z" fill="white"/>
<path d="M15.0782 9.69019C15.5096 9.69019 15.8594 9.34041 15.8594 8.90894C15.8594 8.47746 15.5096 8.12769 15.0782 8.12769C14.6467 8.12769 14.2969 8.47746 14.2969 8.90894C14.2969 9.34041 14.6467 9.69019 15.0782 9.69019Z" fill="white"/>
<path d="M11.6797 9.69019C12.1112 9.69019 12.461 9.34041 12.461 8.90894C12.461 8.47746 12.1112 8.12769 11.6797 8.12769C11.2482 8.12769 10.8985 8.47746 10.8985 8.90894C10.8985 9.34041 11.2482 9.69019 11.6797 9.69019Z" fill="white"/>
<path d="M19.2188 14.4558C19.6503 14.4558 20 14.106 20 13.6746V5.39331C20 3.67019 18.5982 2.26831 16.875 2.26831H15.8594V1.48706C15.8594 1.05558 15.5096 0.705811 15.0782 0.705811C14.6467 0.705811 14.2969 1.05558 14.2969 1.48706V2.26831H10.7422V1.48706C10.7422 1.05558 10.3925 0.705811 9.96097 0.705811C9.52948 0.705811 9.17972 1.05558 9.17972 1.48706V2.26831H5.66409V1.48706C5.66409 1.05558 5.31433 0.705811 4.88284 0.705811C4.45136 0.705811 4.10159 1.05558 4.10159 1.48706V2.26831H3.12503C1.40191 2.26831 3.05176e-05 3.67019 3.05176e-05 5.39331V17.5808C3.05176e-05 19.3039 1.40191 20.7058 3.12503 20.7058H16.875C18.5982 20.7058 20 19.3039 20 17.5808C20 17.1493 19.6503 16.7996 19.2188 16.7996C18.7873 16.7996 18.4375 17.1493 18.4375 17.5808C18.4375 18.4424 17.7366 19.1433 16.875 19.1433H3.12503C2.26347 19.1433 1.56253 18.4424 1.56253 17.5808V5.39331C1.56253 4.53175 2.26347 3.83081 3.12503 3.83081H4.10159V4.61206C4.10159 5.04354 4.45136 5.39331 4.88284 5.39331C5.31433 5.39331 5.66409 5.04354 5.66409 4.61206V3.83081H9.17972V4.61206C9.17972 5.04354 9.52948 5.39331 9.96097 5.39331C10.3925 5.39331 10.7422 5.04354 10.7422 4.61206V3.83081H14.2969V4.61206C14.2969 5.04354 14.6467 5.39331 15.0782 5.39331C15.5096 5.39331 15.8594 5.04354 15.8594 4.61206V3.83081H16.875C17.7366 3.83081 18.4375 4.53175 18.4375 5.39331V13.6746C18.4375 14.106 18.7873 14.4558 19.2188 14.4558Z" fill="white"/>
<path d="M4.88284 16.4871C5.31432 16.4871 5.66409 16.1373 5.66409 15.7058C5.66409 15.2743 5.31432 14.9246 4.88284 14.9246C4.45137 14.9246 4.10159 15.2743 4.10159 15.7058C4.10159 16.1373 4.45137 16.4871 4.88284 16.4871Z" fill="white"/>
<path d="M4.88284 9.69019C5.31432 9.69019 5.66409 9.34041 5.66409 8.90894C5.66409 8.47746 5.31432 8.12769 4.88284 8.12769C4.45137 8.12769 4.10159 8.47746 4.10159 8.90894C4.10159 9.34041 4.45137 9.69019 4.88284 9.69019Z" fill="white"/>
<path d="M4.88284 13.0886C5.31432 13.0886 5.66409 12.7388 5.66409 12.3074C5.66409 11.8759 5.31432 11.5261 4.88284 11.5261C4.45137 11.5261 4.10159 11.8759 4.10159 12.3074C4.10159 12.7388 4.45137 13.0886 4.88284 13.0886Z" fill="white"/>
<path d="M8.28128 13.0886C8.71275 13.0886 9.06253 12.7388 9.06253 12.3074C9.06253 11.8759 8.71275 11.5261 8.28128 11.5261C7.84981 11.5261 7.50003 11.8759 7.50003 12.3074C7.50003 12.7388 7.84981 13.0886 8.28128 13.0886Z" fill="white"/>
<path d="M8.28128 9.69019C8.71275 9.69019 9.06253 9.34041 9.06253 8.90894C9.06253 8.47746 8.71275 8.12769 8.28128 8.12769C7.84981 8.12769 7.50003 8.47746 7.50003 8.90894C7.50003 9.34041 7.84981 9.69019 8.28128 9.69019Z" fill="white"/>
<path d="M8.28128 16.4871C8.71275 16.4871 9.06253 16.1373 9.06253 15.7058C9.06253 15.2743 8.71275 14.9246 8.28128 14.9246C7.84981 14.9246 7.50003 15.2743 7.50003 15.7058C7.50003 16.1373 7.84981 16.4871 8.28128 16.4871Z" fill="white"/>
</g>
<defs>
<clipPath id="clip0_333_566">
<rect width="20" height="20" fill="white" transform="translate(3.05176e-05 0.705811)"/>
</clipPath>
</defs>
</svg>
