<svg width="26" height="26" viewBox="0 0 26 26" fill="none" xmlns="http://www.w3.org/2000/svg">
<path d="M24.6146 20.1177H21.7869C22.8467 19.6613 23.747 18.9005 24.374 17.9319C24.5076 17.7096 24.5246 17.4362 24.4197 17.199C24.392 17.1362 24.3576 17.0607 24.319 16.9785C24.8166 16.2597 25.1874 15.461 25.4153 14.617C25.6079 13.7025 25.652 12.7628 25.5461 11.8342C25.503 11.441 25.2371 11.1078 24.8632 10.9786C24.4381 8.93864 23.8659 8.6129 23.6722 8.50516C23.4261 8.36413 23.1291 8.34314 22.8656 8.44815C21.8276 8.84348 21.8238 9.77122 21.8205 10.5891C21.8205 10.7849 21.8142 10.9849 21.8016 11.1844C21.3989 11.2784 21.0738 11.5748 20.943 11.9671C20.8594 12.2116 20.7432 12.4437 20.5976 12.6572C20.4246 12.5651 20.2464 12.483 20.0639 12.4115C19.8904 12.3472 19.6995 12.348 19.5265 12.4136L17.3737 13.2361C17.2047 13.3016 17.0637 13.4239 16.9751 13.582C16.8754 13.7638 16.7857 13.9509 16.7063 14.1425C16.5941 14.1081 16.4841 14.067 16.3768 14.0192V9.21784C16.3768 8.75478 16.0014 8.37939 15.5384 8.37939H5.47699C5.01392 8.37939 4.63854 8.75478 4.63854 9.21784V9.78883C4.25111 9.68811 3.85244 9.63711 3.45213 9.63707C0.446289 9.63707 0.446289 12.9406 0.446289 14.0264C0.446289 16.4532 1.62599 18.0216 3.45213 18.0216C3.93589 18.0189 4.41701 17.9501 4.88211 17.817C5.19161 18.7473 5.79143 19.5537 6.59338 20.1177H3.10837C2.86629 20.0971 2.62601 20.1741 2.44099 20.3315C2.25597 20.489 2.14155 20.7139 2.12319 20.9561V21.7946C2.12319 22.7349 3.05303 23.4715 4.24027 23.4715H23.4827C24.6699 23.4715 25.5998 22.7349 25.5998 21.7946V20.9561C25.5814 20.7139 25.467 20.489 25.282 20.3315C25.097 20.1741 24.8567 20.0971 24.6146 20.1177V20.1177ZM23.1632 9.22874C23.1946 9.21187 23.2327 9.21381 23.2622 9.23377C23.3339 9.2736 23.6781 9.53813 23.9946 10.9262C23.642 10.9409 23.185 10.9719 22.653 11.0406C22.6585 10.8843 22.6598 10.7317 22.6602 10.5895C22.6623 9.72091 22.7046 9.40356 23.1632 9.22874ZM21.7429 12.2212C21.7856 12.0964 21.8936 12.0054 22.0238 11.9843C22.1013 11.9684 22.1781 11.9571 22.2632 11.9424C22.9952 11.8187 23.736 11.7538 24.4784 11.7483H24.506C24.6084 11.7413 24.6989 11.8144 24.7135 11.916C24.8101 12.7504 24.7725 13.595 24.602 14.4175C24.4438 15.0157 24.1984 15.5873 23.8738 16.1141C23.239 14.9409 22.3666 13.9129 21.3124 13.0957C21.4937 12.8244 21.6384 12.5303 21.7429 12.2212V12.2212ZM17.6974 14.0075L19.799 13.2047C22.0431 14.0871 23.4043 16.966 23.6558 17.5059C23.424 17.9067 22.6778 18.9183 20.7594 19.6503C20.1014 19.9092 19.408 20.0668 18.7027 20.1177H18.1497C17.8571 20.1042 17.5676 20.0521 17.2886 19.9626C17.2647 19.8599 17.2325 19.719 17.2002 19.5496C17.0006 18.5112 16.6523 15.9015 17.6957 14.0075H17.6974ZM15.1439 19.4708C15.5572 19.6714 15.9871 19.8358 16.4288 19.9622C16.4414 20.0208 16.4531 20.0707 16.4636 20.1177H14.4065C14.6745 19.9288 14.9217 19.712 15.1439 19.4708ZM16.2645 19.0277C15.7002 18.8411 15.1692 18.5659 14.6915 18.2123C14.0666 17.6892 13.5346 17.0641 13.1182 16.3635C13.0684 16.2565 13.0998 16.1291 13.1937 16.0575C13.1991 16.0525 13.2046 16.0474 13.2092 16.0424C13.7872 15.5444 14.4026 15.0916 15.05 14.6879C15.1166 14.646 15.1833 14.6011 15.2642 14.5542C15.3619 14.4906 15.4871 14.4879 15.5874 14.547C15.8499 14.7134 16.1342 14.8425 16.4322 14.9306C16.1049 16.2717 16.0479 17.6644 16.2645 19.0277V19.0277ZM12.6357 13.2961C12.6488 13.2517 12.683 13.2167 12.7271 13.2026C13.1714 13.0349 13.3748 13.2353 13.8925 13.8989C13.9814 14.0125 14.0765 14.1341 14.1788 14.2561C13.7219 14.5625 13.3458 14.8468 13.0616 15.0757C12.6256 14.1039 12.5476 13.5233 12.6357 13.2961ZM4.63854 15.2434C4.26514 15.411 3.86139 15.5004 3.45213 15.5062C3.13352 15.5062 2.96164 14.7436 2.96164 14.0264C2.96164 12.1524 3.24503 12.1524 3.45213 12.1524C3.88135 12.1349 4.30251 12.2726 4.63854 12.5402V15.2434ZM1.28474 14.0276C1.28474 12.3733 1.53124 10.4755 3.45213 10.4755C3.85493 10.4735 4.25545 10.5359 4.63854 10.6604V11.5613C4.26586 11.3933 3.86091 11.3088 3.45213 11.314C2.22464 11.314 2.12319 12.5972 2.12319 14.0264C2.12319 15.4781 2.61997 16.3447 3.45213 16.3447C3.85644 16.3405 4.25729 16.2697 4.63854 16.1351V16.3447C4.64032 16.5638 4.65797 16.7825 4.69136 16.9991C4.28889 17.1179 3.87177 17.1799 3.45213 17.1831C2.0951 17.1831 1.28474 16.003 1.28474 14.0264V14.0276ZM5.57467 17.1932C5.50936 16.9151 5.47659 16.6303 5.47699 16.3447L5.47698 9.21784H15.5384V13.6805C15.3187 13.66 15.0978 13.7037 14.9024 13.8063C14.7813 13.6679 14.6647 13.5254 14.5536 13.3828C14.0786 12.7741 13.4888 12.0149 12.429 12.4186C12.1633 12.5168 11.9535 12.7257 11.8542 12.9909C11.6358 13.5539 11.8261 14.441 12.424 15.6869C12.2048 16.0253 12.1975 16.4589 12.4051 16.8046C12.8743 17.5903 13.4738 18.2905 14.178 18.8751C14.2514 18.9317 14.3272 18.9833 14.4031 19.0353C13.7012 19.7301 12.753 20.1192 11.7654 20.1177H9.25001C7.4904 20.1249 5.96216 18.9083 5.57467 17.1919V17.1932ZM24.7613 21.7946C24.7613 22.249 24.1744 22.633 23.4827 22.633H4.24027C3.54855 22.633 2.96164 22.249 2.96164 21.7946V20.9943C3.00584 20.9677 3.0568 20.9544 3.10837 20.9561H24.6146C24.6662 20.9544 24.7171 20.9677 24.7613 20.9943V21.7946Z" fill="#FE8501"/>
<path d="M9.669 6.70254C9.669 6.93407 9.85669 7.12176 10.0882 7.12176C10.3198 7.12176 10.5074 6.93407 10.5074 6.70254C10.5047 6.4068 10.623 6.1228 10.8349 5.91649C11.5163 5.17601 11.5163 4.03682 10.8349 3.29634C10.623 3.09003 10.5047 2.80602 10.5074 2.51029C10.5074 2.27876 10.3198 2.09106 10.0882 2.09106C9.85669 2.09106 9.669 2.27876 9.669 2.51029C9.66531 2.99631 9.84822 3.46522 10.18 3.82037C10.3896 4.02825 10.5075 4.31122 10.5075 4.60641C10.5075 4.9016 10.3896 5.18457 10.18 5.39246C9.84822 5.7476 9.66531 6.21652 9.669 6.70254Z" fill="#FE8501"/>
<path d="M7.15386 6.70254C7.15386 6.93407 7.34156 7.12176 7.57309 7.12176C7.80462 7.12176 7.99231 6.93407 7.99231 6.70254C7.98953 6.4068 8.10783 6.1228 8.31973 5.91649C9.00113 5.17601 9.00113 4.03682 8.31973 3.29634C8.10783 3.09003 7.98953 2.80602 7.99231 2.51029C7.99231 2.27876 7.80462 2.09106 7.57309 2.09106C7.34156 2.09106 7.15386 2.27876 7.15386 2.51029C7.15017 2.99631 7.33308 3.46522 7.6649 3.82037C7.87447 4.02825 7.99235 4.31122 7.99235 4.60641C7.99235 4.9016 7.87447 5.18457 7.6649 5.39246C7.33308 5.7476 7.15017 6.21652 7.15386 6.70254Z" fill="#FE8501"/>
<path d="M12.1846 6.70254C12.1846 6.93407 12.3723 7.12176 12.6039 7.12176C12.8354 7.12176 13.0231 6.93407 13.0231 6.70254C13.0203 6.4068 13.1386 6.1228 13.3505 5.91649C14.0319 5.17601 14.0319 4.03682 13.3505 3.29634C13.1386 3.09003 13.0203 2.80602 13.0231 2.51029C13.0231 2.27876 12.8354 2.09106 12.6039 2.09106C12.3723 2.09106 12.1846 2.27876 12.1846 2.51029C12.1809 2.99631 12.3638 3.46522 12.6957 3.82037C12.9052 4.02825 13.0231 4.31122 13.0231 4.60641C13.0231 4.9016 12.9052 5.18457 12.6957 5.39246C12.3638 5.7476 12.1809 6.21652 12.1846 6.70254Z" fill="#FE8501"/>
</svg>
