<svg width="30" height="30" viewBox="0 0 30 30" fill="none" xmlns="http://www.w3.org/2000/svg">
<path d="M23.4255 0.936157H6.09061C5.46955 0.936889 4.87414 1.17995 4.43499 1.61202C3.99583 2.04409 3.74879 2.62989 3.74805 3.24093V6.92858C3.74879 7.53962 3.99583 8.12542 4.43499 8.55749C4.87414 8.98956 5.46955 9.23262 6.09061 9.23335H9.00475L9.38425 10.7282C9.40963 10.8279 9.46813 10.9164 9.55047 10.9796C9.63281 11.0428 9.73426 11.0772 9.8387 11.0772H12.6498C12.7542 11.0772 12.8557 11.0428 12.938 10.9796C13.0203 10.9164 13.0789 10.8279 13.1042 10.7282L13.4837 9.23335H15.4608C16.0819 9.23408 16.6773 9.47714 17.1165 9.90921C17.5556 10.3413 17.8027 10.9271 17.8034 11.5381V22.6011C17.8034 22.9678 17.6553 23.3196 17.3917 23.5789C17.1281 23.8382 16.7706 23.9839 16.3979 23.9839H14.9923V17.0696C14.9923 16.9473 14.943 16.8301 14.8551 16.7436C14.7672 16.6572 14.6481 16.6086 14.5238 16.6086H7.96465C7.8404 16.6086 7.72123 16.6572 7.63337 16.7436C7.5455 16.8301 7.49614 16.9473 7.49614 17.0696V17.5305H5.15358C5.02933 17.5305 4.91016 17.5791 4.82229 17.6656C4.73443 17.752 4.68507 17.8693 4.68507 17.9915V19.8353C4.68658 20.6104 4.97137 21.3591 5.48746 21.9448C6.00355 22.5304 6.7165 22.9138 7.49614 23.0251V23.9839H4.21656C4.0923 23.9839 3.97313 24.0325 3.88527 24.1189C3.79741 24.2054 3.74805 24.3226 3.74805 24.4449V29.0544C3.74805 29.1767 3.79741 29.2939 3.88527 29.3804C3.97313 29.4668 4.0923 29.5154 4.21656 29.5154H25.7681C25.8924 29.5154 26.0115 29.4668 26.0994 29.3804C26.1873 29.2939 26.2366 29.1767 26.2366 29.0544V3.70189C26.2359 2.9686 25.9395 2.26555 25.4125 1.74703C24.8854 1.22851 24.1709 0.936889 23.4255 0.936157V0.936157ZM12.2839 10.1553H10.2046L9.97035 9.23335H12.5181L12.2839 10.1553ZM5.62209 19.8353V18.4525H7.49614V22.094C6.96739 21.987 6.49228 21.704 6.15091 21.2925C5.80954 20.8811 5.62278 20.3664 5.62209 19.8353V19.8353ZM8.43317 17.5305H14.0553V23.9839H8.43317V17.5305ZM25.2996 28.5935H4.68507V24.9058H16.3979C17.0189 24.9051 17.6143 24.662 18.0535 24.23C18.4926 23.7979 18.7397 23.2121 18.7404 22.6011V11.5381C18.7394 10.6827 18.3936 9.86251 17.7788 9.2576C17.1639 8.65269 16.3303 8.31242 15.4608 8.31144H6.09061C5.71784 8.31144 5.36033 8.16575 5.09674 7.90641C4.83315 7.64707 4.68507 7.29534 4.68507 6.92858V3.24093C4.68507 2.87417 4.83315 2.52244 5.09674 2.2631C5.36033 2.00376 5.71784 1.85807 6.09061 1.85807H23.4255C23.9226 1.85807 24.3992 2.05233 24.7507 2.39811C25.1022 2.74389 25.2996 3.21288 25.2996 3.70189V28.5935Z" fill="#D98600"/>
<path d="M23.8941 13.8429H21.083C20.9588 13.8429 20.8396 13.8915 20.7517 13.9779C20.6639 14.0644 20.6145 14.1816 20.6145 14.3039V27.2106C20.6145 27.3329 20.6639 27.4501 20.7517 27.5365C20.8396 27.623 20.9588 27.6716 21.083 27.6716H23.8941C24.0183 27.6716 24.1375 27.623 24.2254 27.5365C24.3132 27.4501 24.3626 27.3329 24.3626 27.2106V14.3039C24.3626 14.1816 24.3132 14.0644 24.2254 13.9779C24.1375 13.8915 24.0183 13.8429 23.8941 13.8429ZM23.4256 14.7648V20.2963H21.5515V14.7648H23.4256ZM21.5515 26.7496V21.2182H23.4256V26.7496H21.5515Z" fill="#D98600"/>
<path d="M10.3074 15.2258H13.1184V16.1477H10.3074V15.2258Z" fill="#D98600"/>
<path d="M7.49634 13.8429H11.2444V14.7648H7.49634V13.8429Z" fill="#D98600"/>
<path d="M7.9646 12.4601H12.1812V13.382H7.9646V12.4601Z" fill="#D98600"/>
<path d="M13.5868 2.78003H6.09058C5.96633 2.78003 5.84716 2.82859 5.75929 2.91504C5.67143 3.00149 5.62207 3.11873 5.62207 3.24098V5.08481C5.62207 5.20706 5.67143 5.3243 5.75929 5.41075C5.84716 5.4972 5.96633 5.54576 6.09058 5.54576H13.5868C13.711 5.54576 13.8302 5.4972 13.9181 5.41075C14.0059 5.3243 14.0553 5.20706 14.0553 5.08481V3.24098C14.0553 3.11873 14.0059 3.00149 13.9181 2.91504C13.8302 2.82859 13.711 2.78003 13.5868 2.78003ZM13.1183 4.62385H6.55909V3.70194H13.1183V4.62385Z" fill="#D98600"/>
<path d="M6.09082 6.46765H7.02784V7.38956H6.09082V6.46765Z" fill="#D98600"/>
<path d="M7.9646 6.46765H8.90162V7.38956H7.9646V6.46765Z" fill="black"/>
<path d="M9.83862 6.46765H10.7756V7.38956H9.83862V6.46765Z" fill="black"/>
</svg>
