<svg width="215" height="165" viewBox="0 0 215 165" fill="none" xmlns="http://www.w3.org/2000/svg">
<g clip-path="url(#clip0_2280_11784)">
<path d="M213.811 103.958C212.176 129.236 192.787 153.375 166.521 154.891C136.359 157.202 108.671 140.659 78.6204 140.484C63.302 139.17 48.9294 145.038 34.0005 146.93C0.277634 148.167 -4.86275 108.537 1.42898 82.9937C27.9527 -37.4523 215.647 -21.0681 213.811 103.958Z" fill="#EDDAC5"/>
<path d="M156.642 124.526L134.748 125.645L128.909 164.5H150.351L155.162 134.753L166.262 164.5H187.323L176.368 119.79L156.642 124.526Z" fill="#AF3737"/>
<path d="M168.045 122.693C154.397 132.992 140.746 127.042 140.746 127.042L136.036 66.6967C136.683 67.4484 137.496 68.04 138.41 68.4253C141.087 69.5339 143.721 68.3859 143.721 68.3859C147.476 66.9919 148.739 64.8337 149.159 63.4856L149.274 63.069C149.385 62.5737 149.428 62.4393 149.428 62.4393L148.86 62.3966L151.097 61.8193L168.045 122.693Z" fill="#6BB2AB"/>
<path d="M160.472 70.3342C160.447 70.1377 160.345 69.9589 160.19 69.8362C160.034 69.7136 159.836 69.6569 159.639 69.6782L140.162 74.185L134.586 75.4707C134.392 75.5008 134.216 75.6035 134.094 75.7581C133.973 75.9127 133.914 76.1077 133.93 76.3038C133.957 76.5001 134.058 76.6784 134.214 76.8009C134.369 76.9233 134.567 76.9804 134.764 76.9598L154.24 72.4531L159.816 71.1674C160.011 71.1373 160.187 71.0346 160.308 70.88C160.43 70.7254 160.489 70.5304 160.472 70.3342Z" fill="#F4E9DC"/>
<path d="M160.462 77.2186L139.585 84.2017L133.681 86.1697C132.763 86.478 133.31 87.8786 134.229 87.5736L155.106 80.5872L161.01 78.6192C161.928 78.3141 161.381 76.9234 160.462 77.2186Z" fill="#F4E9DC"/>
<path d="M167.084 88.997C167.058 88.8008 166.957 88.6225 166.801 88.5C166.645 88.3775 166.448 88.3205 166.251 88.341L142.097 92.5263L135.282 93.7071C135.086 93.7349 134.909 93.837 134.787 93.9922C134.664 94.1473 134.607 94.3436 134.626 94.5402C134.651 94.7368 134.753 94.9156 134.908 95.0382C135.064 95.1609 135.262 95.2176 135.459 95.1962L159.603 91.0273L166.419 89.8465C166.618 89.8187 166.799 89.7146 166.923 89.5562C167.047 89.3977 167.105 89.1973 167.084 88.997Z" fill="#F4E9DC"/>
<path d="M167.574 97.6242C167.498 97.4382 167.353 97.289 167.169 97.2087C166.985 97.1283 166.777 97.1233 166.59 97.1945L144.135 103.312L137.759 105.047C137.666 105.083 137.581 105.138 137.51 105.207C137.438 105.276 137.381 105.359 137.341 105.45C137.302 105.542 137.28 105.64 137.279 105.74C137.277 105.839 137.295 105.938 137.332 106.031C137.408 106.216 137.553 106.365 137.737 106.445C137.921 106.525 138.128 106.531 138.316 106.461L160.771 100.343L167.147 98.6082C167.24 98.5717 167.325 98.5172 167.396 98.448C167.468 98.3787 167.525 98.296 167.565 98.2046C167.604 98.1132 167.625 98.0149 167.627 97.9153C167.628 97.8157 167.61 97.7168 167.574 97.6242Z" fill="#F4E9DC"/>
<path d="M167.564 109.031C160.394 110.041 153.197 110.8 145.972 111.307C143.945 111.449 141.916 111.571 139.884 111.671C138.9 111.721 139.087 113.216 140.055 113.17C147.284 112.803 154.494 112.186 161.686 111.32C163.705 111.078 165.72 110.814 167.731 110.53C168.689 110.395 168.525 108.897 167.564 109.031Z" fill="#F4E9DC"/>
<path d="M169.82 115.444C162.184 116.605 154.588 117.987 147.03 119.59C144.898 120.043 142.772 120.513 140.651 121.001C140.456 121.031 140.281 121.133 140.159 121.288C140.037 121.443 139.978 121.638 139.995 121.834C140.022 122.03 140.124 122.207 140.279 122.33C140.435 122.452 140.631 122.509 140.828 122.49C148.348 120.758 155.917 119.254 163.535 117.977C165.683 117.611 167.833 117.267 169.987 116.943C170.942 116.796 170.781 115.3 169.82 115.444Z" fill="#F4E9DC"/>
<path d="M208.852 18.7886C207.504 20.9681 205.877 22.9627 204.014 24.7221C203.008 28.0203 201.425 31.1141 199.34 33.8602C198.546 33.0172 196.001 30.6917 192.199 30.7672C191.612 28.6352 192.048 26.3162 191.606 24.1317C191.258 22.3999 190.349 20.7566 190.382 18.9887C190.366 18.834 190.386 18.6777 190.439 18.5317C190.493 18.3857 190.579 18.2537 190.691 18.1457C190.798 18.0773 190.921 18.0376 191.048 18.0308C191.175 18.0239 191.301 18.0499 191.415 18.1064C191.643 18.2209 191.844 18.3818 192.006 18.5787C192.964 19.6414 193.564 20.96 194.125 22.272C195.728 18.5189 197.763 14.9647 200.186 11.6808C200.345 11.4181 200.572 11.2029 200.842 11.0576C200.983 10.9881 201.145 10.977 201.294 11.0268C201.443 11.0766 201.566 11.1832 201.636 11.3233C201.685 11.5273 201.657 11.7422 201.557 11.9268C200.516 14.6055 199.467 17.2864 198.408 19.9694H198.425C199.65 17.4772 201.103 15.1043 202.768 12.8813C203.15 12.331 203.603 11.8336 204.116 11.402C204.21 11.3111 204.323 11.2428 204.448 11.2025C204.572 11.1621 204.704 11.1507 204.834 11.1692C204.954 11.215 205.058 11.2963 205.131 11.4023C205.204 11.5083 205.244 11.634 205.244 11.7628C205.241 12.0161 205.186 12.2661 205.083 12.4976C204.211 14.8165 203.184 17.0896 202.131 19.32C203.404 17.3104 204.748 15.3424 206.162 13.416C206.421 13.0683 206.818 12.6812 207.219 12.8584C207.547 13.0027 207.606 13.4455 207.547 13.803C207.389 14.6101 207.084 15.3809 206.645 16.076C205.661 17.8177 204.677 19.5397 203.693 21.265C204.885 19.9151 206.274 18.7519 207.812 17.8144C207.991 17.6918 208.191 17.6039 208.403 17.5553C208.509 17.532 208.619 17.537 208.723 17.5698C208.826 17.6026 208.92 17.6621 208.993 17.7423C209.236 18.0506 209.052 18.4737 208.852 18.7886Z" fill="#F99958"/>
<path d="M135.951 65.7094L134.907 60.8682C134.907 60.8682 132.211 63.315 131.86 66.7492C131.86 66.7492 122.125 74.5359 119.78 77.8028C117.435 81.0697 112.42 103.882 112.39 106.611C112.335 111.219 130.919 127.636 130.919 127.636C128.295 130.69 130.358 135.311 130.358 135.311C137.732 138.548 143.983 136.426 143.983 136.426L135.951 65.7094ZM127.626 105.886L132.175 90.6342L133.136 114.644L127.626 105.886Z" fill="#F2B34E"/>
<path d="M200.485 32.4669C200.485 32.4669 195.014 56.7389 189.877 60.8684C184.741 64.9979 171.899 78.0261 171.899 78.0261L174.245 98.9885L179.493 119.738C179.493 119.738 181.894 121.63 181.615 125.819C181.336 130.007 167.993 135.2 167.993 135.2L160.842 98.3489L149.185 63.3743L148.857 62.3903L145.548 57.0603C147.263 56.6372 150.796 58.3723 150.796 58.3723L166.428 56.916L181.5 50.4708L191.104 30.5612C191.284 30.512 191.461 30.4661 191.635 30.4267C195.768 29.4853 199.071 31.4533 200.127 32.1946C200.36 32.3652 200.485 32.4669 200.485 32.4669Z" fill="#F2B34E"/>
<path d="M156.228 73.6049C155.769 70.3077 154.939 67.0729 153.755 63.9616C153.079 62.1958 152.289 60.4756 151.39 58.812C151.298 58.6448 151.016 58.753 151.108 58.9236C154.275 64.7833 156.055 71.2917 156.31 77.9476C156.383 79.8228 156.332 81.7008 156.159 83.5695C156.143 83.763 156.438 83.8089 156.458 83.6187C156.764 80.2829 156.687 76.923 156.228 73.6049Z" fill="#EA8C11"/>
<path d="M138.614 91.8941C134.554 84.334 132.328 75.9253 132.116 67.3466C132.116 67.1531 131.811 67.1859 131.814 67.3794C132.031 75.9869 134.264 84.4237 138.332 92.0122C138.424 92.1729 138.706 92.0647 138.614 91.8941Z" fill="#EA8C11"/>
<path d="M171.43 66.2208C171.299 68.8601 171.167 71.4994 171.033 74.1387L170.918 76.3822C170.918 76.5725 171.207 76.6217 171.217 76.4282C171.353 73.7867 171.486 71.1463 171.617 68.507L171.729 66.2667C171.738 66.0765 171.44 66.0273 171.43 66.2208Z" fill="#EA8C11"/>
<path d="M174.671 67.9731C173.775 70.5708 172.994 73.2036 172.33 75.8713C172.284 76.0615 172.579 76.1075 172.628 75.9205C173.284 73.279 174.057 70.6714 174.947 68.0977C175.009 67.914 174.74 67.7894 174.671 67.9731Z" fill="#EA8C11"/>
<path d="M184.511 52.8258C183.846 51.9842 183.055 51.2497 182.166 50.6479C182.005 50.543 181.815 50.7726 181.976 50.8808C182.846 51.4653 183.621 52.1812 184.272 53.003C184.387 53.1571 184.633 52.98 184.511 52.8258Z" fill="#EA8C11"/>
<path d="M132.156 86.1927L132.13 90.6601C132.13 90.8536 132.428 90.8175 132.428 90.6273L132.458 86.1599C132.458 85.9664 132.159 86.0025 132.156 86.1927Z" fill="#EA8C11"/>
<path d="M141.559 133.1C140.552 133.474 138.427 127.635 138.427 127.635C138.427 127.635 137.135 131.424 134.265 132.385L133.382 127.232L133.323 126.904C133.35 126.886 133.375 126.866 133.399 126.845C135.359 125.273 136.98 123.321 138.165 121.105L138.066 120.974C138.191 121.052 138.315 121.138 138.44 121.229C139.497 122.052 140.276 123.18 140.67 124.46C142.304 129.272 142.566 132.723 141.559 133.1Z" fill="#F99958"/>
<path d="M138.477 121.157C138.463 121.178 138.451 121.2 138.441 121.223C138.108 121.843 137.743 122.446 137.345 123.027C135.884 125.148 134.007 126.95 131.828 128.324C131.807 128.333 131.784 128.338 131.761 128.338C131.738 128.338 131.715 128.333 131.694 128.324C131.656 128.326 131.618 128.315 131.589 128.291L131.054 127.881C131.024 127.855 131.005 127.818 131.001 127.779C130.997 127.739 131.009 127.699 131.034 127.668C131.06 127.638 131.096 127.619 131.135 127.615C131.175 127.612 131.214 127.623 131.244 127.648C131.405 127.77 131.572 127.891 131.723 128.016C132.277 127.668 132.811 127.29 133.324 126.884C133.35 126.866 133.376 126.846 133.399 126.825C135.359 125.253 136.981 123.301 138.165 121.085L138.067 120.954C136.486 118.848 134.846 116.795 133.147 114.794C133.019 114.646 133.265 114.466 133.389 114.614C135.139 116.671 136.825 118.782 138.447 120.947C138.455 120.961 138.462 120.975 138.467 120.99C138.489 121.012 138.502 121.041 138.504 121.072C138.506 121.103 138.496 121.133 138.477 121.157Z" fill="#EA8C11"/>
<path d="M138.132 127.763C137.601 129.912 135.836 131.44 134.009 132.532C133.438 132.86 132.854 133.188 132.264 133.48C132.093 133.566 132.202 133.848 132.376 133.759C134.412 132.719 136.498 131.525 137.719 129.495C138.041 128.967 138.281 128.393 138.43 127.793C138.476 127.606 138.178 127.557 138.132 127.763Z" fill="#EA8C11"/>
<path d="M202.112 19.2224C201.926 19.6486 201.77 20.087 201.643 20.5344C201.637 20.5739 201.647 20.6141 201.67 20.6465C201.694 20.6789 201.729 20.701 201.768 20.7083C201.807 20.7132 201.847 20.7031 201.879 20.68C201.911 20.6569 201.934 20.6225 201.942 20.5836C202.06 20.1602 202.209 19.7458 202.388 19.3438C202.401 19.3078 202.4 19.2683 202.385 19.2331C202.37 19.1979 202.342 19.1698 202.307 19.1544C202.272 19.139 202.232 19.1374 202.196 19.1501C202.16 19.1627 202.13 19.1886 202.112 19.2224Z" fill="#D36D29"/>
<path d="M203.765 21.9115C202.009 20.8831 200.079 20.185 198.071 19.8517C198.034 19.8503 197.998 19.8624 197.97 19.8856C197.942 19.9087 197.923 19.9415 197.917 19.9776C197.911 20.0138 197.918 20.0509 197.937 20.0821C197.957 20.1132 197.987 20.1363 198.022 20.1469C200.004 20.4802 201.908 21.1739 203.64 22.1936C203.808 22.2821 203.932 22.0099 203.765 21.9115Z" fill="#D36D29"/>
<path d="M195.231 24.2962C194.983 23.5303 194.662 22.79 194.273 22.0855C194.261 22.0691 194.246 22.0553 194.229 22.0448C194.212 22.0343 194.193 22.0273 194.173 22.0242C194.153 22.0212 194.133 22.0221 194.114 22.027C194.094 22.0319 194.076 22.0406 194.06 22.0527C194.028 22.0768 194.007 22.112 194.001 22.1511C193.995 22.1901 194.004 22.2301 194.027 22.2626C194.404 22.9446 194.712 23.662 194.949 24.4044C195.008 24.5914 195.29 24.4799 195.231 24.2962Z" fill="#D36D29"/>
<path d="M198.162 23.3442C198.031 23.2032 197.788 23.377 197.916 23.5213C199.007 24.7415 199.743 26.238 200.041 27.8476C200.074 28.0379 200.369 28.0051 200.34 27.8148C200.039 26.1527 199.285 24.6058 198.162 23.3442Z" fill="#D36D29"/>
<path d="M177.496 124.214C174.972 123.33 172.656 121.939 170.69 120.127C170.129 119.613 169.6 119.065 169.105 118.487C168.981 118.34 168.738 118.517 168.863 118.664C171.131 121.323 174.065 123.331 177.364 124.483C177.551 124.552 177.692 124.276 177.496 124.214Z" fill="#EA8C11"/>
<path d="M143 41.7719L144.715 46.2786L128.125 52.5992L126.41 48.0924C125.958 46.9302 125.735 45.6918 125.754 44.4451C125.246 44.3663 124.769 44.1496 124.376 43.8186C124.187 43.6821 124.045 43.4897 123.971 43.2684C123.897 43.0472 123.894 42.8083 123.963 42.5853C124.057 42.3988 124.192 42.2355 124.357 42.1068C124.522 41.9781 124.713 41.8873 124.917 41.8408C124.415 41.4734 123.933 40.9453 124.261 40.2992C124.589 39.653 125.285 39.5349 125.934 39.5152C125.557 38.8264 125.222 37.9572 125.776 37.2717C125.913 37.1136 126.088 36.9934 126.284 36.9228C126.481 36.8521 126.692 36.8333 126.898 36.8683C127.232 36.926 127.549 37.0534 127.83 37.2422C127.699 36.6123 127.733 35.9593 127.928 35.3464C127.967 35.2155 128.042 35.0987 128.146 35.0102C128.25 34.9216 128.377 34.8652 128.512 34.8478C128.661 34.8411 128.811 34.8644 128.951 34.9162C129.091 34.968 129.22 35.0474 129.329 35.1496C129.815 35.5519 130.345 35.8975 130.91 36.1795C131.208 36.3198 131.516 36.4393 131.831 36.537C136.318 34.9626 141.097 36.7764 143 41.7719Z" fill="#AF3737"/>
<path d="M144.617 49.1386C144.503 49.1959 144.386 49.2463 144.266 49.2894L144.774 50.6178C145.095 51.4663 145.253 52.3676 145.24 53.2746C145.226 54.1352 145.062 54.9867 144.754 55.7904C144.673 56.0079 144.579 56.2204 144.472 56.4267C143.841 57.6868 142.857 58.7361 141.64 59.4468C140.423 60.1574 139.026 60.4988 137.618 60.4293C136.21 60.3597 134.853 59.8823 133.712 59.0552C132.571 58.228 131.695 57.0869 131.192 55.7707L130.69 54.439C130.492 54.5154 130.289 54.5768 130.083 54.6227C126.695 55.3738 124.969 51.1 126.111 49.5223L126.212 49.3977C126.4 49.1441 126.662 48.955 126.961 48.8563C127.261 48.7576 127.584 48.7542 127.885 48.8466C128.126 48.9127 128.355 49.0156 128.564 49.1517L128.446 44.7007C130.313 44.5511 132.147 44.1244 133.888 43.4346C134.498 43.2018 135.032 42.9722 135.501 42.7491C137.433 41.8307 138.247 41.0566 138.247 41.0566C138.995 41.801 139.791 42.4967 140.628 43.1394L140.71 43.2018C140.975 43.4093 141.254 43.5967 141.546 43.7626C141.605 43.7954 141.658 43.8282 141.717 43.8578C141.889 43.9563 142.071 44.0387 142.258 44.1038L142.317 44.1267C142.356 43.9306 142.419 43.74 142.504 43.5593C142.595 43.3263 142.737 43.1168 142.92 42.9464C143.103 42.7761 143.322 42.6492 143.56 42.5753C143.849 42.5043 144.151 42.5043 144.439 42.5753C146.365 43.0017 147.949 47.5412 144.617 49.1386Z" fill="#F99958"/>
<path d="M149.185 63.373L149.153 63.4845C148.733 64.8326 147.47 66.9908 143.714 68.3848C143.714 68.3848 141.09 69.5328 138.404 68.4242C137.49 68.039 136.677 67.4473 136.029 66.6956L135.951 65.7116L135.596 64.0716L134.639 59.6403C135.544 60.1173 136.54 60.3963 137.561 60.4588C138.583 60.5214 139.605 60.366 140.562 60.0031C141.519 59.6402 142.387 59.078 143.11 58.3538C143.833 57.6296 144.393 56.76 144.754 55.8027L145.541 57.0688L148.854 62.3923L149.185 63.373Z" fill="#F99958"/>
<path d="M144.754 55.7939C144.754 55.7939 144.567 63.6331 135.597 64.0628L134.642 59.6315C135.547 60.1079 136.543 60.3865 137.564 60.4487C138.585 60.5109 139.607 60.3555 140.563 59.9926C141.52 59.6297 142.388 59.0677 143.11 58.3439C143.833 57.62 144.393 56.7508 144.754 55.7939Z" fill="#D36D29"/>
<path d="M138.844 52.1524C138.07 52.5898 137.286 53.0107 136.492 53.4153C136.098 51.4866 135.674 49.5634 135.219 47.6457C135.173 47.4457 134.865 47.544 134.911 47.7441C135.381 49.7121 135.818 51.6987 136.223 53.7039C136.246 53.8154 136.38 53.8318 136.466 53.7892C137.325 53.3529 138.174 52.8937 139.017 52.4214C139.201 52.323 139.027 52.0508 138.844 52.1524Z" fill="#D36D29"/>
<path d="M133.124 54.9833C133.823 54.9833 134.39 54.4165 134.39 53.7173C134.39 53.018 133.823 52.4512 133.124 52.4512C132.425 52.4512 131.858 53.018 131.858 53.7173C131.858 54.4165 132.425 54.9833 133.124 54.9833Z" fill="#D36D29"/>
<path d="M142.232 50.4413C142.932 50.4413 143.498 49.8745 143.498 49.1753C143.498 48.476 142.932 47.9092 142.232 47.9092C141.533 47.9092 140.966 48.476 140.966 49.1753C140.966 49.8745 141.533 50.4413 142.232 50.4413Z" fill="#D36D29"/>
<path d="M133.075 51.1994C133.524 50.9754 133.664 50.3444 133.388 49.79C133.111 49.2357 132.523 48.9679 132.074 49.192C131.625 49.416 131.485 50.047 131.762 50.6014C132.038 51.1557 132.626 51.4235 133.075 51.1994Z" fill="#36344C"/>
<path d="M139.34 48.3479C139.789 48.1238 139.929 47.4928 139.652 46.9385C139.376 46.3841 138.787 46.1164 138.338 46.3404C137.889 46.5645 137.75 47.1955 138.026 47.7498C138.303 48.3042 138.891 48.5719 139.34 48.3479Z" fill="#36344C"/>
<path d="M132.287 47.4596C132.161 47.3468 131.997 47.2869 131.828 47.2923L131.657 47.3219C131.549 47.3566 131.452 47.4187 131.375 47.5023L130.26 48.4863C130.148 48.6112 130.088 48.7744 130.093 48.9422C130.096 49.0285 130.117 49.1132 130.154 49.1914C130.19 49.2696 130.242 49.3399 130.306 49.3981C130.431 49.5089 130.594 49.5676 130.762 49.5621L130.932 49.5326C131.041 49.5004 131.139 49.4378 131.214 49.3522L132.329 48.3682C132.386 48.307 132.43 48.2353 132.459 48.157C132.488 48.0787 132.5 47.9955 132.497 47.9123C132.489 47.7396 132.414 47.577 132.287 47.4596Z" fill="#36344C"/>
<path d="M136.548 45.3307C136.534 45.1642 136.585 44.9988 136.689 44.8683L136.817 44.7469C136.914 44.6798 137.027 44.6402 137.145 44.6321L138.598 44.3303C138.681 44.322 138.765 44.3301 138.845 44.3543C138.925 44.3785 138.999 44.4183 139.064 44.4714C139.198 44.5818 139.283 44.7411 139.3 44.9142C139.314 45.0807 139.263 45.2461 139.159 45.3767L139.031 45.4947C138.935 45.5648 138.821 45.6058 138.703 45.6128L137.25 45.9146C137.167 45.923 137.083 45.9148 137.003 45.8906C136.923 45.8664 136.849 45.8266 136.784 45.7735C136.65 45.6631 136.565 45.5038 136.548 45.3307Z" fill="#36344C"/>
<path d="M142.141 54.292C142.02 54.7316 141.787 55.1322 141.464 55.4543C141.141 55.7764 140.74 56.0089 140.3 56.1288C139.549 56.3354 138.467 56.2305 138.332 55.2891C138.198 54.3477 139.051 53.7803 139.871 53.7246C139.899 53.3584 140.011 53.0037 140.199 52.6881C140.425 52.3109 140.815 51.9468 141.294 52.0321C142.268 52.2026 142.344 53.5442 142.141 54.292Z" fill="#F4E9DC"/>
<path d="M37.3872 65.1152L34.5763 80.8592L11.3407 73.9253C11.3407 73.9253 4.20675 71.485 8.06075 62.7339C11.9147 53.9829 18.5108 41.3549 18.5108 41.3549C18.5108 41.3549 23.0733 23.3608 24.5165 23.3214C25.9597 23.2821 25.0741 28.6514 25.0741 28.6514C25.0741 28.6514 28.5017 19.3625 29.9744 20.8942C29.9744 20.8942 30.5123 20.1562 31.1683 20.5367C31.8243 20.9172 31.5259 22.2062 31.5259 22.2062C31.5259 22.2062 32.0835 21.1534 32.7985 21.6093C33.5135 22.0652 31.0765 35.6936 31.0765 35.6936C31.0765 35.6936 36.5869 32.8794 38.0957 34.7883C38.9846 35.9101 34.1597 37.1663 32.9166 38.557C31.6735 39.9478 28.0917 43.2409 26.5206 43.2934L20.6166 63.262L37.3872 65.1152Z" fill="#E88846"/>
<path d="M24.9066 28.7368L24.1686 31.5051C24.1194 31.6921 24.4146 31.738 24.4671 31.5543L25.2051 28.786C25.2543 28.599 24.9558 28.5531 24.9066 28.7368Z" fill="#C4532C"/>
<path d="M29.6391 21.1178C28.7645 23.5384 27.9882 25.9875 27.3103 28.465C27.1168 29.1669 26.9299 29.8754 26.7495 30.5806C26.7035 30.7708 26.9987 30.8168 27.0479 30.6298C27.6777 28.1523 28.3982 25.7022 29.2095 23.2793C29.4281 22.5971 29.6632 21.9181 29.9147 21.2424C29.9803 21.062 29.7047 20.9341 29.6391 21.1178Z" fill="#C4532C"/>
<path d="M28.9144 31.1278C29.8087 28.1145 30.7052 25.1002 31.604 22.0848C31.6564 21.8978 31.3612 21.8519 31.3055 22.0356L28.6192 31.0786C28.6128 31.1033 28.6128 31.1293 28.6192 31.154C27.6363 30.7585 26.5966 30.5226 25.5392 30.4554C25.3457 30.4554 25.2965 30.744 25.49 30.7538C27.0883 30.8518 28.6381 31.3406 30.0033 32.1774C30.1706 32.279 30.292 32.0035 30.128 31.9051C29.7081 31.6531 29.2695 31.4338 28.816 31.2491C28.8413 31.2389 28.8637 31.2224 28.8809 31.2012C28.8981 31.18 28.9096 31.1547 28.9144 31.1278Z" fill="#C4532C"/>
<path d="M27.7608 35.1201L24.366 37.5014C24.2053 37.6129 24.366 37.8589 24.5431 37.7474L27.9379 35.3629C28.0953 35.2677 27.9182 35.0086 27.7608 35.1201Z" fill="#C4532C"/>
<path d="M103.017 152.58C102.859 154.011 97.9854 159.406 97.4901 158.786C96.9948 158.166 98.4052 154.768 98.4052 154.768C98.4052 154.768 95.0367 157.514 94.5447 156.917C94.0527 156.32 95.778 154.371 95.778 154.371C95.778 154.371 94.6037 154.132 94.6628 153.177C94.6628 153.177 93.928 154.489 92.7932 154.371C91.6583 154.253 94.4332 148.244 94.4332 148.244C94.4332 148.244 91.2483 145.053 93.5574 140.064L80.5161 95.5445L89.6312 88.791L95.3647 106.68C96.7622 111.04 97.7656 115.517 98.3626 120.056L100.875 139.188C100.875 139.188 103.178 151.147 103.017 152.58Z" fill="#E88846"/>
<path d="M98.06 149.503C97.8765 150.827 97.3521 152.08 96.5381 153.141C96.6969 152.753 96.8306 152.355 96.9383 151.95C97.5819 149.773 97.8547 147.503 97.7451 145.236C97.7451 145.042 97.4368 145.078 97.4467 145.272C97.5355 147.206 97.3444 149.142 96.8792 151.022C96.7644 151.484 96.6332 151.947 96.4823 152.403C96.3968 152.787 96.2326 153.15 96.0002 153.469C95.6722 153.836 95.2458 153.58 95.0982 153.18C94.9716 152.727 94.8924 152.262 94.862 151.793C94.7046 150.671 94.5668 149.542 94.4455 148.414C94.4377 148.377 94.4166 148.345 94.3863 148.323C94.356 148.301 94.3186 148.291 94.2814 148.295C94.2442 148.299 94.2098 148.317 94.185 148.345C94.1601 148.373 94.1466 148.409 94.147 148.447C94.2694 149.575 94.4083 150.702 94.5635 151.829C94.5976 152.323 94.6833 152.812 94.8194 153.288C94.8743 153.476 94.9881 153.641 95.144 153.759C95.2999 153.877 95.4897 153.942 95.6853 153.944C95.7356 153.941 95.7852 153.931 95.8329 153.915C95.7575 153.987 95.6886 154.066 95.6131 154.134C95.4688 154.262 95.6459 154.508 95.7903 154.377C97.1877 153.115 98.0959 151.401 98.3552 149.536C98.3529 149.501 98.3382 149.467 98.3137 149.442C98.2892 149.416 98.2565 149.4 98.2213 149.396C98.1862 149.392 98.1507 149.401 98.1212 149.42C98.0917 149.44 98.0701 149.469 98.06 149.503Z" fill="#C4532C"/>
<path d="M99.7462 149.707C99.6708 149.529 99.3887 149.638 99.4642 149.818C100.196 151.573 99.1591 153.36 98.2243 154.804C98.1194 154.964 98.3522 155.158 98.4572 154.994C99.4543 153.459 100.52 151.573 99.7462 149.707Z" fill="#C4532C"/>
<path d="M39.0037 130.079L36.0615 164.499H58.0998L61.8686 138.328L66.8542 164.499H88.9286L84.9171 127.852L39.0037 130.079Z" fill="#F2B34E"/>
<path d="M70.1083 40.5151C69.8197 41.9386 69.1243 43.2572 68.3929 44.5036C67.3105 46.3535 66.0214 48.151 65.2506 50.1583C65.3359 50.2042 63.8107 51.1653 63.3154 51.2735C62.0866 51.5489 60.7999 51.3756 59.6878 50.7848C58.6976 50.2527 57.8958 49.4279 57.3918 48.4232C56.2723 49.3173 54.9397 49.905 53.5246 50.1288C51.1434 50.483 48.5522 49.5023 47.2926 47.39C46.1643 45.5106 46.4005 42.9095 48.0175 41.3909C47.2065 40.5294 46.6709 39.4457 46.4792 38.2782C46.2772 37.2057 46.3801 36.098 46.7761 35.081C47.1721 34.0641 47.8454 33.1785 48.7194 32.525C49.5824 31.9091 50.5891 31.5253 51.6431 31.4104C52.6971 31.2955 53.7629 31.4534 54.7382 31.869C55.8244 30.7817 57.2552 30.1064 58.7851 29.9592C60.3149 29.8119 61.8483 30.2019 63.1219 31.0622C63.882 31.598 64.5231 32.2851 65.0051 33.0804C65.4872 33.8756 65.7997 34.7619 65.923 35.6837C66.5272 35.4479 67.1919 35.4164 67.8156 35.5941C68.4394 35.7718 68.9877 36.1489 69.3769 36.6677C70.2133 37.737 70.3642 39.2031 70.1083 40.5151Z" fill="#36344C"/>
<path d="M66.2111 48.315L66.2996 49.732C66.36 50.6368 66.2487 51.545 65.9716 52.4085C65.7059 53.2271 65.2972 53.9923 64.7646 54.6684C63.9859 55.6536 62.9651 56.4202 61.802 56.8935C60.6388 57.3668 59.3728 57.5307 58.1275 57.3692C56.8821 57.2076 55.6998 56.7262 54.6959 55.9718C53.692 55.2174 52.9006 54.2157 52.399 53.0645C52.0645 52.2967 51.8669 51.4764 51.8152 50.6405L51.7233 49.2236C47.6856 49.4761 47.1608 44.4053 48.8074 43.172L48.9386 43.0801C50.0702 42.3454 50.9525 43.1785 51.2576 43.5426C51.2959 43.535 51.3325 43.5205 51.3658 43.5C52.4379 43.0619 53.3918 42.3775 54.1502 41.5022C54.9087 40.627 55.4504 39.5854 55.7315 38.4619C56.9336 39.3194 58.4088 39.7056 59.8769 39.5472C61.345 39.3887 62.7038 38.6967 63.6953 37.6025C63.7639 39.4792 64.53 41.2627 65.8437 42.6045V42.7882C65.8437 42.7882 66.4144 41.6402 67.4837 41.6861C67.782 41.7005 68.0719 41.7896 68.3267 41.9453C70.134 42.9588 70.2553 48.0592 66.2111 48.315Z" fill="#E88846"/>
<path d="M67.2515 62.3869C67.2515 62.3869 67.1695 62.5017 66.9235 62.9412L66.6939 63.3053C65.8903 64.4697 64.047 66.1589 60.0454 66.3819C60.0454 66.3819 57.1951 66.7099 54.9647 64.8469C53.9368 63.9694 53.1953 62.8041 52.8359 61.5013L53.4231 61.5275L53.5739 59.8481L53.9675 55.3349C54.6913 56.058 55.5605 56.6191 56.5176 56.9807C57.4747 57.3423 58.4977 57.4963 59.5188 57.4324C60.5399 57.3685 61.5358 57.0882 62.4403 56.6101C63.3449 56.132 64.1374 55.467 64.7653 54.6592L66.7333 62.1671L67.2515 62.3869Z" fill="#E88846"/>
<path d="M64.7552 54.6719C64.7552 54.6719 62.2558 62.1011 53.5605 59.8641L53.9574 55.3476C54.6811 56.0707 55.5504 56.6318 56.5075 56.9934C57.4645 57.355 58.4876 57.509 59.5087 57.4451C60.5298 57.3812 61.5257 57.1009 62.4302 56.6228C63.3347 56.1447 64.1273 55.4796 64.7552 54.6719Z" fill="#C4532C"/>
<path d="M60.186 49.4437C59.3114 49.6296 58.4367 49.8002 57.562 49.9554C57.7523 47.9874 57.9152 46.0249 58.0508 44.0678C58.0508 43.8612 57.7424 43.8645 57.7228 44.0678C57.585 46.097 57.4155 48.1241 57.2144 50.1489C57.2144 50.2637 57.3292 50.3195 57.421 50.3031C58.3722 50.1391 59.319 49.9554 60.2615 49.7521C60.4747 49.6996 60.3894 49.4011 60.186 49.4437Z" fill="#C4532C"/>
<path d="M62.2657 49.8606C62.2564 50.4933 62.0762 51.1118 61.7442 51.6505C61.4122 52.1892 60.9407 52.6282 60.3797 52.9208C60.196 53.016 60.36 53.2948 60.5437 53.1996C61.1527 52.8776 61.6641 52.3977 62.0241 51.8103C62.3842 51.2229 62.5798 50.5495 62.5904 49.8606C62.5848 49.8215 62.5653 49.7857 62.5355 49.7599C62.5057 49.734 62.4675 49.7197 62.428 49.7197C62.3886 49.7197 62.3504 49.734 62.3206 49.7599C62.2907 49.7857 62.2712 49.8215 62.2657 49.8606Z" fill="#36344C"/>
<path d="M54.2558 50.5126C54.9551 50.5126 55.5219 49.9458 55.5219 49.2465C55.5219 48.5473 54.9551 47.9805 54.2558 47.9805C53.5566 47.9805 52.9897 48.5473 52.9897 49.2465C52.9897 49.9458 53.5566 50.5126 54.2558 50.5126Z" fill="#C4532C"/>
<path d="M64.2998 48.8661C64.999 48.8661 65.5659 48.2993 65.5659 47.6001C65.5659 46.9008 64.999 46.334 64.2998 46.334C63.6005 46.334 63.0337 46.9008 63.0337 47.6001C63.0337 48.2993 63.6005 48.8661 64.2998 48.8661Z" fill="#C4532C"/>
<path d="M54.9508 46.8412C55.446 46.7599 55.766 46.1984 55.6657 45.5871C55.5654 44.9757 55.0826 44.546 54.5875 44.6273C54.0923 44.7085 53.7723 45.27 53.8726 45.8814C53.9729 46.4927 54.4557 46.9224 54.9508 46.8412Z" fill="#36344C"/>
<path d="M61.7794 45.974C62.2746 45.8927 62.5947 45.3313 62.4943 44.7199C62.394 44.1085 61.9113 43.6788 61.4161 43.7601C60.9209 43.8413 60.6009 44.4028 60.7012 45.0142C60.8015 45.6255 61.2843 46.0553 61.7794 45.974Z" fill="#36344C"/>
<path d="M55.3053 43.021C55.2189 42.8766 55.0804 42.7709 54.9183 42.7258L54.7477 42.7061C54.6324 42.7053 54.519 42.7359 54.4197 42.7946L53.0651 43.4014C52.9207 43.4878 52.815 43.6264 52.7699 43.7885C52.7265 43.9562 52.7513 44.1342 52.8388 44.2838C52.9251 44.4281 53.0637 44.5338 53.2258 44.579L53.3964 44.5986C53.5118 44.6002 53.6254 44.5696 53.7244 44.5101L55.079 43.9033C55.1514 43.8616 55.2148 43.8059 55.2655 43.7394C55.3162 43.673 55.3531 43.5971 55.3742 43.5162C55.4175 43.3485 55.3928 43.1705 55.3053 43.021Z" fill="#36344C"/>
<path d="M60.0054 42.251C60.0419 42.0861 60.1405 41.9416 60.2809 41.8476L60.4351 41.7721C60.541 41.7378 60.6538 41.7311 60.7631 41.7524L62.2391 41.8935C62.4035 41.9291 62.5479 42.0266 62.6425 42.1657C62.7369 42.3111 62.77 42.488 62.7343 42.6577C62.7006 42.823 62.6027 42.9681 62.4621 43.0612L62.3079 43.1366C62.2021 43.1709 62.0892 43.1777 61.9799 43.1563L60.5039 43.0152C60.3395 42.9796 60.1951 42.8821 60.1005 42.743C60.0049 42.598 59.9707 42.4211 60.0054 42.251Z" fill="#36344C"/>
<path d="M39.9688 132.113C39.9688 132.113 59.4552 140.313 86.4234 137.453L84.662 122.105L39.9688 132.113Z" fill="#F4E9DC"/>
<path d="M81.6534 103.527L85.7502 126.094C85.7502 126.094 72.8401 129.636 62.495 131.309C52.1498 132.982 37.6523 131.991 37.6523 131.991L39.9483 107.106L38.2919 86.0516L36.5403 82.6798L28.3403 80.1345L29.9311 63.2228C29.9311 63.2228 39.9319 61.9371 43.5923 61.5074C47.2528 61.0777 52.8255 61.5074 52.8255 61.5074C53.1849 62.8102 53.9263 63.9755 54.9543 64.853C57.1847 66.7029 60.035 66.388 60.035 66.388C64.0366 66.165 65.8799 64.4758 66.6835 63.3114C66.7721 63.1802 66.8508 63.0588 66.9131 62.9473C67.1624 62.5078 67.2411 62.393 67.2411 62.393C67.2411 62.393 80.0003 65.017 83.5788 70.324C87.1573 75.6311 91.3524 89.5284 91.3524 89.5284L81.6436 95.8916L81.6534 103.527Z" fill="#AF3737"/>
<path d="M39.1086 84.4844C38.4678 81.7832 37.9968 79.0445 37.6982 76.2844C37.613 75.495 37.543 74.7046 37.4883 73.913C37.4883 73.7195 37.1603 73.7523 37.1866 73.9458C37.3858 76.7118 37.7582 79.4625 38.3018 82.1819C38.4548 82.9603 38.6243 83.7355 38.8102 84.5074C38.8561 84.7042 39.1546 84.6747 39.1086 84.4844Z" fill="#8E2323"/>
<path d="M37.0825 81.4406L34.8292 75.3234C34.8119 75.2902 34.7829 75.2646 34.7478 75.2516C34.7127 75.2386 34.674 75.2391 34.6393 75.253C34.6045 75.2669 34.5762 75.2932 34.5598 75.3268C34.5433 75.3605 34.54 75.399 34.5504 75.435C35.2982 77.4707 36.0482 79.5098 36.8004 81.5522C36.866 81.7326 37.1481 81.6243 37.0825 81.4406Z" fill="#8E2323"/>
<path d="M81.123 80.8989L81.0049 76.6874C81.0049 76.4939 80.6999 76.5267 80.7032 76.7202L81.1263 91.6836L81.2443 95.8951C81.2443 96.0886 81.5494 96.0525 81.5428 95.859C81.4051 90.8756 81.2651 85.8889 81.123 80.8989Z" fill="#8E2323"/>
<path d="M74.2801 99.3522C71.116 100.227 67.9771 101.202 64.8633 102.278C61.7494 103.354 58.6881 104.514 55.6793 105.758C53.9671 106.467 52.2681 107.203 50.5821 107.969C50.405 108.047 50.5133 108.33 50.6904 108.251C53.6817 106.891 56.7136 105.622 59.7858 104.446C62.8581 103.27 65.9511 102.192 69.0649 101.212C70.8318 100.654 72.6084 100.128 74.3949 99.6343C74.5786 99.5818 74.4671 99.2997 74.2801 99.3522Z" fill="#8E2323"/>
<path d="M64.6864 105.614C61.8683 106.171 59.0923 106.923 56.3782 107.864C56.1945 107.926 56.3027 108.208 56.4864 108.143C59.1764 107.212 61.9271 106.466 64.7192 105.912C64.9062 105.876 64.8767 105.575 64.6864 105.614Z" fill="#8E2323"/>
<path d="M71.748 91.0054C71.748 91.7532 71.2232 92.2059 70.5902 92.4781C69.78 92.8291 68.9502 93.1144 68.1203 93.4228C64.72 94.6976 61.2946 95.9079 57.8441 97.0537C54.3935 98.1995 50.9244 99.2754 47.4366 100.281C47.0037 100.406 46.5707 100.534 46.1246 100.655C45.7474 100.76 45.367 100.888 44.9766 100.967C44.4846 101.065 43.8221 101.108 43.4219 100.734C42.8282 100.173 43.3301 99.3825 43.6482 98.8282C44.0812 98.0869 44.5174 97.3489 44.9602 96.6175C45.1767 96.2633 45.403 95.9156 45.6162 95.5646C46.9282 93.3276 48.3332 91.141 49.831 89.0046C51.7536 86.2669 53.8139 83.6286 56.004 81.0998C56.5616 80.4438 57.129 79.8173 57.6998 79.1876C58.1844 78.5822 58.7344 78.0323 59.3398 77.5476C59.6185 77.3368 59.951 77.209 60.2992 77.1788C60.6473 77.1486 60.9969 77.2173 61.3078 77.377C61.9933 77.728 62.5214 78.361 63.0462 78.9055C65.385 81.3524 67.5269 83.9802 69.452 86.7644C69.9352 87.4685 70.4043 88.1813 70.8591 88.9029C71.2461 89.5228 71.748 90.228 71.748 91.0054Z" fill="#D36A3C"/>
<path d="M54.4692 91.5293C58.085 91.5293 61.0161 88.5982 61.0161 84.9824C61.0161 81.3667 58.085 78.4355 54.4692 78.4355C50.8535 78.4355 47.9224 81.3667 47.9224 84.9824C47.9224 88.5982 50.8535 91.5293 54.4692 91.5293Z" fill="#F2B34E"/>
<path d="M127.747 164.5H110.281L105.578 135.065L100.471 164.5H84.2678C84.2678 164.5 83.228 145.804 84.3465 131.237C84.9369 123.513 87.2165 117.989 89.2206 114.509C89.2206 114.509 90.6342 117.901 93.3238 118.934C98.7457 121.02 105.46 121.591 111.941 111.967L120.551 111.223C120.785 111.491 121.005 111.773 121.207 112.066C122.191 113.446 123.024 115.3 123.736 117.458C128.069 130.601 127.747 164.5 127.747 164.5Z" fill="#6BB2AB"/>
<path d="M105.116 113.236L105.031 123.149L105.008 125.773L102.958 125.805L103.286 116.251L103.375 113.509C103.375 113.315 103.086 113.266 103.079 113.459C102.97 116.702 102.861 119.946 102.751 123.191C102.722 124.106 102.692 125.018 102.66 125.933C102.656 125.956 102.659 125.98 102.666 126.002C102.673 126.024 102.685 126.044 102.701 126.061C102.717 126.077 102.737 126.09 102.759 126.098C102.78 126.106 102.804 126.109 102.827 126.107L105.179 126.071C105.267 126.071 105.31 125.979 105.313 125.904L105.398 115.995L105.425 113.217C105.418 113.004 105.12 113.043 105.116 113.236Z" fill="#389688"/>
<path d="M104.033 133.461C102.227 131.604 100.421 129.746 98.6174 127.885L97.0725 126.294C96.9381 126.156 96.7445 126.389 96.8823 126.527L102.298 132.103C102.813 132.631 103.324 133.162 103.839 133.694C103.977 133.835 104.164 133.599 104.033 133.461Z" fill="#389688"/>
<path d="M102.078 133.471C100.47 132.868 98.8392 132.341 97.1839 131.89C96.997 131.841 96.951 132.14 97.1347 132.189C98.766 132.626 100.372 133.144 101.953 133.743C102.133 133.812 102.252 133.537 102.078 133.471Z" fill="#389688"/>
<path d="M135.865 78.8488C134.287 83.5195 128.203 83.1391 125.563 86.9209C119.81 93.4219 117.737 88.7643 112.489 85.3399C108.451 83.5523 103.105 85.7729 99.7589 82.2731C96.8069 78.0255 100.372 74.5651 95.472 70.0814C93.0251 66.7653 96.3969 63.2852 96.9873 59.9331C97.8041 55.6461 97.1054 50.8573 99.4834 46.9935C102.977 41.3289 110.888 39.5315 115.775 44.1661C118.147 46.0095 118.635 48.9418 119.57 51.6248C120.223 53.4888 121.433 55.1069 123.037 56.2595C127.668 59.5952 126.156 58.831 127.436 65.6435C130.207 70.8423 138.387 70.3372 135.865 78.8488Z" fill="#36344C"/>
<path d="M134.147 77.8295C106.67 85.1931 98.0669 72.1977 96.6959 69.6819C96.6336 69.5704 96.5877 69.472 96.5549 69.4064C96.5221 69.3408 96.4893 69.2719 96.4893 69.2719L104.663 68.5733V67.8517L104.716 63.2236C106.005 64.4342 107.721 65.0866 109.49 65.0386C111.258 64.9907 112.936 64.2465 114.159 62.9678L115.622 68.3699C118.223 68.7471 123.494 69.554 126.446 70.3379C130.486 71.4007 132.96 75.868 132.96 75.868L134.147 77.8295Z" fill="#D36D29"/>
<path d="M116.562 79.9745L121.023 69.2227L122.073 69.4063L121.686 79.9745C121.686 79.9745 120.331 81.6473 116.562 79.9745Z" fill="#F2B34E"/>
<path d="M114.165 62.9707C114.165 62.9707 111.662 66.9264 104.682 66.7427L104.721 63.2233C106.011 64.4335 107.727 65.0859 109.495 65.0386C111.263 64.9913 112.941 64.2482 114.165 62.9707Z" fill="#AA3617"/>
<path d="M115.759 57.106L115.841 58.3655C115.953 60.074 115.382 61.7571 114.253 63.0446C113.125 64.332 111.531 65.1183 109.822 65.2306C108.114 65.3428 106.43 64.7717 105.143 63.643C103.856 62.5142 103.069 60.9203 102.957 59.2118L102.875 57.9555C99.2835 58.1851 98.8144 53.6915 100.274 52.5796C101.366 51.7596 102.226 52.6255 102.478 52.9404C102.531 53.0027 108.828 49.5751 111.272 47.02C111.6 46.692 111.892 46.364 112.184 46.0098L112.223 46.0393C112.299 46.3443 112.39 46.6428 112.489 46.9413C113.121 48.8398 114.124 50.5937 115.441 52.1007V52.209C115.441 52.209 116.212 50.6477 117.645 51.4546C117.999 51.6812 118.272 52.0142 118.426 52.4058C118.449 52.4681 118.475 52.5304 118.498 52.596C119.085 54.2393 118.501 56.9158 115.759 57.106Z" fill="#D36D29"/>
<path d="M110.17 57.9518C109.383 58.0436 108.596 58.1158 107.809 58.1781C108.15 56.4637 108.465 54.7428 108.753 53.0154C108.783 52.8317 108.497 52.8054 108.468 52.9858C108.17 54.7702 107.842 56.549 107.484 58.3224C107.464 58.4241 107.569 58.4831 107.651 58.4766C108.507 58.4142 109.36 58.3322 110.213 58.2371C110.403 58.2273 110.354 57.9321 110.17 57.9518Z" fill="#AA3617"/>
<path d="M104.945 58.3878C105.566 58.3878 106.07 57.8841 106.07 57.2627C106.07 56.6414 105.566 56.1377 104.945 56.1377C104.324 56.1377 103.82 56.6414 103.82 57.2627C103.82 57.8841 104.324 58.3878 104.945 58.3878Z" fill="#AA3617"/>
<path d="M113.972 57.8038C114.593 57.8038 115.097 57.3001 115.097 56.6787C115.097 56.0574 114.593 55.5537 113.972 55.5537C113.35 55.5537 112.847 56.0574 112.847 56.6787C112.847 57.3001 113.35 57.8038 113.972 57.8038Z" fill="#AA3617"/>
<path d="M105.767 55.2007C106.212 55.172 106.543 54.7031 106.508 54.1536C106.472 53.604 106.083 53.1819 105.638 53.2106C105.194 53.2394 104.862 53.7082 104.897 54.2577C104.933 54.8073 105.322 55.2295 105.767 55.2007Z" fill="#36344C"/>
<path d="M111.867 55.6402C112.313 55.6134 112.647 55.1453 112.614 54.5946C112.581 54.0439 112.193 53.6192 111.747 53.6459C111.302 53.6727 110.967 54.1408 111 54.6915C111.033 55.2422 111.421 55.6669 111.867 55.6402Z" fill="#36344C"/>
<path d="M106.415 51.8477C106.347 51.7111 106.23 51.6054 106.087 51.5525L105.939 51.5197C105.838 51.5087 105.735 51.5269 105.644 51.5722L104.401 51.9953C104.264 52.0622 104.16 52.18 104.109 52.3233C104.055 52.4647 104.06 52.6216 104.121 52.7598C104.183 52.898 104.296 53.0063 104.437 53.0613L104.588 53.0941C104.689 53.1041 104.791 53.0871 104.883 53.0449L106.133 52.6251C106.271 52.5592 106.377 52.4412 106.428 52.2971C106.482 52.1513 106.477 51.9902 106.415 51.8477Z" fill="#36344C"/>
<path d="M110.639 51.5759C110.686 51.4354 110.785 51.3181 110.915 51.2479L111.059 51.1954C111.157 51.1692 111.26 51.1692 111.358 51.1954L112.653 51.448C112.794 51.494 112.912 51.5928 112.981 51.7235C113.017 51.7899 113.04 51.8629 113.048 51.9381C113.055 52.0133 113.048 52.0892 113.026 52.1615C113.004 52.2339 112.968 52.3011 112.92 52.3593C112.871 52.4176 112.812 52.4657 112.745 52.5008L112.601 52.5533C112.503 52.5811 112.4 52.5811 112.302 52.5533L111.01 52.3008C110.87 52.2541 110.752 52.1555 110.682 52.0252C110.609 51.8869 110.594 51.7254 110.639 51.5759Z" fill="#36344C"/>
<path d="M112.161 60.9333C111.902 61.2676 111.557 61.5249 111.163 61.6775C110.769 61.8301 110.34 61.8722 109.924 61.7992C109.173 61.6713 108.064 60.953 108.477 60.0477C108.805 59.3491 109.727 59.3917 110.357 59.6705C110.473 59.4963 110.616 59.3414 110.78 59.2113C110.942 59.0852 111.132 59.0002 111.335 58.9637C111.537 58.9271 111.745 58.9401 111.941 59.0014C112.113 59.0604 112.263 59.1693 112.373 59.3142C112.483 59.459 112.547 59.6333 112.558 59.8148C112.566 60.2236 112.425 60.6215 112.161 60.9333Z" fill="#F4E9DC"/>
<path d="M92.8189 91.8146L92.6582 103.058C90.4213 107.627 86.9477 109.946 83.2512 109.618C76.5731 109.064 72.1156 80.6593 72.1156 80.6626C70.9774 79.1276 70.4362 77.2514 69.7802 75.4507C68.796 72.7517 67.5537 70.1539 66.0705 67.6935C65.9131 67.4311 65.7425 67.0867 65.9295 66.8374C66.0196 66.74 66.1371 66.6721 66.2665 66.6429C66.3959 66.6136 66.5311 66.6242 66.6544 66.6734C67.3399 66.8669 67.8319 67.4606 68.2714 68.0215C69.1461 69.1498 70.0284 70.2759 70.9184 71.3999C70.1457 69.0254 69.5547 66.5955 69.1505 64.1314C69.0042 63.365 69.0176 62.5767 69.1898 61.8157C69.2071 61.7124 69.2489 61.6147 69.3116 61.5308C69.3744 61.4469 69.4563 61.3793 69.5506 61.3336C69.6288 61.317 69.7099 61.3206 69.7862 61.3442C69.8626 61.3677 69.9316 61.4103 69.9869 61.4681C70.0986 61.5819 70.1867 61.7168 70.246 61.8649C70.6302 62.7175 70.9588 63.594 71.23 64.4889L72.9618 69.8452C72.3452 66.8932 71.7384 63.9215 71.617 60.9072C71.5992 60.7385 71.6148 60.568 71.6629 60.4053C71.6866 60.3225 71.7329 60.2479 71.7966 60.1899C71.8604 60.132 71.939 60.093 72.0237 60.0773C72.115 60.0802 72.2043 60.1039 72.285 60.1465C72.3658 60.1891 72.4357 60.2496 72.4895 60.3233C72.7996 60.695 73.0467 61.1149 73.2209 61.5665C73.7158 62.7875 74.1332 64.0386 74.4706 65.3122C74.8445 66.6242 75.2217 67.9133 75.5924 69.2121C75.1889 66.3717 74.8085 63.4853 75.225 60.6481C75.2644 60.3693 75.3661 60.0314 75.6416 59.9724C75.9171 59.9133 76.1467 60.1725 76.2976 60.4119C76.8322 61.3467 77.0192 62.4324 77.2094 63.4918C77.7167 66.3848 78.3017 69.2602 78.9642 72.1182C79.8062 70.3618 80.804 68.6845 81.9457 67.1064C82.0711 66.9062 82.2377 66.7351 82.4345 66.6045C82.5316 66.5397 82.6457 66.505 82.7625 66.505C82.8792 66.505 82.9934 66.5397 83.0905 66.6045C83.1887 66.7167 83.2566 66.8522 83.2876 66.998C83.3186 67.1439 83.3117 67.2952 83.2676 67.4377C82.9757 69.2679 82.1393 70.9669 81.6538 72.7545C81.3258 73.9813 81.1585 75.2441 80.8371 76.4708C80.5771 77.6313 80.0516 78.7159 79.3021 79.6393L83.9531 90.4633L85.3668 86.9077C87.6212 88.868 90.1274 90.5183 92.8189 91.8146Z" fill="#D36D29"/>
<path d="M142.104 106.51C137.45 109.967 123.753 117.455 123.753 117.455L124.009 124.133C121.007 123.786 118.957 120.348 118.957 120.348C118.957 120.348 118.085 126.502 117.025 126.341C115.966 126.18 115.504 122.753 116.104 117.698C116.704 112.644 121.224 112.056 121.224 112.056L131.497 100.904L129.529 97.2145C132.376 96.4502 136.679 94.8922 140.087 91.9238L142.383 96.3026C142.383 96.3026 146.755 103.056 142.104 106.51Z" fill="#D36D29"/>
<path d="M141.612 91.9235C138.204 94.8755 133.901 96.4499 131.054 97.2141C130.05 97.4914 129.032 97.7105 128.003 97.8701L124.484 93.019L120.568 111.216L111.958 111.961C105.47 121.585 99.7034 122.847 92.576 119.154C90.0209 117.842 89.2369 114.503 89.2369 114.503C91.0147 111.423 92.576 109.937 92.576 109.937L92.6744 103.049L92.8351 91.8021C90.1361 90.5201 87.6218 88.8807 85.36 86.9281C84.7325 86.3904 84.151 85.8012 83.6216 85.1667C85.008 81.5406 86.5868 77.9909 88.3513 74.533C91.0377 69.3768 96.489 69.2686 96.489 69.2686C96.489 69.2686 96.5087 69.3178 96.5546 69.4063C96.6005 69.4949 96.6333 69.567 96.6957 69.6818C98.0733 72.1976 106.67 85.193 134.147 77.8294L141.612 91.9235Z" fill="#F4E9DC"/>
<path d="M76.2094 69.2811C74.2725 69.7371 72.4181 70.4906 70.7121 71.5148C70.5448 71.6165 70.7121 71.8592 70.8892 71.7608C72.5517 70.7622 74.3584 70.0265 76.2455 69.5796C76.4292 69.5369 76.3996 69.2352 76.2094 69.2811Z" fill="#AA3617"/>
<path d="M77.4777 79.1016C76.314 79.552 75.2004 80.1225 74.155 80.804C73.9943 80.9122 74.155 81.1549 74.3322 81.05C75.357 80.382 76.4486 79.8225 77.5892 79.3804C77.6224 79.3632 77.648 79.3342 77.661 79.2991C77.674 79.264 77.6736 79.2253 77.6597 79.1905C77.6458 79.1558 77.6194 79.1275 77.5858 79.111C77.5522 79.0946 77.5136 79.0912 77.4777 79.1016Z" fill="#AA3617"/>
<path d="M88.4991 98.4861L84.3466 90.765C84.2548 90.5977 83.9727 90.7027 84.0645 90.8765L88.217 98.5976C88.3088 98.7649 88.5909 98.6567 88.4991 98.4861Z" fill="#AA3617"/>
<path d="M119.374 118.934C119.334 118.929 119.295 118.939 119.262 118.962C119.23 118.985 119.208 119.02 119.2 119.058L118.872 120.37C118.869 120.39 118.87 120.41 118.874 120.429C118.879 120.449 118.888 120.467 118.899 120.483C118.911 120.499 118.926 120.512 118.943 120.523C118.96 120.533 118.979 120.54 118.998 120.543C119.018 120.546 119.038 120.545 119.057 120.54C119.076 120.535 119.094 120.527 119.11 120.515C119.126 120.503 119.14 120.489 119.15 120.472C119.16 120.455 119.167 120.436 119.17 120.416L119.498 119.104C119.502 119.085 119.501 119.065 119.496 119.046C119.492 119.027 119.484 119.009 119.472 118.993C119.46 118.977 119.446 118.964 119.429 118.953C119.412 118.943 119.393 118.937 119.374 118.934Z" fill="#AA3617"/>
<path d="M123.309 116.074C122.996 115.418 122.683 114.756 122.368 114.089C122.286 113.912 122.004 114.021 122.086 114.198L123.03 116.182C123.112 116.356 123.394 116.248 123.309 116.074Z" fill="#AA3617"/>
<path d="M125.038 124.224C122.602 123.725 120.441 122.333 118.98 120.321C118.956 120.288 118.921 120.266 118.881 120.26C118.841 120.253 118.801 120.263 118.768 120.286C118.735 120.31 118.714 120.345 118.707 120.385C118.701 120.425 118.71 120.465 118.734 120.498C119.908 122.111 121.524 123.348 123.388 124.06C123.913 124.256 124.452 124.411 125.002 124.523C125.179 124.559 125.212 124.263 125.038 124.224Z" fill="#389688"/>
<path d="M92.7824 82.3855C92.7824 82.192 92.4839 82.2281 92.4839 82.4183L92.5232 90.5429C92.5232 90.7364 92.8217 90.7003 92.8217 90.5101L92.7824 82.3855Z" fill="#E2CAB0"/>
<path d="M105.86 91.155C104.746 92.5197 103.203 93.4675 101.481 93.8446C100.134 94.1255 98.7366 94.041 97.4332 93.5998C96.1298 93.1586 94.9681 92.3768 94.0686 91.3354C93.944 91.1911 93.698 91.365 93.8259 91.5126C95.0327 92.9104 96.6804 93.8546 98.4966 94.189C99.9003 94.4314 101.343 94.2968 102.678 93.7989C104.013 93.301 105.191 92.4577 106.093 91.3551C106.12 91.3242 106.133 91.2841 106.13 91.2435C106.127 91.2029 106.108 91.1652 106.077 91.1386C106.046 91.1121 106.006 91.0989 105.965 91.102C105.924 91.1051 105.887 91.1242 105.86 91.155Z" fill="#E2CAB0"/>
<path d="M121.739 91.287C120.624 92.6516 119.081 93.5995 117.36 93.9766C116.013 94.2568 114.616 94.1723 113.313 93.7317C112.01 93.2912 110.848 92.5106 109.947 91.4707C109.819 91.3231 109.576 91.5002 109.701 91.6478C110.916 93.0413 112.569 93.9795 114.388 94.3079C115.793 94.5515 117.238 94.4164 118.574 93.9166C119.909 93.4168 121.088 92.5703 121.988 91.4641C122.011 91.4311 122.021 91.39 122.014 91.35C122.007 91.3101 121.985 91.2744 121.952 91.2509C121.919 91.2274 121.878 91.218 121.838 91.2248C121.798 91.2316 121.762 91.2539 121.739 91.287Z" fill="#E2CAB0"/>
<path d="M124.572 92.6351C123.575 90.6671 122.481 88.7527 121.292 86.8918C121.187 86.7278 120.944 86.8918 121.046 87.0689C122.22 88.9057 123.303 90.7972 124.293 92.7433C124.378 92.9172 124.66 92.8089 124.572 92.6351Z" fill="#E2CAB0"/>
<path d="M114.037 108.297C113.355 109.272 112.673 110.246 111.993 111.216C111.882 111.374 112.115 111.567 112.226 111.407L114.27 108.491C114.388 108.33 114.148 108.14 114.037 108.297Z" fill="#E2CAB0"/>
<path d="M108.783 113.381C106.976 115.372 104.748 117.052 102.157 117.862C99.566 118.672 96.7485 118.557 94.3968 117.206C93.2132 116.529 92.2307 115.55 91.5497 114.369C91.4546 114.201 91.2217 114.369 91.307 114.546C92.5534 116.743 94.8855 118.177 97.3553 118.564C100.202 119.01 103.105 118.16 105.496 116.619C106.796 115.763 107.979 114.742 109.016 113.581C109.14 113.427 108.914 113.237 108.783 113.381Z" fill="#E2CAB0"/>
<path d="M133.264 99.8114C133.241 99.7795 133.206 99.758 133.167 99.7513C133.128 99.7445 133.087 99.7531 133.055 99.7753L131.68 100.589C131.664 100.6 131.65 100.615 131.64 100.632C131.629 100.649 131.622 100.668 131.619 100.687C131.616 100.707 131.617 100.727 131.621 100.746C131.626 100.766 131.634 100.784 131.646 100.8C131.657 100.816 131.672 100.83 131.689 100.841C131.706 100.851 131.725 100.858 131.744 100.861C131.764 100.865 131.784 100.864 131.804 100.859C131.823 100.855 131.841 100.846 131.857 100.835L133.232 100.021C133.263 99.9972 133.284 99.9619 133.29 99.9229C133.296 99.8838 133.287 99.8439 133.264 99.8114Z" fill="#AA3617"/>
<path d="M115.867 68.0381C114.288 69.366 112.307 70.121 110.245 70.1806C108.183 70.2401 106.161 69.6007 104.509 68.3661C104.354 68.2513 104.164 68.4842 104.318 68.599C106.021 69.8789 108.106 70.545 110.235 70.4891C112.364 70.4331 114.412 69.6583 116.044 68.2907C116.195 68.1595 116.028 67.9135 115.867 68.0381Z" fill="#EDDAC5"/>
<path d="M109.73 73.1805C110.52 73.1805 111.16 72.5402 111.16 71.7504C111.16 70.9606 110.52 70.3203 109.73 70.3203C108.941 70.3203 108.3 70.9606 108.3 71.7504C108.3 72.5402 108.941 73.1805 109.73 73.1805Z" fill="#F2B34E"/>
</g>
<defs>
<clipPath id="clip0_2280_11784">
<rect width="213.2" height="164" fill="white" transform="translate(0.899902 0.5)"/>
</clipPath>
</defs>
</svg>
