<svg width="31" height="30" viewBox="0 0 31 30" fill="none" xmlns="http://www.w3.org/2000/svg">
<g clip-path="url(#clip0_2096_2141)">
<path d="M11.3125 13.6841V14.3755C11.3125 14.6142 11.506 14.8077 11.7446 14.8077C11.9833 14.8077 12.1768 14.6142 12.1768 14.3755V13.6841C12.1768 13.4454 11.9833 13.252 11.7446 13.252C11.506 13.252 11.3125 13.4454 11.3125 13.6841Z" fill="#D98600"/>
<path d="M18.509 13.6841V14.3755C18.509 14.6142 18.7025 14.8077 18.9412 14.8077C19.1798 14.8077 19.3733 14.6142 19.3733 14.3755V13.6841C19.3733 13.4454 19.1798 13.252 18.9412 13.252C18.7025 13.252 18.509 13.4454 18.509 13.6841Z" fill="#D98600"/>
<path d="M15.9659 14.071C15.636 14.4495 15.0497 14.4492 14.7201 14.071C14.5633 13.8911 14.2903 13.8724 14.1104 14.0291C13.9305 14.1859 13.9117 14.4589 14.0685 14.6388C14.7428 15.4125 15.9437 15.4118 16.6174 14.6388C16.7742 14.4589 16.7555 14.1859 16.5755 14.0291C16.3956 13.8723 16.1226 13.891 15.9659 14.071Z" fill="#D98600"/>
<path d="M28.8116 4.04102C26.4417 3.4722 23.9874 3.94698 22.0185 5.34166C21.7178 5.06722 21.4228 4.87471 20.8805 4.85432C20.7477 4.49235 20.4875 4.18409 20.1416 3.9925C18.68 3.18301 17.0209 2.75513 15.3437 2.75513C14.0016 2.75513 12.6688 3.026 11.4305 3.55777C11.2112 3.65197 11.1097 3.90607 11.2039 4.12537C11.2981 4.34467 11.5522 4.44608 11.7715 4.35193C12.9182 3.85946 14.137 3.61942 15.3437 3.61942C16.8749 3.61942 18.3891 4.00985 19.7229 4.74859C19.94 4.86884 20.085 5.08647 20.1106 5.33077C20.1336 5.55076 20.3191 5.71786 20.5404 5.71786L20.7352 5.71653C21.0053 5.71653 21.1746 5.74511 21.3503 5.9012C22.5116 6.93374 23.3907 8.25715 23.8926 9.72806C23.9294 9.83615 23.9204 9.95058 23.8739 10.0503H23.7626C23.1391 10.0503 22.5528 9.80746 22.1119 9.36655L19.2854 6.53992C19.1166 6.37109 18.843 6.37115 18.6742 6.53992C16.4106 8.80361 13.4009 10.0503 10.1996 10.0503H6.81185C6.7653 9.95064 6.75619 9.83609 6.7929 9.72846C7.42919 7.86297 8.68316 6.23252 10.3238 5.13752C10.5223 5.00499 10.5758 4.73666 10.4433 4.53816C10.3108 4.33966 10.0425 4.28607 9.84396 4.4186C9.42801 4.69621 9.0351 5.00557 8.66772 5.34195C6.6988 3.94698 4.24422 3.47203 1.87427 4.04102C0.95968 4.26055 0.405842 5.19093 0.649976 6.10201L1.41107 8.94265C1.70337 10.0336 2.96945 10.5417 3.92564 9.93629C4.61385 9.50052 5.35725 9.18482 6.14381 8.99341C6.08389 9.14397 6.02719 9.29591 5.97482 9.44952C5.90654 9.64969 5.88758 9.86444 5.92474 10.0814C4.6441 10.2783 3.66024 11.3877 3.66024 12.7226C3.66024 14.188 4.84605 15.3813 6.30849 15.3943C7.16437 18.2033 9.29692 20.4608 12.0274 21.4881C10.8207 22.4838 10.0992 23.9828 10.0992 25.5799V26.3137C10.0992 26.5525 10.2926 26.7459 10.5313 26.7459H20.1546C20.3933 26.7459 20.5867 26.5525 20.5867 26.3137V25.5799C20.5867 23.9859 19.8647 22.4845 18.6585 21.4883C19.2262 21.2755 19.7744 21.0087 20.2945 20.6877C20.4975 20.5624 20.5605 20.2961 20.4352 20.093C20.3098 19.89 20.0435 19.827 19.8405 19.9523C18.4914 20.785 16.9362 21.2251 15.3428 21.2251C10.6128 21.2251 6.76472 17.377 6.76472 12.6469C6.76472 12.0642 6.82453 11.4831 6.94115 10.9146H10.1996C13.3971 10.9146 16.552 9.71895 18.9747 7.45157L21.5008 9.97772C22.1008 10.5776 22.8971 10.9095 23.7448 10.9141C23.8613 11.4824 23.9211 12.0637 23.9211 12.6469C23.921 15.0378 22.911 17.3387 21.15 18.9597C20.9744 19.1213 20.9631 19.3947 21.1247 19.5703C21.2867 19.7462 21.5601 19.757 21.7353 19.5956C22.9826 18.4475 23.8868 16.9893 24.3736 15.3944C25.8377 15.3833 27.0254 14.1893 27.0254 12.7226C27.0254 11.3877 26.0415 10.2783 24.7609 10.0813C24.7976 9.86623 24.7796 9.65188 24.7106 9.44924C24.6582 9.29551 24.6008 9.14374 24.5409 8.99306C25.3278 9.18447 26.0715 9.50023 26.76 9.93623C27.7172 10.5421 28.9828 10.032 29.2746 8.94259L30.0358 6.10195C30.2797 5.19191 29.727 4.26078 28.8116 4.04102V4.04102ZM4.52454 12.7226C4.52454 11.8197 5.18975 11.0693 6.05583 10.9358C5.95257 11.499 5.90043 12.0724 5.90043 12.647C5.90043 13.2858 5.96456 13.9098 6.08602 14.5134C5.20537 14.3928 4.52454 13.6359 4.52454 12.7226ZM12.011 25.58V25.8817H10.9634V25.58C10.9634 25.4102 10.9737 25.2419 10.9928 25.0755C11.3288 25.1931 11.67 25.2985 12.0145 25.3883C12.0122 25.4522 12.011 25.5162 12.011 25.58ZM19.7224 25.58V25.8817H18.6748V25.58C18.6748 25.5162 18.6736 25.4522 18.6713 25.3883C19.0158 25.2985 19.3569 25.1931 19.6929 25.0756C19.712 25.242 19.7224 25.4103 19.7224 25.58ZM13.0584 21.8095C13.7902 21.9919 14.5553 22.0895 15.3428 22.0895C16.1178 22.0895 16.8846 21.9945 17.6275 21.8097C18.5295 22.3692 19.1905 23.2334 19.5091 24.2246C19.0543 24.3883 18.5879 24.526 18.1176 24.6344C17.9045 24.6836 17.7617 24.8842 17.785 25.1016C17.8019 25.2594 17.8105 25.4203 17.8105 25.58V25.8817H12.8753V25.58C12.8753 25.4203 12.8839 25.2594 12.9008 25.1016C12.9241 24.8842 12.7813 24.6836 12.5682 24.6344C12.0977 24.5259 11.6311 24.3882 11.1761 24.2245C11.4944 23.2325 12.1555 22.3693 13.0584 21.8095V21.8095ZM6.59353 8.02148C5.4722 8.20218 4.42019 8.6001 3.4633 9.20602C3.00275 9.49764 2.38807 9.24958 2.24592 8.71891L1.48482 5.87833C1.36763 5.44117 1.63095 4.98828 2.07594 4.88146C4.15318 4.3827 6.3025 4.77763 8.04675 5.9628C7.47799 6.58417 6.98857 7.27698 6.59353 8.02148V8.02148ZM24.6301 10.9358C25.496 11.0694 26.1612 11.8198 26.1612 12.7226C26.1612 13.6369 25.4789 14.3944 24.5968 14.5138C24.7207 13.9031 24.7853 13.278 24.7853 12.647C24.7853 12.0721 24.7332 11.4987 24.6301 10.9358V10.9358ZM29.201 5.87833L28.4398 8.71891C28.2972 9.25091 27.6815 9.49689 27.2225 9.20602C26.2659 8.60027 25.2142 8.20241 24.0932 8.0216C23.6991 7.27664 23.2106 6.58371 22.6406 5.96171C24.3846 4.7774 26.5331 4.38288 28.6099 4.8814C29.0528 4.98776 29.3187 5.43904 29.201 5.87833Z" fill="#D98600"/>
</g>
<defs>
<clipPath id="clip0_2096_2141">
<rect width="29.5011" height="29.5011" fill="white" transform="translate(0.592285)"/>
</clipPath>
</defs>
</svg>
