<svg width="20" height="20" viewBox="0 0 20 20" fill="none" xmlns="http://www.w3.org/2000/svg">
<g clip-path="url(#clip0_1792_9602)">
<path d="M11.0487 6.61719L5.74729 11.9183L5.14642 14.3652C5.11276 14.5022 5.15316 14.6468 5.25292 14.7466C5.353 14.8467 5.4977 14.8866 5.63429 14.8531L8.08134 14.2522L13.3828 8.9511L11.0487 6.61719ZM5.91163 14.0879L6.11823 13.2466L6.75299 13.8813L5.91163 14.0879Z" fill="#181A20"/>
<path d="M14.6864 6.78465L13.2152 5.31344C12.9769 5.07521 12.5907 5.07521 12.3524 5.31344L11.7666 5.89924L14.1006 8.23314L14.6864 7.64735C14.9247 7.40913 14.9247 7.02288 14.6864 6.78465Z" fill="#181A20"/>
</g>
<defs>
<clipPath id="clip0_1792_9602">
<rect width="9.7305" height="9.73" fill="white" transform="translate(5.13477 5.13477)"/>
</clipPath>
</defs>
</svg>
