<svg width="31" height="30" viewBox="0 0 31 30" fill="none" xmlns="http://www.w3.org/2000/svg">
<path d="M24.6847 7.25445C24.6412 7.21166 24.6067 7.16086 24.5831 7.10494C24.5596 7.04902 24.5475 6.98908 24.5475 6.92855C24.5475 6.86801 24.5596 6.80808 24.5831 6.75215C24.6067 6.69623 24.6412 6.64543 24.6847 6.60264C24.8376 6.41653 25.0308 6.26641 25.2502 6.16328C25.4697 6.06016 25.7098 6.00664 25.953 6.00664C26.1962 6.00664 26.4363 6.06016 26.6558 6.16328C26.8752 6.26641 27.0684 6.41653 27.2213 6.60264C27.5525 6.92856 27.7177 6.92856 27.827 6.92856C27.9364 6.92856 28.1015 6.92856 28.4328 6.60266C28.4762 6.55923 28.5278 6.52467 28.5848 6.501C28.6418 6.47732 28.7031 6.46498 28.7649 6.46471C28.8268 6.46443 28.8881 6.47622 28.9453 6.49939C29.0026 6.52256 29.0546 6.55665 29.0983 6.5997C29.1421 6.64275 29.1767 6.6939 29.2003 6.75019C29.2238 6.80649 29.2358 6.86682 29.2355 6.92769C29.2352 6.98857 29.2227 7.04879 29.1986 7.10488C29.1746 7.16096 29.1394 7.2118 29.0953 7.25445C28.9424 7.44057 28.7492 7.59068 28.5298 7.69381C28.3103 7.79693 28.0702 7.85046 27.827 7.85046C27.5838 7.85046 27.3437 7.79693 27.1243 7.69381C26.9048 7.59068 26.7116 7.44057 26.5587 7.25445C26.2275 6.92856 26.0623 6.92856 25.953 6.92856C25.8436 6.92856 25.6785 6.92856 25.3472 7.25445C25.3037 7.29726 25.2521 7.33122 25.1952 7.35439C25.1384 7.37756 25.0775 7.38949 25.016 7.38949C24.9544 7.38949 24.8935 7.37756 24.8367 7.35439C24.7798 7.33122 24.7282 7.29726 24.6847 7.25445V7.25445ZM28.4328 8.90741C28.1015 9.23334 27.9364 9.23334 27.827 9.23334C27.7177 9.23334 27.5525 9.23334 27.2212 8.90744C27.0684 8.72133 26.8752 8.57121 26.6557 8.46809C26.4363 8.36496 26.1962 8.31144 25.953 8.31144C25.7098 8.31144 25.4697 8.36496 25.2502 8.46809C25.0308 8.57121 24.8375 8.72133 24.6847 8.90744C24.5978 8.99406 24.5492 9.11101 24.5496 9.23275C24.55 9.35448 24.5993 9.47112 24.6868 9.5572C24.7743 9.64328 24.8928 9.69181 25.0166 9.69219C25.1403 9.69257 25.2592 9.64477 25.3472 9.55923C25.6785 9.23334 25.8436 9.23334 25.953 9.23334C26.0623 9.23334 26.2275 9.23334 26.5588 9.55923C26.7116 9.74534 26.9048 9.89546 27.1243 9.99858C27.3437 10.1017 27.5838 10.1552 27.827 10.1552C28.0702 10.1552 28.3104 10.1017 28.5298 9.99858C28.7492 9.89546 28.9425 9.74534 29.0953 9.55923C29.1393 9.51653 29.1742 9.4657 29.1981 9.40966C29.222 9.35363 29.2344 9.2935 29.2346 9.23273C29.2348 9.17196 29.2228 9.11175 29.1992 9.05557C29.1757 8.99938 29.1411 8.94834 29.0974 8.90537C29.0537 8.8624 29.0018 8.82835 28.9447 8.80518C28.8876 8.78202 28.8264 8.77019 28.7647 8.77038C28.7029 8.77058 28.6418 8.78278 28.5848 8.80631C28.5279 8.82983 28.4762 8.8642 28.4328 8.90744V8.90741ZM9.08655 7.38951H5.33846C5.2142 7.38951 5.09503 7.43808 5.00717 7.52453C4.9193 7.61097 4.86994 7.72822 4.86994 7.85047C4.86994 7.97272 4.9193 8.08997 5.00717 8.17642C5.09503 8.26286 5.2142 8.31143 5.33846 8.31143H9.08655C9.21081 8.31143 9.32998 8.26286 9.41784 8.17642C9.5057 8.08997 9.55506 7.97272 9.55506 7.85047C9.55506 7.72822 9.5057 7.61097 9.41784 7.52453C9.32998 7.43808 9.21081 7.38951 9.08655 7.38951ZM9.08655 5.08474H5.33846C5.2142 5.08474 5.09503 5.1333 5.00717 5.21975C4.9193 5.30619 4.86994 5.42344 4.86994 5.54569C4.86994 5.66795 4.9193 5.78519 5.00717 5.87164C5.09503 5.95808 5.2142 6.00665 5.33846 6.00665H9.08655C9.21081 6.00665 9.32998 5.95808 9.41784 5.87164C9.5057 5.78519 9.55506 5.66795 9.55506 5.54569C9.55506 5.42344 9.5057 5.30619 9.41784 5.21975C9.32998 5.1333 9.21081 5.08474 9.08655 5.08474ZM9.08655 9.69429H5.33846C5.2142 9.69429 5.09503 9.74286 5.00717 9.8293C4.9193 9.91575 4.86994 10.033 4.86994 10.1552C4.86994 10.2775 4.9193 10.3947 5.00717 10.4812C5.09503 10.5676 5.2142 10.6162 5.33846 10.6162H9.08655C9.21081 10.6162 9.32998 10.5676 9.41784 10.4812C9.5057 10.3947 9.55506 10.2775 9.55506 10.1552C9.55506 10.033 9.5057 9.91575 9.41784 9.8293C9.32998 9.74286 9.21081 9.69429 9.08655 9.69429ZM23.6104 5.08474V10.6162C23.6105 10.6767 23.5984 10.7367 23.5748 10.7926C23.5513 10.8486 23.5168 10.8994 23.4733 10.9422C23.4298 10.985 23.3781 11.019 23.3212 11.0421C23.2644 11.0653 23.2034 11.0772 23.1419 11.0772C19.6638 11.0772 16.908 11.9883 14.2434 12.8692C13.7687 13.0261 13.3004 13.1795 12.8346 13.3264V14.7648C12.8342 15.1314 12.686 15.4829 12.4225 15.7422C12.159 16.0014 11.8018 16.1473 11.4291 16.1477H10.9606V20.7572C10.9597 21.0423 10.8692 21.3201 10.7014 21.5524C10.5336 21.7848 10.2968 21.9604 10.0236 22.0551V23.062C10.0233 23.3064 9.92443 23.5407 9.74877 23.7135C9.57311 23.8864 9.33497 23.9836 9.08655 23.9839V25.8277C9.08655 26.439 9.33336 27.0252 9.77267 27.4575C10.212 27.8897 10.8078 28.1325 11.4291 28.1325C12.0504 28.1325 12.6462 27.8897 13.0856 27.4575C13.5249 27.0252 13.7717 26.439 13.7717 25.8277V23.523C13.7717 22.6672 14.1172 21.8465 14.7322 21.2413C15.3473 20.6362 16.1815 20.2963 17.0513 20.2963C17.9211 20.2963 18.7552 20.6362 19.3703 21.2413C19.9853 21.8465 20.3308 22.6672 20.3308 23.523V28.5935C20.3308 28.7157 20.2815 28.833 20.1936 28.9194C20.1058 29.0059 19.9866 29.0544 19.8623 29.0544C19.7381 29.0544 19.6189 29.0059 19.531 28.9194C19.4432 28.833 19.3938 28.7157 19.3938 28.5935V23.523C19.3938 22.9117 19.147 22.3255 18.7077 21.8932C18.2684 21.461 17.6725 21.2182 17.0513 21.2182C16.43 21.2182 15.8341 21.461 15.3948 21.8932C14.9555 22.3255 14.7087 22.9117 14.7087 23.523V25.8277C14.7087 26.6835 14.3632 27.5042 13.7481 28.1093C13.1331 28.7145 12.2989 29.0544 11.4291 29.0544C10.5593 29.0544 9.72514 28.7145 9.11009 28.1093C8.49505 27.5042 8.14953 26.6835 8.14953 25.8277V23.9839C7.90111 23.9836 7.66296 23.8864 7.48731 23.7135C7.31165 23.5407 7.21283 23.3064 7.2125 23.062V22.1079C6.94646 22.0544 6.70205 21.9257 6.5092 21.7376C6.31636 21.5495 6.18346 21.3102 6.12678 21.0489L4.47924 13.4773C3.2124 12.7807 2.21631 11.6902 1.6471 10.3767C1.0779 9.06329 0.967765 7.60114 1.33396 6.21949C1.70016 4.83784 2.52199 3.6148 3.67062 2.74208C4.81925 1.86937 6.22975 1.39632 7.68101 1.3971C9.9037 1.3971 12.0115 2.09393 14.2434 2.83173C16.908 3.71268 19.6638 4.62378 23.1419 4.62378C23.2034 4.62375 23.2644 4.63565 23.3212 4.6588C23.3781 4.68195 23.4298 4.71591 23.4733 4.75872C23.5168 4.80153 23.5513 4.85236 23.5748 4.9083C23.5984 4.96424 23.6105 5.02419 23.6104 5.08474V5.08474ZM9.08655 23.062V22.1401H8.14953V23.062H9.08655ZM10.0236 20.7572V14.0653C9.25228 14.2184 8.46783 14.2983 7.68101 14.3038C6.95138 14.3025 6.22716 14.1805 5.53857 13.9432L7.04276 20.8545C7.06538 20.9579 7.12347 21.0505 7.20729 21.1167C7.29111 21.1829 7.39553 21.2188 7.50304 21.2182H9.55506C9.67929 21.2181 9.79841 21.1695 9.88626 21.0831C9.9741 20.9966 10.0235 20.8794 10.0236 20.7572ZM11.8976 13.6101C11.5848 13.7001 11.2725 13.786 10.9606 13.8627V15.2258H11.4291C11.5533 15.2257 11.6725 15.1771 11.7603 15.0907C11.8482 15.0042 11.8975 14.887 11.8976 14.7648V13.6101ZM20.7993 10.2988V5.40218C18.4595 5.07965 16.1616 4.51098 13.9451 3.70592C11.7878 2.99243 9.75043 2.31901 7.68101 2.31901C6.18993 2.31901 4.75992 2.90178 3.70556 3.93913C2.6512 4.97649 2.05887 6.38343 2.05887 7.85047C2.05887 9.31751 2.6512 10.7245 3.70556 11.7618C4.75992 12.7992 6.18993 13.3819 7.68101 13.3819C9.75043 13.3819 11.7878 12.7085 13.9451 11.995C16.1616 11.19 18.4595 10.6213 20.7993 10.2988V10.2988ZM22.6734 5.54029C22.3542 5.53292 22.0453 5.51114 21.7364 5.48968V10.2112C22.0453 10.1898 22.3542 10.168 22.6734 10.1606V5.54029Z" fill="#D98600"/>
</svg>
