<svg width="24" height="23" viewBox="0 0 24 23" fill="none" xmlns="http://www.w3.org/2000/svg">
<g clip-path="url(#clip0_339_2798)">
<path d="M18.5767 22.9028H4.91381C3.90845 22.9009 2.94481 22.5007 2.23392 21.7898C1.52303 21.0789 1.12282 20.1153 1.12094 19.1099C1.12094 17.5871 1.04977 10.3714 1.04977 8.98374C1.05179 8.07593 1.28472 7.18355 1.72665 6.39056C2.16858 5.59758 2.80498 4.93006 3.57598 4.4508L9.68159 0.693505C10.2791 0.32363 10.9678 0.127686 11.6705 0.127686C12.3732 0.127686 13.062 0.32363 13.6595 0.693505L19.7651 4.4508C20.5397 4.92433 21.1792 5.58962 21.6217 6.38241C22.0642 7.1752 22.2949 8.06871 22.2913 8.97663C22.2913 10.3643 22.3624 17.58 22.3624 19.1028C22.3634 19.6009 22.2662 20.0943 22.0765 20.5548C21.8867 21.0154 21.6081 21.434 21.2566 21.7869C20.905 22.1397 20.4874 22.4199 20.0276 22.6114C19.5678 22.8028 19.0748 22.9019 18.5767 22.9028ZM11.6741 1.64706C11.2516 1.64781 10.8377 1.76608 10.4786 1.98863L4.37299 5.74593C3.82266 6.08718 3.36807 6.56268 3.05191 7.12779C2.73574 7.6929 2.56837 8.32909 2.5655 8.97663C2.5655 10.3643 2.63666 17.58 2.63666 19.1028C2.63666 19.7068 2.87657 20.286 3.30362 20.713C3.73067 21.1401 4.30987 21.38 4.91381 21.38H18.5767C19.1806 21.38 19.7598 21.1401 20.1869 20.713C20.6139 20.286 20.8538 19.7068 20.8538 19.1028C20.8538 17.58 20.7827 10.3643 20.7827 8.97663C20.7846 8.32817 20.6192 7.69017 20.3026 7.12425C19.986 6.55834 19.5288 6.08361 18.9752 5.74593L12.8625 1.98863C12.5056 1.767 12.0942 1.64876 11.6741 1.64706Z" fill="none"/>
<path d="M14.7482 18.3486H8.67108C8.48275 18.3304 8.30797 18.2426 8.1808 18.1025C8.05363 17.9624 7.98318 17.78 7.98318 17.5908C7.98318 17.4016 8.05363 17.2191 8.1808 17.079C8.30797 16.9389 8.48275 16.8512 8.67108 16.8329H14.7411C14.8468 16.8226 14.9535 16.8346 15.0543 16.868C15.1551 16.9015 15.2477 16.9556 15.3264 17.027C15.405 17.0983 15.4678 17.1854 15.5108 17.2825C15.5538 17.3796 15.576 17.4846 15.576 17.5908C15.576 17.697 15.5538 17.802 15.5108 17.8991C15.4678 17.9962 15.405 18.0832 15.3264 18.1546C15.2477 18.2259 15.1551 18.2801 15.0543 18.3135C14.9535 18.3469 14.8468 18.3589 14.7411 18.3486H14.7482Z" fill="none"/>
</g>
<defs>
<clipPath id="clip0_339_2798">
<rect width="22.7715" height="22.7715" fill="white" transform="translate(0.323929 0.131104)"/>
</clipPath>
</defs>
</svg>
