<svg width="26" height="26" viewBox="0 0 26 26" fill="none" xmlns="http://www.w3.org/2000/svg">
<path d="M23.2588 17.2119L15.873 7.16688L16.9102 4.05522C16.985 3.83322 17.0061 3.59666 16.9719 3.36493C16.9376 3.13319 16.8489 2.91287 16.7131 2.72201C16.5773 2.53116 16.3981 2.37521 16.1904 2.26694C15.9827 2.15867 15.7522 2.10116 15.518 2.09912H10.137C9.90271 2.10116 9.67228 2.15867 9.46455 2.26694C9.25681 2.37521 9.07768 2.53116 8.94185 2.72201C8.80601 2.91287 8.71732 3.13319 8.68306 3.36493C8.6488 3.59666 8.66993 3.83322 8.74472 4.05522L9.78194 7.16688L2.37522 17.2119C1.91539 17.8499 1.67149 18.6182 1.6791 19.4047V20.6577C1.67818 21.1455 1.77348 21.6288 1.95953 22.0797C2.14558 22.5307 2.41874 22.9405 2.76336 23.2858C3.10799 23.6311 3.51732 23.905 3.96793 24.0919C4.41854 24.2788 4.90159 24.375 5.38942 24.375H20.2446C21.2287 24.375 22.1724 23.9841 22.8682 23.2883C23.5641 22.5924 23.955 21.6487 23.955 20.6647V19.4116C23.9641 18.6228 23.7201 17.8519 23.2588 17.2119ZM15.4971 3.58186L14.5086 6.55429H11.1255L10.137 3.58186H15.4971ZM22.4583 20.6577C22.4583 21.2485 22.2236 21.8151 21.8059 22.2328C21.3881 22.6506 20.8215 22.8853 20.2307 22.8853H5.38942C4.79863 22.8853 4.23203 22.6506 3.81428 22.2328C3.39653 21.8151 3.16183 21.2485 3.16183 20.6577V19.4047C3.16761 18.9387 3.31847 18.4861 3.59343 18.1099L10.9653 8.03703H14.6687L22.0406 18.1099C22.3197 18.4919 22.4708 18.9524 22.4722 19.4256L22.4583 20.6577Z" fill="#FE8501"/>
<path d="M15.0585 16.2095H11.2925V15.0191H15.4692V13.5364H13.5549V12.4922H12.0722V13.5294H10.5477C10.3501 13.5294 10.1607 13.6079 10.021 13.7476C9.8813 13.8873 9.80282 14.0767 9.80282 14.2743V16.9474C9.80282 17.1449 9.8813 17.3344 10.021 17.474C10.1607 17.6137 10.3501 17.6922 10.5477 17.6922H14.3137V18.8826H10.137V20.3653H12.0652V21.4025H13.548V20.3653H15.0516C15.1494 20.3653 15.2462 20.346 15.3366 20.3086C15.427 20.2712 15.5091 20.2163 15.5783 20.1472C15.6474 20.078 15.7023 19.9959 15.7397 19.9055C15.7772 19.8151 15.7964 19.7183 15.7964 19.6205V16.9474C15.7946 16.7522 15.7163 16.5656 15.5783 16.4276C15.4403 16.2896 15.2537 16.2113 15.0585 16.2095Z" fill="#FE8501"/>
</svg>
