<svg width="31" height="31" viewBox="0 0 31 31" fill="none" xmlns="http://www.w3.org/2000/svg">
<path d="M12.8203 11.0006C12.7893 11.4584 12.7708 11.9481 12.7708 12.4795C12.7708 14.9423 13.5179 16.413 14.7697 16.413C16.3474 16.413 16.7687 14.5583 16.7687 13.4629C16.7687 13.191 16.5453 12.9712 16.269 12.9712C15.9931 12.9712 15.7692 13.191 15.7692 13.4629C15.7692 13.4825 15.7263 15.4296 14.7697 15.4296C14.1906 15.4296 13.7703 14.1886 13.7703 12.4795C13.7703 6.7471 15.8152 6.09417 15.8792 6.07544C16.143 6.01696 16.3124 5.76177 16.2589 5.4992C16.2049 5.23318 15.9431 5.06015 15.6707 5.11374C15.5708 5.13339 15.209 5.2273 14.7732 5.5941C14.7737 5.51004 14.7807 5.42545 14.8037 5.34139C14.8727 5.08769 15.0381 4.87578 15.2695 4.744C15.5008 4.61321 15.7697 4.57783 16.0276 4.64617C16.2854 4.71404 16.5013 4.87675 16.6342 5.1044C16.91 5.57347 16.7457 6.17627 16.2684 6.44766C16.0295 6.58335 15.9481 6.88429 16.086 7.11931C16.1785 7.27713 16.3464 7.36517 16.5193 7.36517C16.6042 7.36517 16.6901 7.34402 16.7686 7.29931C17.7226 6.75649 18.0504 5.55141 17.5002 4.61281C17.2329 4.15751 16.8021 3.83254 16.2864 3.69633C15.7692 3.56012 15.2315 3.63047 14.7697 3.89252C14.3069 4.15555 13.9761 4.57939 13.8382 5.08729C13.7088 5.56224 13.7697 6.05493 14.0051 6.5043C13.5763 7.1907 13.1756 8.21285 12.9527 9.73264C12.2041 8.85108 11.7713 7.72857 11.7713 6.57954C11.7713 3.86844 14.0131 1.66281 16.7686 1.66281C19.5236 1.66281 21.7659 3.86849 21.7659 6.57954C21.7659 9.29059 19.5236 11.4963 16.7686 11.4963C16.2254 11.4963 15.6922 11.4112 15.1824 11.244C14.9211 11.1585 14.6382 11.2966 14.5503 11.5543C14.4628 11.8119 14.6043 12.0902 14.8661 12.1763C15.4778 12.3774 16.1179 12.4796 16.7686 12.4796C20.0753 12.4796 22.7654 9.83249 22.7654 6.57954C22.7654 3.32613 20.0753 0.679443 16.7686 0.679443C13.4618 0.679443 10.7717 3.32613 10.7717 6.57954C10.7719 8.25606 11.537 9.88498 12.8203 11.0006Z" fill="#D98600"/>
<path d="M7.27364 19.363H11.2715C11.8542 19.363 12.8457 20.0946 13.7202 20.7397C14.8166 21.549 15.8521 22.3131 16.7686 22.3131H19.767C20.5256 22.3131 20.9029 22.6518 20.9129 22.6607C21.0104 22.7565 21.1383 22.8047 21.2662 22.8047C21.3942 22.8047 21.5216 22.7565 21.6195 22.6607C21.8144 22.4684 21.8144 22.1572 21.6195 21.9654C21.5536 21.9001 20.9394 21.3297 19.767 21.3297H16.7686C16.1854 21.3297 15.1944 20.5981 14.3199 19.953C13.2235 19.1437 12.1875 18.3796 11.2715 18.3796H7.27364C6.99781 18.3796 6.77393 18.5994 6.77393 18.8713C6.77393 19.1427 6.99781 19.363 7.27364 19.363Z" fill="#D98600"/>
<path d="M22.719 10.6707L27.7628 15.6332V17.3964H25.9707L25.7638 17.1928V15.9214C25.7638 15.6495 25.5404 15.4297 25.2641 15.4297H24.7644V14.9381C24.7644 14.6662 24.541 14.4464 24.2647 14.4464H22.9728L22.7655 14.2424V12.9714C22.7655 12.6995 22.5421 12.4797 22.2657 12.4797H20.9734L20.9249 12.432C20.73 12.2397 20.4137 12.2397 20.2183 12.432C20.023 12.6243 20.0229 12.935 20.2183 13.1272L20.4132 13.319C20.5067 13.4109 20.6336 13.463 20.7665 13.463H21.766V14.4454C21.766 14.5757 21.8184 14.7006 21.9119 14.793L22.4116 15.2852C22.5051 15.3776 22.6325 15.4298 22.7655 15.4298H23.7649V15.9214C23.7649 16.1928 23.9883 16.4131 24.2647 16.4131H24.7644V17.3965C24.7644 17.5267 24.8168 17.6516 24.9108 17.7441L25.4105 18.2357C25.504 18.3277 25.6309 18.3798 25.7638 18.3798H28.2625C28.5389 18.3798 28.7622 18.1595 28.7622 17.8881V15.4297C28.7622 15.2994 28.7092 15.1741 28.6158 15.0821L23.4256 9.97558C23.2301 9.78337 22.9143 9.78337 22.719 9.97558C22.5236 10.1677 22.5236 10.4785 22.719 10.6707Z" fill="#D98600"/>
<path d="M3.27582 26.9841C3.27582 26.5775 2.93949 26.2466 2.52621 26.2466C2.11294 26.2466 1.77661 26.5775 1.77661 26.9841C1.77661 27.3907 2.11294 27.7216 2.52621 27.7216C2.93949 27.7216 3.27582 27.3907 3.27582 26.9841Z" fill="#D98600"/>
<path d="M4.27523 16.413H1.27682C1.00098 16.413 0.7771 16.6327 0.7771 16.9046C0.7771 17.176 1.00098 17.3963 1.27682 17.3963H4.27523C4.55059 17.3963 4.77494 17.6165 4.77494 17.8879V28.7048C4.77494 28.9757 4.55059 29.1964 4.27523 29.1964H1.27682C1.00098 29.1964 0.7771 29.4162 0.7771 29.6881C0.7771 29.9595 1.00098 30.1797 1.27682 30.1797H4.27523C5.10178 30.1797 5.77443 29.5179 5.77443 28.7047V17.888C5.77443 17.0743 5.10178 16.413 4.27523 16.413Z" fill="#D98600"/>
<path d="M30.4934 21.3299C29.9422 20.3903 28.7153 20.0687 27.7938 20.5938L22.0423 23.3482C21.1478 23.7883 20.2458 23.7883 18.2679 23.7883C16.3344 23.7883 13.382 23.3079 13.3525 23.303C13.0781 23.2582 12.8228 23.4397 12.7773 23.7071C12.7323 23.9751 12.9162 24.2283 13.188 24.2731C13.3125 24.2937 16.2509 24.7716 18.2678 24.7716C20.3427 24.7716 21.3842 24.7716 22.4841 24.2303L28.2625 21.4617C28.4934 21.3304 28.7628 21.2955 29.0206 21.3633C29.2785 21.4312 29.4944 21.5939 29.6273 21.8216C29.7612 22.0492 29.7967 22.3142 29.7272 22.568C29.6588 22.8212 29.4933 23.0336 29.2475 23.1732L22.4911 27.3107C22.4771 27.3196 21.0353 28.2134 17.7681 28.2134C14.9351 28.2134 10.5584 25.8406 10.4954 25.8066C10.4504 25.7845 9.3665 25.2633 7.27364 25.2633C6.99781 25.2633 6.77393 25.4831 6.77393 25.755C6.77393 26.0264 6.99781 26.2466 7.27364 26.2466C9.09119 26.2466 10.0277 26.6764 10.0292 26.6764C10.2181 26.7796 14.6757 29.1967 17.7681 29.1967C21.3757 29.1967 22.9763 28.174 23.0293 28.1391L29.7617 24.0164C30.224 23.7539 30.5548 23.3296 30.6928 22.8222C30.8312 22.3147 30.7602 21.7846 30.4934 21.3299Z" fill="#D98600"/>
</svg>
