<svg width="26" height="26" viewBox="0 0 26 26" fill="none" xmlns="http://www.w3.org/2000/svg">
<g clip-path="url(#clip0_438_4556)">
<path d="M19.2936 15.5862C18.9825 15.588 18.6742 15.528 18.3865 15.4097C18.0988 15.2914 17.8375 15.1171 17.6176 14.897L16.4273 13.7067L15.1664 14.9754C15.0127 15.129 14.8043 15.2154 14.5869 15.2154C14.3695 15.2154 14.1611 15.129 14.0074 14.9754C13.8537 14.8217 13.7673 14.6132 13.7673 14.3958C13.7673 14.1785 13.8537 13.97 14.0074 13.8163L15.8791 11.9446C15.9537 11.8663 16.0437 11.8043 16.1434 11.7626C16.2432 11.7208 16.3505 11.7001 16.4586 11.7018C16.5667 11.7001 16.674 11.7208 16.7738 11.7626C16.8735 11.8043 16.9635 11.8663 17.0381 11.9446L18.808 13.7145C18.9174 13.8023 19.0484 13.8592 19.1873 13.8791C19.3262 13.8989 19.4679 13.8811 19.5976 13.8275C19.7273 13.7739 19.8401 13.6864 19.9244 13.5742C20.0087 13.462 20.0613 13.3293 20.0767 13.1898C20.0766 13.0934 20.0571 12.9979 20.0195 12.9091C19.9818 12.8203 19.9267 12.74 19.8574 12.6729L18.0562 10.8874C17.9754 10.814 17.9109 10.7245 17.8668 10.6247C17.8226 10.5249 17.7998 10.417 17.7998 10.3079C17.7998 10.1987 17.8226 10.0908 17.8668 9.99101C17.9109 9.89121 17.9754 9.80174 18.0562 9.72834L20.2412 7.54339C20.3158 7.46511 20.4058 7.40312 20.5055 7.36134C20.6052 7.31956 20.7125 7.29888 20.8207 7.30062C20.9288 7.29888 21.0361 7.31956 21.1358 7.36134C21.2356 7.40312 21.3256 7.46511 21.4002 7.54339L22.4339 8.57713C22.5778 8.70701 22.7648 8.7789 22.9586 8.7789C23.1525 8.7789 23.3394 8.70701 23.4833 8.57713C23.6132 8.43323 23.6851 8.24627 23.6851 8.05243C23.6851 7.85859 23.6132 7.67163 23.4833 7.52773L22.4574 6.50182C22.3767 6.42842 22.3121 6.33895 22.268 6.23915C22.2238 6.13935 22.201 6.03143 22.201 5.9223C22.201 5.81317 22.2238 5.70525 22.268 5.60545C22.3121 5.50565 22.3767 5.41618 22.4574 5.34278L23.1857 4.62229C23.419 4.38967 23.5512 4.07457 23.5538 3.74518C23.5565 3.56787 23.5208 3.39208 23.4491 3.22987C23.3775 3.06766 23.2716 2.92287 23.1388 2.80542C22.8731 2.59626 22.5381 2.49535 22.2011 2.52295C21.8641 2.55055 21.55 2.70462 21.3219 2.95422C21.2411 3.02621 21.147 3.08159 21.0449 3.1172C20.9428 3.15282 20.8346 3.16797 20.7266 3.16179C20.5085 3.14931 20.3043 3.05069 20.1589 2.88765C20.0135 2.7246 19.9389 2.51048 19.9513 2.29238C19.9638 2.07429 20.0624 1.87008 20.2255 1.72469C20.7542 1.20151 21.4608 0.89716 22.2042 0.872477C22.9476 0.847795 23.6729 1.1046 24.2351 1.59156C24.5401 1.86224 24.7832 2.19536 24.9481 2.5683C25.113 2.94125 25.1956 3.34529 25.1906 3.75301C25.1876 4.51046 24.8866 5.2363 24.3526 5.7735L24.2038 5.9223L24.658 6.37652C25.1056 6.82308 25.3575 7.42915 25.3582 8.06141C25.359 8.69367 25.1085 9.30032 24.662 9.74792C24.2154 10.1955 23.6093 10.4474 22.9771 10.4481C22.3448 10.4489 21.7381 10.1984 21.2906 9.75183L20.8285 9.32111L19.7948 10.3548L20.9773 11.5452C21.2011 11.764 21.3789 12.0253 21.5003 12.3138C21.6216 12.6023 21.6842 12.9121 21.6842 13.225C21.6842 13.538 21.6216 13.8478 21.5003 14.1363C21.3789 14.4248 21.2011 14.6861 20.9773 14.9049C20.7559 15.1245 20.493 15.2979 20.2039 15.4148C19.9149 15.5318 19.6054 15.5901 19.2936 15.5862Z" fill="#FE8501"/>
<path d="M19.2701 3.8394C19.1967 3.75865 19.1072 3.69412 19.0074 3.64997C18.9076 3.60582 18.7997 3.58301 18.6905 3.58301C18.5814 3.58301 18.4735 3.60582 18.3737 3.64997C18.2739 3.69412 18.1844 3.75865 18.111 3.8394L9.05015 12.8925C7.47718 12.3542 5.75846 12.4338 4.24197 13.1151C2.72548 13.7964 1.52452 15.0285 0.882231 16.5619C0.239942 18.0953 0.204317 19.8155 0.782567 21.3742C1.36082 22.9329 2.50974 24.2137 3.99672 24.9571C5.48371 25.7006 7.19765 25.8513 8.79156 25.3787C10.3855 24.9061 11.7402 23.8455 12.5816 22.4116C13.423 20.9777 13.688 19.2777 13.3232 17.6557C12.9583 16.0338 11.9908 14.611 10.6164 13.6756L19.2701 4.99061C19.3496 4.91728 19.413 4.82827 19.4564 4.7292C19.4998 4.63014 19.5222 4.52316 19.5222 4.41501C19.5222 4.30685 19.4998 4.19987 19.4564 4.10081C19.413 4.00174 19.3496 3.91274 19.2701 3.8394ZM11.7598 19.0557C11.7598 20.0284 11.4714 20.9793 10.931 21.7881C10.3905 22.5969 9.62244 23.2272 8.72378 23.5995C7.82511 23.9717 6.83625 24.0691 5.88223 23.8793C4.92822 23.6896 4.0519 23.2212 3.36409 22.5333C2.67628 21.8455 2.20788 20.9692 2.01811 20.0152C1.82835 19.0612 1.92574 18.0723 2.29798 17.1737C2.67022 16.275 3.30058 15.5069 4.10936 14.9665C4.91814 14.4261 5.869 14.1376 6.84171 14.1376C7.48756 14.1376 8.12709 14.2648 8.72378 14.512C9.32047 14.7592 9.86264 15.1214 10.3193 15.5781C10.776 16.0348 11.1383 16.577 11.3854 17.1737C11.6326 17.7703 11.7598 18.4099 11.7598 19.0557Z" fill="#FE8501"/>
<path d="M5.27543 21.4284C5.1034 21.4527 4.92818 21.4191 4.77734 21.3329C4.62651 21.2467 4.50863 21.1127 4.44225 20.9522C4.37588 20.7916 4.36478 20.6136 4.4107 20.446C4.45662 20.2784 4.55695 20.1309 4.69591 20.0266L5.47904 19.2435C5.55258 19.1648 5.64088 19.1014 5.73893 19.0568C5.83697 19.0123 5.94283 18.9875 6.05045 18.9839C6.15808 18.9802 6.26537 18.9978 6.3662 19.0357C6.46702 19.0735 6.55941 19.1308 6.63808 19.2043C6.71676 19.2779 6.78018 19.3662 6.82473 19.4642C6.86927 19.5623 6.89407 19.6681 6.89771 19.7757C6.90134 19.8834 6.88374 19.9907 6.84592 20.0915C6.80809 20.1923 6.75077 20.2847 6.67724 20.3634L5.8941 21.1465C5.8188 21.237 5.72407 21.3093 5.61696 21.3581C5.50984 21.4069 5.39311 21.431 5.27543 21.4284Z" fill="#FE8501"/>
</g>
<defs>
<clipPath id="clip0_438_4556">
<rect width="25.0603" height="25.0603" fill="white" transform="translate(0.286854 0.706787)"/>
</clipPath>
</defs>
</svg>
