<svg width="28" height="21" viewBox="0 0 28 21" fill="none" xmlns="http://www.w3.org/2000/svg">
<path fill-rule="evenodd" clip-rule="evenodd" d="M26.3306 16.0767L25.5236 11.397C25.4006 10.6901 24.9277 10.0399 24.1932 9.56835C23.4588 9.09676 22.5132 8.83603 21.5335 8.83499H18.5164C19.2893 7.96429 19.7818 6.97782 19.957 5.94926C19.957 4.85144 19.3574 3.79859 18.2902 3.02232C17.2229 2.24604 15.7754 1.80994 14.266 1.80994C12.7567 1.80994 11.3092 2.24604 10.2419 3.02232C9.17463 3.79859 8.57504 4.85144 8.57504 5.94926C8.75028 6.97782 9.24276 7.96429 10.0157 8.83499H7.0665C6.08679 8.83603 5.14119 9.09676 4.40673 9.56835C3.67227 10.0399 3.19931 10.6901 3.07639 11.397L2.26932 16.0767C2.19757 16.4886 2.24721 16.9068 2.41495 17.3037C2.58268 17.7005 2.86466 18.0667 3.24212 18.3781C3.61959 18.6895 4.08389 18.9389 4.60414 19.1097C5.12439 19.2804 5.68866 19.3686 6.25942 19.3685H22.3405C22.9113 19.3686 23.4756 19.2804 23.9958 19.1097C24.5161 18.9389 24.9804 18.6895 25.3578 18.3781C25.7353 18.0667 26.0173 17.7005 26.185 17.3037C26.3527 16.9068 26.4024 16.4886 26.3306 16.0767ZM14.2623 2.98124C15.3439 2.98269 16.3807 3.29585 17.1455 3.85215C17.9103 4.40845 18.3409 5.16254 18.3429 5.94926C18.3429 7.0465 16.0801 9.65243 14.2623 11.3861C12.4746 9.65243 10.1816 7.06295 10.1816 5.94926C10.1836 5.16537 10.6111 4.41376 11.371 3.85793C12.131 3.3021 13.1619 2.98702 14.2396 2.98124H14.2623ZM24.1508 17.6019C23.9241 17.7884 23.6454 17.9376 23.3333 18.0398C23.0212 18.1419 22.6828 18.1946 22.3405 18.1944H6.25942C5.91666 18.1948 5.57771 18.1421 5.26513 18.0398C4.95255 17.9375 4.67352 17.7879 4.44659 17.6011C4.21967 17.4142 4.05006 17.1944 3.94906 16.9561C3.84807 16.7179 3.81799 16.4667 3.86083 16.2194L4.66791 11.5397C4.74302 11.1154 5.02787 10.7256 5.46925 10.4429C5.91064 10.1602 6.47839 10.004 7.0665 10.0035H10.9585C11.5469 10.6674 12.1352 11.2818 12.6179 11.7591H7.85848V12.9277H20.7339V11.7591H15.8613C16.3441 11.2818 16.9399 10.6619 17.5207 10.0035H21.5335C22.122 10.0029 22.6906 10.1586 23.1324 10.4415C23.5741 10.7244 23.8585 11.1149 23.9321 11.5397L24.7391 16.2194C24.7818 16.467 24.7514 16.7184 24.6499 16.9568C24.5485 17.1952 24.3783 17.4151 24.1508 17.6019Z" fill="white"/>
<path d="M7.8584 14.6887H20.7866V15.8573H7.8584V14.6887Z" fill="white"/>
<path d="M14.3 6.4979C14.7457 6.4979 15.1071 6.23508 15.1071 5.91087C15.1071 5.58667 14.7457 5.32385 14.3 5.32385C13.8543 5.32385 13.4929 5.58667 13.4929 5.91087C13.4929 6.23508 13.8543 6.4979 14.3 6.4979Z" fill="white"/>
</svg>
