<svg width="26" height="26" viewBox="0 0 26 26" fill="none" xmlns="http://www.w3.org/2000/svg">
<g clip-path="url(#clip0_2257_12326)">
<path d="M13.3953 3.34888C12.1516 3.34888 10.9358 3.71768 9.90168 4.40866C8.86756 5.09963 8.06156 6.08174 7.58561 7.23079C7.10966 8.37984 6.98513 9.64423 7.22777 10.864C7.4704 12.0839 8.06931 13.2044 8.94876 14.0838C9.8282 14.9632 10.9487 15.5622 12.1685 15.8048C13.3883 16.0474 14.6527 15.9229 15.8018 15.4469C16.9508 14.971 17.9329 14.165 18.6239 13.1309C19.3149 12.0968 19.6837 10.881 19.6837 9.63725C19.6815 7.97014 19.0183 6.37194 17.8394 5.19311C16.6606 4.01429 15.0624 3.35106 13.3953 3.34888V3.34888ZM13.3953 15.1396C12.3071 15.1396 11.2432 14.8169 10.3384 14.2123C9.43353 13.6077 8.72828 12.7483 8.31182 11.7429C7.89536 10.7375 7.7864 9.63115 7.99871 8.5638C8.21102 7.49645 8.73506 6.51603 9.50458 5.74652C10.2741 4.977 11.2545 4.45296 12.3219 4.24065C13.3892 4.02834 14.4955 4.13731 15.501 4.55376C16.5064 4.97022 17.3657 5.67547 17.9703 6.58032C18.5749 7.48517 18.8976 8.54899 18.8976 9.63725C18.8961 11.0961 18.3159 12.4947 17.2843 13.5263C16.2528 14.5578 14.8541 15.138 13.3953 15.1396Z" fill="#FE8501"/>
<path d="M16.0597 19.9737C18.5397 17.1951 22.0416 12.7225 22.0416 9.63723C22.0416 7.34404 21.1306 5.14476 19.5091 3.52323C17.8875 1.90169 15.6882 0.990723 13.395 0.990723C11.1018 0.990723 8.90258 1.90169 7.28104 3.52323C5.6595 5.14476 4.74854 7.34404 4.74854 9.63723C4.74854 12.7225 8.25037 17.1951 10.7303 19.9737C8.88707 20.1427 5.14156 20.6773 5.14156 22.214C5.14156 23.8332 9.42158 24.5721 13.395 24.5721C17.3685 24.5721 21.6485 23.8332 21.6485 22.214C21.6485 20.6773 17.903 20.1427 16.0597 19.9737ZM5.53458 9.63723C5.53458 7.55251 6.36274 5.55317 7.83686 4.07905C9.31098 2.60492 11.3103 1.77677 13.395 1.77677C15.4798 1.77677 17.4791 2.60492 18.9532 4.07905C20.4274 5.55317 21.2555 7.55251 21.2555 9.63723C21.2555 13.5203 14.8139 20.2292 13.395 21.6598C11.9762 20.2292 5.53458 13.5203 5.53458 9.63723ZM13.395 23.7861C8.56479 23.7861 5.92761 22.7485 5.92761 22.214C5.92761 21.821 7.58616 20.9602 11.3946 20.7087C12.3378 21.7306 13.0256 22.4026 13.1199 22.497C13.1941 22.5676 13.2926 22.607 13.395 22.607C13.4975 22.607 13.596 22.5676 13.6702 22.497C13.7645 22.4026 14.4523 21.7306 15.3955 20.7087C19.2039 20.9602 20.8625 21.821 20.8625 22.214C20.8625 22.7485 18.2253 23.7861 13.395 23.7861Z" fill="#FE8501"/>
<path d="M16.9205 7.97064L16.5275 6.39855C16.5064 6.31334 16.4575 6.23764 16.3884 6.1835C16.3193 6.12937 16.2341 6.09992 16.1463 6.09985H10.644C10.5562 6.09992 10.471 6.12937 10.4019 6.1835C10.3328 6.23764 10.2838 6.31334 10.2627 6.39855L9.8697 7.97064C9.86335 8.00174 9.85941 8.03327 9.85791 8.06497V12.7812C9.85791 12.8855 9.89932 12.9855 9.97302 13.0592C10.0467 13.1329 10.1467 13.1743 10.2509 13.1743H16.5393C16.6435 13.1743 16.7435 13.1329 16.8172 13.0592C16.8909 12.9855 16.9323 12.8855 16.9323 12.7812V8.06497C16.9308 8.03327 16.9269 8.00174 16.9205 7.97064V7.97064ZM14.5742 6.8859H15.8397L16.0362 7.67195H14.5742V6.8859ZM13.0021 6.8859H13.7881V7.67195H13.0021V6.8859ZM13.0021 8.45799H13.7881V9.24404H13.0021V8.45799ZM10.9505 6.8859H12.216V7.67195H10.754L10.9505 6.8859ZM16.1463 12.3882H10.644V8.45799H12.216V9.63706C12.216 9.7413 12.2575 9.84127 12.3312 9.91497C12.4049 9.98868 12.5048 10.0301 12.6091 10.0301H14.1812C14.2854 10.0301 14.3854 9.98868 14.4591 9.91497C14.5328 9.84127 14.5742 9.7413 14.5742 9.63706V8.45799H16.1463V12.3882Z" fill="#FE8501"/>
<path d="M14.1811 11.2092C14.0769 11.2092 13.9769 11.2506 13.9032 11.3243C13.8295 11.398 13.7881 11.498 13.7881 11.6023C13.7881 11.7065 13.8295 11.8065 13.9032 11.8802C13.9769 11.9539 14.0769 11.9953 14.1811 11.9953H15.3602C15.4644 11.9953 15.5644 11.9539 15.6381 11.8802C15.7118 11.8065 15.7532 11.7065 15.7532 11.6023C15.7532 11.498 15.7118 11.398 15.6381 11.3243C15.5644 11.2506 15.4644 11.2092 15.3602 11.2092H14.1811Z" fill="#FE8501"/>
</g>
<defs>
<clipPath id="clip0_2257_12326">
<rect width="25.1535" height="25.1535" fill="white" transform="translate(0.818359 0.20459)"/>
</clipPath>
</defs>
</svg>
