<svg width="30" height="30" viewBox="0 0 30 30" fill="none" xmlns="http://www.w3.org/2000/svg">
<path d="M14.7505 18.8992C13.1833 18.8992 12.6301 18.5304 12.1231 18.1616C12.0309 18.0695 11.9387 18.0234 11.8004 17.9312C10.9707 17.6546 9.44954 16.4561 8.8964 13.6443C8.25106 13.4138 7.37524 12.7224 7.37524 11.0629C7.37524 9.77226 7.97449 9.3574 8.02058 9.31131C8.25106 9.17302 8.52763 9.21912 8.66592 9.44959C8.80421 9.68007 8.75811 9.95664 8.52763 10.0949C8.29715 10.2332 8.25106 10.3254 8.25106 11.109C8.25106 12.6763 9.21907 12.8607 9.31126 12.8607C9.49564 12.9068 9.68002 13.045 9.72612 13.2294C10.141 15.9491 11.5699 16.9632 12.077 17.1015C12.1231 17.1015 12.1692 17.1475 12.1692 17.1475C12.3075 17.2397 12.4458 17.3319 12.584 17.4241C13.045 17.7468 13.4138 18.0234 14.7044 18.0234C15.9951 18.0234 16.3639 17.7468 16.8248 17.4241C16.9631 17.3319 17.1014 17.2397 17.2397 17.1475C17.2858 17.1475 17.2858 17.1015 17.3319 17.1015C17.8389 16.9632 19.2679 15.9491 19.6828 13.2294C19.7288 12.9989 19.8671 12.8607 20.0976 12.8607C20.1898 12.8607 21.1578 12.6763 21.1578 11.109C21.1578 10.3254 20.8812 10.0949 20.8812 10.0949C20.6508 9.95664 20.6047 9.68007 20.789 9.44959C20.9273 9.21912 21.25 9.17302 21.4344 9.3574C21.4805 9.4035 22.0797 9.86445 22.0797 11.109C22.0797 12.7685 21.2039 13.4599 20.5586 13.6904C20.0515 16.5022 18.4843 17.7007 17.6545 17.9773C17.5163 18.0695 17.4241 18.1156 17.3319 18.2077C16.8709 18.5304 16.3178 18.8992 14.7505 18.8992V18.8992Z" fill="#FE8501"/>
<path d="M21.2039 10.1411C21.1117 10.1411 21.0195 10.141 20.9734 10.0489C19.4983 9.12695 19.4983 7.83627 19.4522 6.72998C19.4061 5.76197 19.4061 4.84006 18.5764 4.01034C18.0694 3.50329 16.7787 3.22672 14.7505 3.22672C12.7223 3.22672 11.4316 3.50329 10.9246 4.01034C10.0948 4.84006 10.0948 5.76197 10.0487 6.72998C10.0027 7.88237 10.0027 9.17304 8.52759 10.0489C8.29712 10.1871 8.02054 10.095 7.88226 9.91057C7.74397 9.68009 7.83616 9.40352 8.02054 9.26524C9.03464 8.6199 9.08074 7.79018 9.12684 6.68389C9.17293 5.62369 9.17293 4.4252 10.2792 3.31891C11.0168 2.62748 12.3996 2.30481 14.7505 2.30481C17.1014 2.30481 18.4842 2.62748 19.2218 3.36501C20.282 4.4252 20.3281 5.66978 20.3741 6.72998C20.4202 7.79018 20.4202 8.66599 21.4804 9.31133C21.7109 9.44962 21.757 9.72619 21.6187 9.95667C21.5265 10.0489 21.3422 10.1411 21.2039 10.1411Z" fill="#FE8501"/>
<path d="M18.4843 19.5906C18.2539 19.5906 18.0695 19.4523 18.0234 19.2218C17.9773 19.0375 17.9773 18.8992 17.9773 18.7148V16.9632C17.9773 16.6866 18.1617 16.5022 18.4383 16.5022C18.7148 16.5022 18.8992 16.6866 18.8992 16.9632V18.7148C18.8992 18.807 18.8992 18.8992 18.9453 19.0375C18.9914 19.2679 18.8531 19.5445 18.6226 19.5906C18.5765 19.5906 18.5304 19.5906 18.4843 19.5906V19.5906Z" fill="#FE8501"/>
<path d="M11.109 19.5906C11.0629 19.5906 11.0168 19.5906 11.0168 19.5906C10.7864 19.5445 10.602 19.268 10.6942 19.0375C10.7403 18.9453 10.7403 18.807 10.7403 18.7148V17.0093C10.7403 16.7327 10.9246 16.5483 11.2012 16.5483C11.4778 16.5483 11.6622 16.7327 11.6622 17.0093V18.7148C11.6622 18.8992 11.6622 19.0836 11.6161 19.2219C11.4778 19.4524 11.2934 19.5906 11.109 19.5906V19.5906Z" fill="#FE8501"/>
<path d="M28.5792 29.0402C28.3026 29.0402 28.1182 28.8558 28.1182 28.5792C28.1182 26.3205 26.7353 25.122 24.0618 23.6009C22.9555 23.0016 21.3882 22.1258 21.25 22.0797C21.2039 22.0336 21.1578 22.0336 21.1117 21.9875C21.0195 21.8954 20.9734 21.8032 20.9734 21.6649C20.9734 21.5266 21.0195 21.3883 21.1117 21.3422C21.1578 21.25 21.25 21.2039 21.3422 21.25C21.4804 21.25 21.6187 21.2961 21.7109 21.3422C22.1258 21.5266 22.9555 21.9875 24.4766 22.8173C27.4268 24.4767 29.0401 25.8596 29.0401 28.5792C29.0401 28.8558 28.8557 29.0402 28.5792 29.0402Z" fill="#FE8501"/>
<path d="M0.921893 29.0402C0.64532 29.0402 0.460938 28.8558 0.460938 28.5792C0.460938 25.8596 2.07428 24.4767 4.9783 22.8173C6.49945 21.9415 7.28308 21.5266 7.74403 21.3422C7.83622 21.25 7.97451 21.2039 8.1128 21.25C8.25108 21.25 8.29718 21.2961 8.34327 21.3422C8.43546 21.4344 8.48156 21.5266 8.48156 21.6649C8.48156 21.8032 8.43546 21.8954 8.34327 21.9875C8.29718 22.0336 8.25108 22.0797 8.20499 22.0797C8.0667 22.1258 6.49945 23.0016 5.39316 23.6009C2.76571 25.122 1.38285 26.3205 1.38285 28.5792C1.38285 28.8558 1.19847 29.0402 0.921893 29.0402V29.0402Z" fill="#FE8501"/>
<path d="M21.3422 10.2793C21.2961 10.2793 21.25 10.2793 21.1578 10.2332C20.9273 10.141 20.789 9.86443 20.8812 9.63395C21.2039 8.85032 21.2039 7.83622 21.2039 6.96041C21.2039 3.22667 19.0835 1.38285 14.7505 1.38285C10.4175 1.38285 8.29715 3.22667 8.29715 7.0065C8.29715 7.88232 8.29716 8.85032 8.61982 9.68004C8.71201 9.91052 8.57373 10.1871 8.34325 10.2793C8.11277 10.3715 7.8362 10.2332 7.74401 10.0027C7.37524 9.03471 7.37524 7.88232 7.37524 7.0065C7.37524 2.67352 9.8644 0.460938 14.7505 0.460938C19.6367 0.460938 22.1258 2.67352 22.1258 7.0065C22.1258 7.88232 22.1258 9.03471 21.7571 10.0027C21.711 10.141 21.5266 10.2793 21.3422 10.2793V10.2793Z" fill="#FE8501"/>
<path d="M14.7507 25.3525C14.5663 25.3525 14.428 25.2603 14.3358 25.122C13.8288 24.2462 13.0912 23.3704 12.3537 22.5867C11.1552 21.2039 10.1411 20.0515 10.6021 18.9452C10.6943 18.7147 10.9708 18.5764 11.2013 18.7147C11.4318 18.8069 11.5701 19.0835 11.4318 19.314C11.2013 19.8671 12.1232 20.9273 13.0451 21.9414C13.5983 22.5867 14.2436 23.2782 14.7507 24.0157C15.2577 23.2782 15.857 22.5867 16.4562 21.9414C17.3781 20.9273 18.3 19.8671 18.0696 19.314C17.9774 19.0835 18.0696 18.8069 18.3 18.7147C18.5305 18.6225 18.8071 18.7147 18.8993 18.9452C19.3602 20.0515 18.3 21.2039 17.1015 22.5406C16.364 23.3704 15.6265 24.2001 15.1194 25.0759C15.0733 25.2603 14.9351 25.3525 14.7507 25.3525V25.3525Z" fill="#FE8501"/>
<path d="M19.821 24.4307C19.775 24.4307 19.775 24.4307 19.821 24.4307C19.6367 24.4307 19.4984 24.3385 19.4523 24.2463C18.8069 23.2783 18.1155 22.679 17.5624 22.6329C17.2858 22.6329 17.0553 22.7251 16.7787 23.0017C16.5944 23.1861 16.3178 23.1861 16.1334 23.0017C15.949 22.8173 15.949 22.5407 16.1334 22.3564C16.6866 21.7571 17.2858 21.6649 17.6546 21.711C18.5304 21.8032 19.314 22.4947 19.9132 23.2783C20.4203 22.7251 20.8812 22.1259 21.0195 21.8493C20.4203 21.204 19.1757 19.9594 18.3921 19.5906C18.1616 19.4984 18.0694 19.2219 18.1616 18.9914C18.2538 18.7609 18.5304 18.6687 18.7608 18.7609C20.0054 19.3141 21.8032 21.3423 21.8953 21.4345C21.9875 21.5266 22.0336 21.6188 22.0336 21.7571C22.0336 22.4486 20.9273 23.6931 20.2359 24.3846C20.0515 24.3846 19.9132 24.4307 19.821 24.4307V24.4307Z" fill="#FE8501"/>
<path d="M9.67996 24.4306C9.54168 24.4306 9.44949 24.3845 9.3573 24.2923C8.71196 23.6009 7.55957 22.3563 7.55957 21.6648C7.55957 21.5726 7.60567 21.4344 7.69786 21.3422C7.79005 21.25 9.54168 19.2679 10.8324 18.6686C11.0628 18.5764 11.3394 18.6686 11.4316 18.8991C11.5238 19.1296 11.4316 19.4062 11.2011 19.4983C10.3714 19.8671 9.12682 21.1117 8.57367 21.757C8.71196 22.0336 9.12682 22.6328 9.67996 23.186C10.2792 22.4485 11.0628 21.7109 11.9386 21.6187C12.3074 21.5726 12.9067 21.6648 13.4598 22.2641C13.6442 22.4485 13.6442 22.725 13.4598 22.9094C13.2754 23.0938 12.9988 23.0938 12.8145 22.9094C12.584 22.6328 12.3074 22.5407 12.0308 22.5407C11.4777 22.5867 10.7863 23.186 10.1409 24.154C10.0026 24.3384 9.86435 24.4306 9.67996 24.4306C9.72606 24.4306 9.72606 24.4306 9.67996 24.4306V24.4306Z" fill="#FE8501"/>
<path d="M14.7505 29.0401C14.6583 29.0401 14.52 28.994 14.4739 28.948C12.6301 27.3807 11.0629 25.5369 9.95658 23.4165C9.81829 23.186 9.91048 22.9094 10.141 22.7712C10.3714 22.6329 10.648 22.7251 10.7863 22.9555C11.8004 24.8915 13.1833 26.551 14.7966 27.9799C16.456 26.551 17.7928 24.8915 18.8069 22.9555C18.9452 22.7251 19.2218 22.6329 19.4523 22.7712C19.6827 22.9094 19.7749 23.186 19.6366 23.4165C18.4842 25.5369 16.9631 27.4268 15.1193 28.948C14.981 28.994 14.8427 29.0401 14.7505 29.0401V29.0401Z" fill="#FE8501"/>
</svg>
