<svg width="30" height="30" viewBox="0 0 30 30" fill="none" xmlns="http://www.w3.org/2000/svg">
<path d="M28.7929 23.864H10.5767C10.3681 21.338 8.34805 19.3179 5.82195 19.1092V0.893101C5.82195 0.400628 5.42132 0 4.92885 0H1.07792C0.585442 0 0.184814 0.400628 0.184814 0.893101V5.29499C0.184814 5.53371 0.3783 5.72714 0.61696 5.72714C0.85562 5.72714 1.04911 5.53371 1.04911 5.29499V0.893101C1.04911 0.877256 1.06201 0.864291 1.07792 0.864291H4.92885C4.94475 0.864291 4.95766 0.877256 4.95766 0.893101V1.90916H3.48065C3.24199 1.90916 3.0485 2.10259 3.0485 2.34131C3.0485 2.58002 3.24199 2.77345 3.48065 2.77345H4.9576V3.81821H4.45009C4.21143 3.81821 4.01795 4.01164 4.01795 4.25035C4.01795 4.48907 4.21143 4.6825 4.45009 4.6825H4.9576V5.72726H3.48065C3.24199 5.72726 3.0485 5.92068 3.0485 6.1594C3.0485 6.39812 3.24199 6.59155 3.48065 6.59155H4.9576V7.6363H4.45009C4.21143 7.6363 4.01795 7.82973 4.01795 8.06845C4.01795 8.30716 4.21143 8.50059 4.45009 8.50059H4.9576V9.54529H3.48065C3.24199 9.54529 3.0485 9.73872 3.0485 9.97744C3.0485 10.2162 3.24199 10.4096 3.48065 10.4096H4.9576V11.4543H4.45009C4.21143 11.4543 4.01795 11.6478 4.01795 11.8865C4.01795 12.1252 4.21143 12.3186 4.45009 12.3186H4.9576V13.3637H3.48065C3.24199 13.3637 3.0485 13.5572 3.0485 13.7959C3.0485 14.0346 3.24199 14.228 3.48065 14.228H4.9576V15.2727H4.45009C4.21143 15.2727 4.01795 15.4661 4.01795 15.7049C4.01795 15.9436 4.21143 16.137 4.45009 16.137H4.9576V17.1821H3.48065C3.24199 17.1821 3.0485 17.3755 3.0485 17.6142C3.0485 17.8529 3.24199 18.0463 3.48065 18.0463H4.9576V19.0913H1.04911V7.02352C1.04911 6.7848 0.85562 6.59137 0.61696 6.59137C0.3783 6.59137 0.184814 6.7848 0.184814 7.02352V28.1144C0.184814 28.879 0.806931 29.5011 1.57154 29.5011H10.1626H28.7929C29.2853 29.5011 29.686 29.1005 29.686 28.608V24.7571C29.686 24.2646 29.2853 23.864 28.7929 23.864V23.864ZM1.04911 28.1144V19.9554H5.38981C7.78326 19.9554 9.73045 21.9026 9.73045 24.2961V24.2961V28.6368H1.57154C1.2835 28.6368 1.04911 28.4025 1.04911 28.1144V28.1144ZM28.8217 28.608C28.8217 28.6238 28.8088 28.6368 28.7929 28.6368H10.5947V24.7283H11.6396V26.2053C11.6396 26.444 11.8331 26.6374 12.0718 26.6374C12.3104 26.6374 12.5039 26.444 12.5039 26.2053V24.7283H13.5487V25.2358C13.5487 25.4745 13.7421 25.668 13.9808 25.668C14.2195 25.668 14.4129 25.4745 14.4129 25.2358V24.7283H15.4576V26.2053C15.4576 26.444 15.6511 26.6374 15.8898 26.6374C16.1285 26.6374 16.3219 26.444 16.3219 26.2053V24.7283H17.3667V25.2358C17.3667 25.4745 17.5602 25.668 17.7988 25.668C18.0375 25.668 18.231 25.4745 18.231 25.2358V24.7283H19.2757V26.2053C19.2757 26.444 19.4692 26.6374 19.7078 26.6374C19.9465 26.6374 20.14 26.444 20.14 26.2053V24.7283H21.1847V25.2358C21.1847 25.4745 21.3782 25.668 21.6169 25.668C21.8555 25.668 22.049 25.4745 22.049 25.2358V24.7283H23.0941V26.2053C23.0941 26.444 23.2876 26.6374 23.5263 26.6374C23.7649 26.6374 23.9584 26.444 23.9584 26.2053V24.7283H25.0031V25.2358C25.0031 25.4745 25.1965 25.668 25.4352 25.668C25.6739 25.668 25.8673 25.4745 25.8673 25.2358V24.7283H26.9124V26.2053C26.9124 26.444 27.1059 26.6374 27.3445 26.6374C27.5832 26.6374 27.7767 26.444 27.7767 26.2053V24.7283H28.7929C28.8088 24.7283 28.8217 24.7413 28.8217 24.7571V28.608Z" fill="#D98600"/>
<path d="M5.38984 22.9094C4.62518 22.9094 4.00317 23.5315 4.00317 24.2961C4.00317 25.0608 4.62523 25.6828 5.38984 25.6828C6.15445 25.6828 6.77651 25.0607 6.77651 24.2961C6.77651 23.5315 6.15445 22.9094 5.38984 22.9094ZM5.38984 24.8185C5.1018 24.8185 4.86747 24.5841 4.86747 24.2961C4.86747 24.0081 5.1018 23.7737 5.38984 23.7737C5.67788 23.7737 5.91222 24.0081 5.91222 24.2961C5.91222 24.5841 5.67788 24.8185 5.38984 24.8185Z" fill="#D98600"/>
<path d="M5.38982 21.0004C3.57251 21.0004 2.09399 22.4788 2.09399 24.2961C2.09399 26.1135 3.57251 27.592 5.38982 27.592C7.20714 27.592 8.68566 26.1135 8.68566 24.2961C8.6856 22.4788 7.20714 21.0004 5.38982 21.0004V21.0004ZM5.38982 26.7277C4.04908 26.7277 2.95829 25.6369 2.95829 24.2961C2.95829 22.9554 4.04908 21.8647 5.38982 21.8647C6.73057 21.8647 7.82136 22.9554 7.82136 24.2961C7.82131 25.6369 6.73057 26.7277 5.38982 26.7277V26.7277Z" fill="#D98600"/>
<path d="M12.5651 8.27441C12.6672 8.27441 12.7697 8.23846 12.8521 8.16522L14.0878 7.06682C14.2662 6.90826 14.2823 6.63514 14.1237 6.45675C13.9652 6.27836 13.692 6.26217 13.5137 6.42085L12.2778 7.51931C12.0994 7.67788 12.0834 7.95099 12.242 8.12938C12.3273 8.22544 12.4459 8.27441 12.5651 8.27441V8.27441Z" fill="#D98600"/>
<path d="M15.2548 5.88367C15.3569 5.88367 15.4594 5.84771 15.5418 5.77453L16.7775 4.67608C16.9559 4.51751 16.972 4.24439 16.8134 4.066C16.6548 3.88761 16.3816 3.87142 16.2033 4.03011L14.9675 5.12851C14.7892 5.28707 14.7731 5.56019 14.9316 5.73858C15.017 5.83469 15.1356 5.88367 15.2548 5.88367Z" fill="#D98600"/>
<path d="M10.1626 10.41H11.1768C11.4155 10.41 11.609 10.2165 11.609 9.97782C11.609 9.77177 11.4648 9.59937 11.2717 9.55616C11.3873 9.39557 11.3805 9.17091 11.2436 9.01695C11.0851 8.83856 10.8119 8.82232 10.6335 8.98106L9.87551 9.65486C9.74143 9.77402 9.69493 9.9637 9.75871 10.1314C9.82238 10.2991 9.98314 10.41 10.1626 10.41V10.41Z" fill="#D98600"/>
<path d="M15.802 9.9778C15.802 9.73908 15.6085 9.54565 15.3698 9.54565H13.4795C13.2408 9.54565 13.0474 9.73908 13.0474 9.9778C13.0474 10.2165 13.2408 10.4099 13.4795 10.4099H15.3698C15.6085 10.4099 15.802 10.2165 15.802 9.9778Z" fill="#D98600"/>
<path d="M17.5007 20.9101H18.3215V21.9549H17.799C17.5604 21.9549 17.3669 22.1483 17.3669 22.387C17.3669 22.6258 17.5604 22.8192 17.799 22.8192H19.7081C19.9468 22.8192 20.1403 22.6258 20.1403 22.387C20.1403 22.1483 19.9468 21.9549 19.7081 21.9549H19.1857V20.9101H21.2302C21.4689 20.9101 21.6624 20.7167 21.6624 20.4779C21.6624 20.2392 21.4689 20.0458 21.2302 20.0458H19.1857V10.4099H25.0034V20.0458H22.9589C22.7202 20.0458 22.5267 20.2392 22.5267 20.4779C22.5267 20.7167 22.7202 20.9101 22.9589 20.9101H25.4355C25.6742 20.9101 25.8677 20.7167 25.8677 20.4779V10.4099H27.3446C27.524 10.4099 27.6848 10.2991 27.7485 10.1313C27.8123 9.96367 27.7658 9.77398 27.6317 9.65477L19.1858 2.14719V0.864291H19.7081C19.9468 0.864291 20.1403 0.670863 20.1403 0.432146C20.1403 0.193428 19.9468 0 19.7081 0H17.799C17.5604 0 17.3669 0.193428 17.3669 0.432146C17.3669 0.670863 17.5604 0.864291 17.799 0.864291H18.3215V2.14713L17.7085 2.69204C17.5301 2.85061 17.514 3.12372 17.6726 3.30211C17.758 3.39822 17.8766 3.44714 17.9958 3.44714C18.0979 3.44714 18.2004 3.41113 18.2827 3.33795L18.3215 3.30344V9.54552H17.7394C17.5007 9.54552 17.3073 9.73895 17.3073 9.97767C17.3073 10.2164 17.5007 10.4098 17.7394 10.4098H18.3215V20.0458H17.5007C17.2621 20.0458 17.0686 20.2392 17.0686 20.4779C17.0686 20.7167 17.2621 20.9101 17.5007 20.9101ZM26.208 9.54564H19.1858V3.30361L26.208 9.54564Z" fill="#D98600"/>
<path d="M14.8206 20.9102H16.0481C16.2868 20.9102 16.4802 20.7168 16.4802 20.478C16.4802 20.2393 16.2868 20.0459 16.0481 20.0459H14.8206C14.5819 20.0459 14.3884 20.2393 14.3884 20.478C14.3884 20.7168 14.5819 20.9102 14.8206 20.9102Z" fill="#D98600"/>
<path d="M12.0718 20.9101H13.3247C13.5633 20.9101 13.7568 20.7167 13.7568 20.478C13.7568 20.2393 13.5633 20.0458 13.3247 20.0458H12.5039V19.2251C12.5039 18.9864 12.3105 18.793 12.0718 18.793C11.8331 18.793 11.6396 18.9864 11.6396 19.2251V20.478C11.6396 20.7167 11.8331 20.9101 12.0718 20.9101Z" fill="#D98600"/>
<path d="M12.0718 17.3745C12.3105 17.3745 12.5039 17.1811 12.5039 16.9424V15.0133C12.5039 14.7746 12.3105 14.5812 12.0718 14.5812C11.8331 14.5812 11.6396 14.7746 11.6396 15.0133V16.9424C11.6396 17.1811 11.8331 17.3745 12.0718 17.3745Z" fill="#D98600"/>
<path d="M12.0718 13.0946C12.3105 13.0946 12.5039 12.9012 12.5039 12.6624V11.4096C12.5039 11.1708 12.3105 10.9774 12.0718 10.9774C11.8331 10.9774 11.6396 11.1708 11.6396 11.4096V12.6624C11.6396 12.9011 11.8331 13.0946 12.0718 13.0946Z" fill="black"/>
</svg>
