<svg width="26" height="26" viewBox="0 0 26 26" fill="none" xmlns="http://www.w3.org/2000/svg">
<path d="M6.43241 14.4582H1.82094C1.37635 14.4577 0.950118 14.2809 0.635747 13.9665C0.321375 13.6522 0.144542 13.2259 0.144043 12.7813V1.88149C0.144542 1.4369 0.321375 1.01067 0.635747 0.696294C0.950118 0.381922 1.37635 0.205089 1.82094 0.20459H12.7208C13.1654 0.205089 13.5916 0.381922 13.906 0.696294C14.2204 1.01067 14.3972 1.4369 14.3977 1.88149V9.00831H13.5592V1.88149C13.559 1.6592 13.4705 1.44609 13.3134 1.28891C13.1562 1.13172 12.9431 1.0433 12.7208 1.04304H1.82094C1.59865 1.0433 1.38554 1.13172 1.22836 1.28891C1.07118 1.44609 0.982756 1.6592 0.982492 1.88149V12.7813C0.982756 13.0036 1.07118 13.2167 1.22836 13.3739C1.38554 13.5311 1.59865 13.6195 1.82094 13.6198H6.43241V14.4582Z" fill="#FE8501"/>
<path d="M5.59424 12.7812H3.07889C2.96771 12.7812 2.86108 12.737 2.78246 12.6584C2.70384 12.5798 2.65967 12.4732 2.65967 12.362V2.30057C2.65967 2.18939 2.70384 2.08276 2.78246 2.00414C2.86108 1.92552 2.96771 1.88135 3.07889 1.88135H8.10959C9.11026 1.88135 10.0699 2.27886 10.7775 2.98644C11.4851 3.69402 11.8826 4.6537 11.8826 5.65437C11.8826 6.65504 11.4851 7.61472 10.7775 8.3223C10.0699 9.02988 9.11026 9.42739 8.10959 9.42739H6.01347V12.362C6.01347 12.4732 5.9693 12.5798 5.89068 12.6584C5.81206 12.737 5.70543 12.7812 5.59424 12.7812ZM3.49812 11.9427H5.17502V9.00817C5.17502 8.89698 5.21918 8.79035 5.2978 8.71173C5.37642 8.63311 5.48306 8.58894 5.59424 8.58894H8.10959C8.88789 8.58894 9.63431 8.27977 10.1846 7.72943C10.735 7.17909 11.0442 6.43267 11.0442 5.65437C11.0442 4.87607 10.735 4.12965 10.1846 3.57931C9.63431 3.02897 8.88789 2.7198 8.10959 2.7198H3.49812V11.9427ZM8.10959 6.91205H5.59424C5.48306 6.91205 5.37642 6.86788 5.2978 6.78926C5.21918 6.71064 5.17502 6.60401 5.17502 6.49282V4.81592C5.17502 4.70474 5.21918 4.5981 5.2978 4.51948C5.37642 4.44086 5.48306 4.3967 5.59424 4.3967H8.10959C8.44314 4.3967 8.76304 4.5292 8.9989 4.76506C9.23476 5.00092 9.36726 5.32081 9.36726 5.65437C9.36726 5.98793 9.23476 6.30782 8.9989 6.54368C8.76304 6.77954 8.44314 6.91205 8.10959 6.91205ZM6.01347 6.0736H8.10959C8.22077 6.0736 8.32741 6.02943 8.40603 5.95081C8.48465 5.87219 8.52881 5.76556 8.52881 5.65437C8.52881 5.54319 8.48465 5.43655 8.40603 5.35793C8.32741 5.27931 8.22077 5.23515 8.10959 5.23515H6.01347V6.0736Z" fill="#FE8501"/>
<path d="M24.7556 16.6771C24.4232 16.343 23.9752 16.1494 23.5041 16.1364L21.7897 10.9932C21.6786 10.6592 21.4651 10.3686 21.1795 10.1628C20.894 9.95699 20.5508 9.84638 20.1988 9.84668H10.2736C9.92161 9.84638 9.57844 9.95699 9.29286 10.1628C9.00728 10.3686 8.79379 10.6592 8.68272 10.9932L6.9683 16.1364C6.48764 16.1511 6.03158 16.3523 5.69678 16.6975C5.36198 17.0427 5.17476 17.5047 5.1748 17.9856V21.1658C5.1753 21.6103 5.35214 22.0366 5.66651 22.3509C5.98088 22.6653 6.40712 22.8421 6.8517 22.8426H9.78628V24.5195H7.27093V23.6811H6.43248V24.5195C6.43274 24.7418 6.52116 24.9549 6.67835 25.1121C6.83553 25.2693 7.04864 25.3577 7.27093 25.358H9.78628C10.0086 25.3577 10.2217 25.2693 10.3789 25.1121C10.536 24.9549 10.6245 24.7418 10.6247 24.5195V22.8426H19.8477V24.5195C19.8479 24.7418 19.9364 24.9549 20.0935 25.1121C20.2507 25.2693 20.4638 25.3577 20.6861 25.358H23.2015C23.4238 25.3577 23.6369 25.2693 23.794 25.1121C23.9512 24.9549 24.0397 24.7418 24.0399 24.5195V22.7896C24.3996 22.6962 24.7182 22.4861 24.9458 22.1923C25.1734 21.8984 25.2971 21.5374 25.2976 21.1658V17.9856C25.2983 17.7425 25.2507 17.5016 25.1577 17.277C25.0646 17.0524 24.928 16.8485 24.7556 16.6771V16.6771ZM10.2736 10.6851H20.1988C20.3748 10.685 20.5464 10.7403 20.6892 10.8432C20.832 10.9462 20.9387 11.0914 20.9943 11.2585L21.0827 11.5236H9.38974L9.47809 11.2585C9.53365 11.0914 9.6404 10.9462 9.7832 10.8432C9.92601 10.7403 10.0976 10.685 10.2736 10.6851V10.6851ZM9.11028 12.362H21.3621L22.6198 16.1351H7.8526L9.11028 12.362ZM23.2015 24.5195H20.6861V22.8426H23.2015L23.2019 24.5195H23.2015ZM24.4591 21.1658C24.4589 21.388 24.3705 21.6012 24.2133 21.7583C24.0561 21.9155 23.843 22.0039 23.6207 22.0042H6.8517C6.62941 22.0039 6.4163 21.9155 6.25912 21.7583C6.10194 21.6012 6.01352 21.388 6.01325 21.1658V17.9856C6.01327 17.7172 6.1199 17.4597 6.30969 17.2699C6.49949 17.0801 6.7569 16.9735 7.02532 16.9735H23.4471C23.7155 16.9735 23.9729 17.0801 24.1627 17.2699C24.3525 17.4597 24.4591 17.7172 24.4591 17.9856V21.1658Z" fill="#FE8501"/>
<path d="M8.52846 17.812C8.1968 17.812 7.87259 17.9104 7.59683 18.0946C7.32106 18.2789 7.10613 18.5408 6.97921 18.8472C6.85229 19.1536 6.81908 19.4908 6.88378 19.8161C6.94849 20.1413 7.1082 20.4401 7.34272 20.6747C7.57723 20.9092 7.87603 21.0689 8.20132 21.1336C8.5266 21.1983 8.86377 21.1651 9.17018 21.0382C9.4766 20.9112 9.73849 20.6963 9.92275 20.4205C10.107 20.1448 10.2054 19.8206 10.2054 19.4889C10.2049 19.0443 10.028 18.6181 9.71366 18.3037C9.39929 17.9893 8.97305 17.8125 8.52846 17.812V17.812ZM8.52846 20.3274C8.36263 20.3274 8.20053 20.2782 8.06264 20.1861C7.92476 20.0939 7.8173 19.963 7.75384 19.8098C7.69038 19.6566 7.67377 19.488 7.70612 19.3253C7.73847 19.1627 7.81833 19.0133 7.93559 18.896C8.05285 18.7788 8.20225 18.6989 8.36489 18.6666C8.52753 18.6342 8.69612 18.6508 8.84932 18.7143C9.00253 18.7777 9.13348 18.8852 9.22561 19.0231C9.31774 19.161 9.36691 19.3231 9.36691 19.4889C9.36665 19.7112 9.27823 19.9243 9.12104 20.0815C8.96386 20.2387 8.75075 20.3271 8.52846 20.3274V20.3274Z" fill="#FE8501"/>
<path d="M21.944 17.812C21.6123 17.812 21.2881 17.9104 21.0124 18.0946C20.7366 18.2789 20.5217 18.5408 20.3947 18.8472C20.2678 19.1536 20.2346 19.4908 20.2993 19.8161C20.364 20.1413 20.5237 20.4401 20.7582 20.6747C20.9928 20.9092 21.2916 21.0689 21.6168 21.1336C21.9421 21.1983 22.2793 21.1651 22.5857 21.0382C22.8921 20.9112 23.154 20.6963 23.3383 20.4205C23.5225 20.1448 23.6209 19.8206 23.6209 19.4889C23.6204 19.0443 23.4436 18.6181 23.1292 18.3037C22.8148 17.9893 22.3886 17.8125 21.944 17.812V17.812ZM21.944 20.3274C21.7782 20.3274 21.6161 20.2782 21.4782 20.1861C21.3403 20.0939 21.2328 19.963 21.1694 19.8098C21.1059 19.6566 21.0893 19.488 21.1217 19.3253C21.154 19.1627 21.2339 19.0133 21.3511 18.896C21.4684 18.7788 21.6178 18.6989 21.7804 18.6666C21.9431 18.6342 22.1116 18.6508 22.2648 18.7143C22.4181 18.7777 22.549 18.8852 22.6411 19.0231C22.7333 19.161 22.7824 19.3231 22.7824 19.4889C22.7822 19.7112 22.6938 19.9243 22.5366 20.0815C22.3794 20.2387 22.1663 20.3271 21.944 20.3274V20.3274Z" fill="#FE8501"/>
<path d="M11.0439 18.2312H19.4284V19.0696H11.0439V18.2312Z" fill="#FE8501"/>
<path d="M11.0439 19.9082H19.4284V20.7467H11.0439V19.9082Z" fill="#FE8501"/>
</svg>
