<svg width="31" height="30" viewBox="0 0 31 30" fill="none" xmlns="http://www.w3.org/2000/svg">
<path d="M24.6712 4.16284H6.86771C6.24665 4.16357 5.65124 4.40663 5.21209 4.8387C4.77293 5.27077 4.52589 5.85658 4.52515 6.46762V23.9839C4.52589 24.595 4.77293 25.1808 5.21209 25.6128C5.65124 26.0449 6.24665 26.288 6.86771 26.2887H24.6712C25.2922 26.288 25.8876 26.0449 26.3268 25.6128C26.7659 25.1808 27.013 24.595 27.0137 23.9839V6.46762C27.013 5.85658 26.7659 5.27077 26.3268 4.8387C25.8876 4.40663 25.2922 4.16357 24.6712 4.16284V4.16284ZM26.0767 23.9839C26.0767 24.3507 25.9286 24.7024 25.665 24.9618C25.4014 25.2211 25.0439 25.3668 24.6712 25.3668H6.86771C6.49494 25.3668 6.13743 25.2211 5.87384 24.9618C5.61025 24.7024 5.46217 24.3507 5.46217 23.9839V6.46762C5.46217 6.10086 5.61025 5.74912 5.87384 5.48978C6.13743 5.23045 6.49494 5.08475 6.86771 5.08475H24.6712C25.0439 5.08475 25.4014 5.23045 25.665 5.48978C25.9286 5.74912 26.0767 6.10086 26.0767 6.46762V23.9839Z" fill="#D98600"/>
<path d="M15.7694 6.92859H10.6157C10.4915 6.92859 10.3723 6.97715 10.2844 7.0636C10.1966 7.15005 10.1472 7.26729 10.1472 7.38954V23.523C10.1472 23.6452 10.1966 23.7625 10.2844 23.8489C10.3723 23.9354 10.4915 23.9839 10.6157 23.9839H13.8953C14.0196 23.9839 14.1387 23.9354 14.2266 23.8489C14.3145 23.7625 14.3638 23.6452 14.3638 23.523V18.9134H15.7694C17.3847 18.9134 18.9339 18.2821 20.0761 17.1583C21.2183 16.0345 21.86 14.5103 21.86 12.921C21.86 11.3317 21.2183 9.80752 20.0761 8.68373C18.9339 7.55993 17.3847 6.92859 15.7694 6.92859V6.92859ZM15.7694 17.9915H13.8953C13.7711 17.9915 13.6519 18.0401 13.564 18.1265C13.4762 18.213 13.4268 18.3302 13.4268 18.4525V23.062H11.0842V7.8505H15.7694C17.1362 7.8505 18.447 8.38471 19.4135 9.33562C20.38 10.2865 20.923 11.5762 20.923 12.921C20.923 14.2658 20.38 15.5555 19.4135 16.5064C18.447 17.4573 17.1362 17.9915 15.7694 17.9915Z" fill="#D98600"/>
<path d="M16.0038 10.3857H13.8955C13.7713 10.3857 13.6521 10.4343 13.5642 10.5208C13.4764 10.6072 13.427 10.7244 13.427 10.8467V14.9953C13.427 15.1175 13.4764 15.2348 13.5642 15.3212C13.6521 15.4077 13.7713 15.4563 13.8955 15.4563H16.0038C16.6872 15.4563 17.3427 15.1891 17.8259 14.7137C18.3091 14.2382 18.5806 13.5934 18.5806 12.921C18.5806 12.2486 18.3091 11.6038 17.8259 11.1283C17.3427 10.6528 16.6872 10.3857 16.0038 10.3857ZM16.0038 14.5343H14.364V11.3077H16.0038C16.4387 11.3077 16.8558 11.4776 17.1633 11.7802C17.4708 12.0828 17.6436 12.4931 17.6436 12.921C17.6436 13.3489 17.4708 13.7592 17.1633 14.0618C16.8558 14.3644 16.4387 14.5343 16.0038 14.5343Z" fill="#D98600"/>
</svg>
