<svg width="20" height="21" viewBox="0 0 20 21" fill="none" xmlns="http://www.w3.org/2000/svg">
<path d="M17.2972 9.94404C17.8829 9.53248 18.2707 8.84788 18.2707 8.07621C18.2707 6.81384 17.2497 5.79287 15.9874 5.79287C14.725 5.79287 13.704 6.81384 13.704 8.07621C13.704 8.84788 14.0879 9.53248 14.6775 9.94404C14.1749 10.1182 13.7159 10.3873 13.3281 10.7355C12.7939 10.2804 12.1647 9.93217 11.4761 9.72639C12.3111 9.21986 12.873 8.29782 12.873 7.24914C12.873 5.65041 11.579 4.35638 9.98024 4.35638C8.38151 4.35638 7.08749 5.65437 7.08749 7.24914C7.08749 8.29782 7.64546 9.21986 8.4844 9.72639C7.80375 9.93217 7.18246 10.2764 6.65219 10.7236C6.26438 10.3833 5.81325 10.1182 5.31859 9.94799C5.90426 9.53644 6.29208 8.85183 6.29208 8.08017C6.29208 6.8178 5.2711 5.79683 4.00874 5.79683C2.74637 5.79683 1.7254 6.8178 1.7254 8.08017C1.7254 8.85183 2.10925 9.53644 2.69888 9.94799C1.12785 10.4901 3.05176e-05 11.982 3.05176e-05 13.7351V13.9963C3.05176e-05 14.0042 0.00794504 14.0121 0.0158596 14.0121H4.85559C4.82789 14.2298 4.81206 14.4553 4.81206 14.6809V14.95C4.81206 16.1134 5.75389 17.0552 6.91732 17.0552H13.0511C14.2145 17.0552 15.1563 16.1134 15.1563 14.95V14.6809C15.1563 14.4553 15.1405 14.2298 15.1128 14.0121H19.9842C19.9921 14.0121 20 14.0042 20 13.9963V13.7351C19.9921 11.9781 18.8683 10.4862 17.2972 9.94404ZM14.3372 8.07225C14.3372 7.16208 15.0772 6.42207 15.9874 6.42207C16.8975 6.42207 17.6375 7.16208 17.6375 8.07225C17.6375 8.97055 16.9134 9.70264 16.019 9.72243C16.0072 9.72243 15.9992 9.72243 15.9874 9.72243C15.9755 9.72243 15.9676 9.72243 15.9557 9.72243C15.0574 9.7066 14.3372 8.97451 14.3372 8.07225ZM7.71273 7.24914C7.71273 6.00261 8.72579 4.98955 9.97233 4.98955C11.2189 4.98955 12.2319 6.00261 12.2319 7.24914C12.2319 8.45215 11.2861 9.43751 10.1029 9.50478C10.0594 9.50478 10.0159 9.50478 9.97233 9.50478C9.9288 9.50478 9.88527 9.50478 9.84174 9.50478C8.65852 9.43751 7.71273 8.45215 7.71273 7.24914ZM2.34669 8.07225C2.34669 7.16208 3.08669 6.42207 3.99686 6.42207C4.90703 6.42207 5.64704 7.16208 5.64704 8.07225C5.64704 8.97055 4.92286 9.70264 4.02852 9.72243C4.01665 9.72243 4.00874 9.72243 3.99686 9.72243C3.98499 9.72243 3.97708 9.72243 3.96521 9.72243C3.07087 9.7066 2.34669 8.97451 2.34669 8.07225ZM4.96639 13.375H0.641107C0.819184 11.6892 2.2438 10.3675 3.97312 10.3556C3.98104 10.3556 3.98895 10.3556 3.99686 10.3556C4.00478 10.3556 4.01269 10.3556 4.02061 10.3556C4.84372 10.3596 5.5956 10.6643 6.17732 11.1589C5.60747 11.7762 5.18404 12.536 4.96639 13.375ZM14.5153 14.95C14.5153 15.7612 13.8544 16.4221 13.0432 16.4221H6.90941C6.09817 16.4221 5.43731 15.7612 5.43731 14.95V14.6809C5.43731 12.2234 7.40011 10.2131 9.84174 10.1419C9.88527 10.1459 9.93276 10.1459 9.97629 10.1459C10.0198 10.1459 10.0673 10.1459 10.1108 10.1419C12.5525 10.2131 14.5153 12.2234 14.5153 14.6809V14.95V14.95ZM14.9862 13.375C14.7685 12.54 14.353 11.7921 13.7871 11.1747C14.3728 10.6682 15.1326 10.3635 15.9636 10.3556C15.9715 10.3556 15.9795 10.3556 15.9874 10.3556C15.9953 10.3556 16.0032 10.3556 16.0111 10.3556C17.7404 10.3675 19.165 11.6892 19.3431 13.375H14.9862Z" fill="white"/>
</svg>
