<svg width="114" height="23" viewBox="0 0 114 23" fill="none" xmlns="http://www.w3.org/2000/svg">
<g clip-path="url(#clip0_875_6908)">
<path d="M22.6112 8.69544C22.4619 8.23639 22.0547 7.91139 21.5749 7.86798L15.0306 7.27384L12.4443 1.2187C12.2534 0.773838 11.8189 0.486717 11.3353 0.486717C10.8516 0.486717 10.417 0.773838 10.2272 1.2187L7.6409 7.27384L1.09557 7.86798C0.615768 7.91226 0.209474 8.23726 0.0593406 8.69544C-0.0899279 9.15449 0.0479249 9.65799 0.410805 9.97624L5.35777 14.314L3.89916 20.7383C3.79244 21.2106 3.97578 21.6991 4.36772 21.9824C4.57839 22.1355 4.8259 22.2119 5.07428 22.2119C5.28772 22.2119 5.50133 22.1552 5.69211 22.041L11.3353 18.6668L16.9774 22.041C17.3913 22.2884 17.9117 22.2657 18.3028 21.9824C18.6947 21.6991 18.8781 21.2106 18.7714 20.7383L17.3127 14.314L22.2597 9.97624C22.6224 9.65799 22.7604 9.15553 22.6112 8.69544Z" fill="#FE8501"/>
</g>
<g clip-path="url(#clip1_875_6908)">
<path d="M53.0545 8.69543C52.9053 8.23638 52.4981 7.91138 52.0183 7.86797L45.474 7.27384L42.8877 1.2187C42.6967 0.773831 42.2622 0.48671 41.7786 0.48671C41.295 0.48671 40.8603 0.773831 40.6706 1.2187L38.0843 7.27384L31.5389 7.86797C31.0591 7.91225 30.6528 8.23725 30.5027 8.69543C30.3534 9.15448 30.4913 9.65798 30.8542 9.97623L35.8011 14.314L34.3425 20.7383C34.2358 21.2106 34.4191 21.6991 34.8111 21.9824C35.0217 22.1355 35.2693 22.2119 35.5176 22.2119C35.7311 22.2119 35.9447 22.1552 36.1355 22.041L41.7786 18.6668L47.4207 22.041C47.8346 22.2884 48.3551 22.2657 48.7462 21.9824C49.1381 21.6991 49.3214 21.2106 49.2147 20.7383L47.7561 14.314L52.7031 9.97623C53.0658 9.65798 53.2038 9.15552 53.0545 8.69543Z" fill="#FE8501"/>
</g>
<g clip-path="url(#clip2_875_6908)">
<path d="M83.4974 8.69543C83.3481 8.23638 82.941 7.91138 82.4612 7.86797L75.9169 7.27384L73.3305 1.2187C73.1396 0.773831 72.7051 0.48671 72.2215 0.48671C71.7379 0.48671 71.3032 0.773831 71.1135 1.2187L68.5271 7.27384L61.9818 7.86797C61.502 7.91225 61.0957 8.23725 60.9456 8.69543C60.7963 9.15448 60.9342 9.65798 61.297 9.97623L66.244 14.314L64.7854 20.7383C64.6787 21.2106 64.862 21.6991 65.2539 21.9824C65.4646 22.1355 65.7121 22.2119 65.9605 22.2119C66.1739 22.2119 66.3876 22.1552 66.5783 22.041L72.2215 18.6668L77.8636 22.041C78.2775 22.2884 78.798 22.2657 79.189 21.9824C79.581 21.6991 79.7643 21.2106 79.6576 20.7383L78.199 14.314L83.1459 9.97623C83.5086 9.65798 83.6467 9.15552 83.4974 8.69543Z" fill="#FE8501"/>
</g>
<g clip-path="url(#clip3_875_6908)">
<path d="M113.941 8.69543C113.791 8.23638 113.384 7.91138 112.905 7.86797L106.36 7.27384L103.774 1.2187C103.583 0.773831 103.148 0.48671 102.665 0.48671C102.181 0.48671 101.747 0.773831 101.557 1.2187L98.9705 7.27384L92.4252 7.86797C91.9454 7.91225 91.5391 8.23725 91.3889 8.69543C91.2397 9.15448 91.3775 9.65798 91.7404 9.97623L96.6874 14.314L95.2287 20.7383C95.122 21.2106 95.3054 21.6991 95.6973 21.9824C95.908 22.1355 96.1555 22.2119 96.4039 22.2119C96.6173 22.2119 96.8309 22.1552 97.0217 22.041L102.665 18.6668L108.307 22.041C108.721 22.2884 109.241 22.2657 109.632 21.9824C110.024 21.6991 110.208 21.2106 110.101 20.7383L108.642 14.314L113.589 9.97623C113.952 9.65798 114.09 9.15552 113.941 8.69543Z" fill="#FE8501"/>
</g>
<defs>
<clipPath id="clip0_875_6908">
<rect width="22.6705" height="22.6705" fill="white"/>
</clipPath>
<clipPath id="clip1_875_6908">
<rect width="22.6705" height="22.6705" fill="white" transform="translate(30.4434 -7.62939e-06)"/>
</clipPath>
<clipPath id="clip2_875_6908">
<rect width="22.6705" height="22.6705" fill="white" transform="translate(60.8862 -7.62939e-06)"/>
</clipPath>
<clipPath id="clip3_875_6908">
<rect width="22.6705" height="22.6705" fill="white" transform="translate(91.3296 -7.62939e-06)"/>
</clipPath>
</defs>
</svg>
