<svg width="26" height="26" viewBox="0 0 26 26" fill="none" xmlns="http://www.w3.org/2000/svg">
<path d="M16.4003 16.1775V12.3622C16.4003 11.6688 15.836 11.1045 15.1426 11.1045H3.4043C2.7109 11.1045 2.14663 11.6688 2.14663 12.3622V16.1775C1.19121 16.3725 0.469727 17.2193 0.469727 18.2313V20.7467V24.9389C0.469727 25.1703 0.657539 25.3581 0.888951 25.3581H2.56585C2.79726 25.3581 2.98508 25.1703 2.98508 24.9389V23.6812H15.5618V24.9389C15.5618 25.1703 15.7496 25.3581 15.981 25.3581H17.6579C17.8894 25.3581 18.0772 25.1703 18.0772 24.9389V20.7467V18.2313C18.0772 17.2193 17.3557 16.3725 16.4003 16.1775ZM2.98508 12.3622C2.98508 12.1312 3.17331 11.9429 3.4043 11.9429H15.1426C15.3736 11.9429 15.5618 12.1312 15.5618 12.3622V16.1352H14.7234V14.4583C14.7234 13.7649 14.1591 13.2006 13.4657 13.2006H10.9503C10.2569 13.2006 9.69267 13.7649 9.69267 14.4583V16.1352H8.85422V14.4583C8.85422 13.7649 8.28995 13.2006 7.59655 13.2006H5.0812C4.3878 13.2006 3.82352 13.7649 3.82352 14.4583V16.1352H2.98508V12.3622ZM13.8849 14.4583V16.1352H10.5311V14.4583C10.5311 14.2273 10.7194 14.0391 10.9503 14.0391H13.4657C13.6967 14.0391 13.8849 14.2273 13.8849 14.4583ZM8.01577 14.4583V16.1352H4.66197V14.4583C4.66197 14.2273 4.85021 14.0391 5.0812 14.0391H7.59655C7.82754 14.0391 8.01577 14.2273 8.01577 14.4583ZM17.2387 24.5197H16.4003V23.262C16.4003 23.0306 16.2125 22.8428 15.981 22.8428H2.56585C2.33444 22.8428 2.14663 23.0306 2.14663 23.262V24.5197H1.30818V21.1659H17.2387V24.5197ZM17.2387 20.3274H1.30818V18.2313C1.30818 17.5379 1.87245 16.9736 2.56585 16.9736H4.24275H8.435H10.1119H14.3041H15.981C16.6744 16.9736 17.2387 17.5379 17.2387 18.2313V20.3274Z" fill="#FE8501"/>
<path d="M25.2039 16.1353H19.3348C19.1033 16.1353 18.9155 16.3231 18.9155 16.5545V19.9083V22.8428H19.754V20.3275H24.7847V22.8428H25.6231V19.9083V16.5545C25.6231 16.3231 25.4353 16.1353 25.2039 16.1353ZM24.7847 19.4891H19.754V16.9737H24.7847V19.4891Z" fill="#FE8501"/>
<path d="M23.1081 17.812H21.4312V18.6505H23.1081V17.812Z" fill="#FE8501"/>
<path d="M24.3439 12.6484L23.5054 10.133C23.448 9.96197 23.2883 9.84668 23.1076 9.84668H21.4307C21.25 9.84668 21.0903 9.96197 21.0328 10.1334L20.1944 12.6488C20.1516 12.7766 20.1734 12.9171 20.2522 13.0265C20.331 13.1359 20.4576 13.2005 20.5922 13.2005H21.8499V14.4582H21.0114V15.2966H23.5268V14.4582H22.6883V13.2005H23.946C24.0806 13.2005 24.2072 13.1359 24.286 13.0261C24.3648 12.9167 24.3862 12.7762 24.3439 12.6484ZM21.1737 12.362L21.7329 10.6851H22.8057L23.3646 12.362H21.1737Z" fill="#FE8501"/>
<path d="M25.3755 5.69098L13.2179 0.241062C13.1085 0.192432 12.984 0.192432 12.875 0.241062L0.717488 5.69098C0.566567 5.7589 0.469727 5.90856 0.469727 6.07374V11.1044H1.30818V6.34498L13.0465 1.08329L24.7848 6.34539V11.1044H25.6232V6.07374C25.6232 5.90856 25.5264 5.7589 25.3755 5.69098Z" fill="#FE8501"/>
<path d="M15.9403 6.00411L15.1132 6.14329C15.1329 6.25774 15.1425 6.37512 15.1425 6.49292C15.1425 7.64873 14.2022 8.58905 13.0464 8.58905C11.8906 8.58905 10.9503 7.64873 10.9503 6.49292C10.9503 5.33712 11.8906 4.3968 13.0464 4.3968C13.2862 4.3968 13.5218 4.43704 13.7457 4.51628L14.0249 3.72562C13.7109 3.61453 13.3818 3.55835 13.0464 3.55835C11.4282 3.55835 10.1118 4.87472 10.1118 6.49292C10.1118 8.11113 11.4282 9.4275 13.0464 9.4275C14.6646 9.4275 15.981 8.11113 15.981 6.49292C15.981 6.32859 15.9671 6.16425 15.9403 6.00411Z" fill="#FE8501"/>
<path d="M15.6846 3.68115L13.0465 6.31933L12.5044 5.77728L11.9116 6.37006L12.7501 7.20851C12.8318 7.29026 12.9391 7.33134 13.0465 7.33134C13.1538 7.33134 13.2611 7.29026 13.3429 7.20851L16.2774 4.27394L15.6846 3.68115Z" fill="#FE8501"/>
</svg>
