<svg width="19" height="18" viewBox="0 0 19 18" fill="none" xmlns="http://www.w3.org/2000/svg">
<g clip-path="url(#clip0_1925_7630)">
<path d="M18.5371 16.9762L14.4309 12.87C15.7474 11.3338 16.4178 9.34746 16.3012 7.3277C16.1847 5.30794 15.2904 3.41182 13.8059 2.03725C12.3215 0.662692 10.3623 -0.0834502 8.33955 -0.0445907C6.31681 -0.00573114 4.38774 0.81511 2.95717 2.24567C1.52661 3.67623 0.705771 5.6053 0.666911 7.62805C0.628052 9.6508 1.37419 11.61 2.74876 13.0944C4.12332 14.5789 6.01944 15.4732 8.0392 15.5897C10.059 15.7062 12.0453 15.0359 13.5815 13.7194L17.6877 17.8256C17.8026 17.9264 17.9516 17.9798 18.1043 17.9748C18.2571 17.9698 18.4023 17.9069 18.5103 17.7988C18.6184 17.6907 18.6813 17.5456 18.6863 17.3928C18.6913 17.2401 18.6379 17.0911 18.5371 16.9762ZM1.90963 7.80187C1.90963 6.49713 2.29646 5.22167 3.02122 4.13674C3.74598 3.0518 4.77614 2.2061 5.98146 1.70654C7.18678 1.20698 8.51316 1.07599 9.79291 1.33012C11.0727 1.58426 12.2484 2.21211 13.1713 3.13431C14.0943 4.05651 14.7232 5.23166 14.9784 6.5112C15.2336 7.79074 15.1038 9.11722 14.6052 10.323C14.1067 11.5287 13.2619 12.5596 12.1776 13.2853C11.0932 14.011 9.81812 14.3989 8.51338 14.4C6.76338 14.3985 5.08541 13.7031 3.84745 12.4662C2.60949 11.2292 1.9126 9.55186 1.90963 7.80187Z" fill="#181A20"/>
</g>
<defs>
<clipPath id="clip0_1925_7630">
<rect width="18" height="18" fill="white" transform="translate(0.711487)"/>
</clipPath>
</defs>
</svg>
