<svg width="30" height="30" viewBox="0 0 30 30" fill="none" xmlns="http://www.w3.org/2000/svg">
<path d="M15.2347 27.6489C15.0996 27.6499 14.9661 27.6193 14.8449 27.5596L10.8897 25.5861C9.01596 24.6544 7.4407 23.2163 6.34258 21.4349C5.24446 19.6535 4.66742 17.6001 4.67687 15.5074V5.64804C4.67683 5.42035 4.76615 5.20175 4.92562 5.03924C5.08509 4.87673 5.30197 4.7833 5.52962 4.77905H8.34775C9.50056 4.77296 10.6276 4.43766 11.5963 3.8126L14.7393 1.79849C14.8788 1.70958 15.0408 1.66235 15.2063 1.66235C15.3717 1.66235 15.5337 1.70958 15.6733 1.79849L18.8162 3.8126C19.7849 4.43766 20.912 4.77296 22.0648 4.77905H24.8829C25.0004 4.77355 25.1178 4.79196 25.228 4.83317C25.3381 4.87437 25.4388 4.93751 25.5238 5.01875C25.6089 5.1 25.6765 5.19767 25.7227 5.30584C25.7689 5.414 25.7927 5.53042 25.7925 5.64804V15.5074C25.799 17.6004 25.2188 19.6533 24.1178 21.4333C23.0168 23.2133 21.439 24.6491 19.5634 25.578L15.6083 27.5515C15.4926 27.6116 15.365 27.6449 15.2347 27.6489ZM6.39861 6.53327V15.5074C6.39366 17.2781 6.88481 19.0147 7.8164 20.5204C8.74799 22.0262 10.0827 23.2409 11.6694 24.0268L15.2347 25.8135L18.8 24.0268C20.3866 23.2409 21.7214 22.0262 22.653 20.5204C23.5846 19.0147 24.0757 17.2781 24.0708 15.5074V6.53327H22.1217C20.6264 6.53316 19.1629 6.10172 17.9066 5.2907L15.2347 3.55272L12.5628 5.27445C11.3083 6.09121 9.84466 6.52833 8.34775 6.53327H6.39861Z" fill="#FE8501"/>
<path d="M15.2347 15.3044C14.4637 15.3044 13.71 15.0757 13.0689 14.6474C12.4279 14.219 11.9282 13.6102 11.6332 12.8979C11.3381 12.1856 11.2609 11.4018 11.4113 10.6456C11.5617 9.88938 11.933 9.19478 12.4782 8.64959C13.0234 8.10441 13.718 7.73313 14.4742 7.58272C15.2304 7.4323 16.0142 7.5095 16.7265 7.80455C17.4388 8.0996 18.0476 8.59926 18.476 9.24032C18.9043 9.88139 19.133 10.6351 19.133 11.4061C19.1308 12.4393 18.7194 13.4296 17.9888 14.1602C17.2582 14.8908 16.2679 15.3022 15.2347 15.3044ZM15.2347 9.23767C14.8058 9.23767 14.3866 9.36485 14.03 9.60312C13.6734 9.84139 13.3955 10.18 13.2313 10.5763C13.0672 10.9725 13.0243 11.4085 13.1079 11.8291C13.1916 12.2498 13.3981 12.6361 13.7014 12.9394C14.0047 13.2426 14.391 13.4492 14.8117 13.5328C15.2323 13.6165 15.6683 13.5736 16.0645 13.4094C16.4607 13.2453 16.7994 12.9674 17.0377 12.6108C17.2759 12.2542 17.4031 11.835 17.4031 11.4061C17.401 10.8324 17.1716 10.2829 16.7651 9.87804C16.3587 9.47313 15.8084 9.24579 15.2347 9.2458V9.23767Z" fill="#FE8501"/>
<path d="M20.4324 20.0715H18.7025C18.7004 19.6134 18.5175 19.1747 18.1935 18.8507C17.8696 18.5268 17.4308 18.3438 16.9727 18.3417H13.4967C13.0379 18.3417 12.5979 18.5239 12.2735 18.8483C11.9491 19.1728 11.7669 19.6127 11.7669 20.0715H10.037C10.037 19.154 10.4015 18.274 11.0503 17.6251C11.6991 16.9763 12.5791 16.6118 13.4967 16.6118H16.9646C17.8829 16.6118 18.7637 16.9761 19.4138 17.6247C20.0639 18.2732 20.4302 19.1532 20.4324 20.0715Z" fill="#FE8501"/>
</svg>
