<svg width="26" height="26" viewBox="0 0 26 26" fill="none" xmlns="http://www.w3.org/2000/svg">
<g clip-path="url(#clip0_2257_12338)">
<path d="M25.3357 23.3269L24.5378 24.0332C23.7398 24.7396 22.5363 24.7397 21.7383 24.0332L20.9406 23.327C20.8012 23.2035 20.5916 23.2035 20.4522 23.327L19.6545 24.0331C18.8565 24.7397 17.653 24.7397 16.8549 24.0331L16.0573 23.327C15.9179 23.2035 15.7083 23.2035 15.5689 23.327L14.7714 24.0331C13.9733 24.7396 12.7697 24.7397 11.9717 24.0331L11.1741 23.327C11.0346 23.2035 10.8251 23.2036 10.6856 23.327L9.8881 24.0331C9.09012 24.7396 7.88653 24.7397 7.08845 24.0331L6.29086 23.327C6.15138 23.2035 5.9418 23.2036 5.80238 23.327L5.00488 24.033C4.20685 24.7396 3.00322 24.7396 2.20518 24.033L1.40764 23.327C1.25525 23.1921 1.02238 23.2062 0.887524 23.3586C0.752618 23.511 0.766767 23.7438 0.919162 23.8787L1.71656 24.5847C2.79305 25.5378 4.41668 25.5379 5.49326 24.5848L6.04654 24.095L6.59987 24.5849C7.67641 25.538 9.29999 25.5379 10.3765 24.5849L10.9298 24.095L11.4831 24.5849C12.5596 25.538 14.1833 25.538 15.2597 24.5849L15.813 24.0951L16.3663 24.5849C17.4428 25.5381 19.0665 25.538 20.1429 24.585L20.6963 24.0951L21.2498 24.5851C21.7881 25.0616 22.463 25.2999 23.138 25.2999C23.813 25.2999 24.488 25.0616 25.0263 24.5852L25.8242 23.8789C25.9766 23.744 25.9907 23.5112 25.8558 23.3588C25.7209 23.2062 25.4881 23.1921 25.3357 23.3269V23.3269Z" fill="#FE8501"/>
<path d="M25.3357 20.1278L24.5378 20.8341C23.7398 21.5405 22.5362 21.5405 21.7383 20.834L20.9407 20.1279C20.8012 20.0044 20.5916 20.0045 20.4522 20.1279L19.6545 20.834C19.1242 21.3035 18.4147 21.4606 17.7642 21.306V12.1678H25.58C25.7834 12.1678 25.9484 12.0028 25.9484 11.7994C25.9484 11.5959 25.7834 11.4309 25.58 11.4309H17.7642V5.68406C17.7642 4.45557 18.7638 3.45611 19.9926 3.45611C20.9751 3.45611 21.8544 4.11491 22.1308 5.05812C22.1881 5.2534 22.3928 5.36546 22.5881 5.30808C22.7833 5.25085 22.8953 5.04613 22.838 4.85085C22.4702 3.59573 21.3001 2.71914 19.9927 2.71914C18.3576 2.71914 17.0273 4.04918 17.0273 5.68401V20.9708C16.9681 20.9285 16.9104 20.8831 16.8549 20.8339L16.0573 20.1278C15.9179 20.0043 15.7083 20.0043 15.5689 20.1278L15.3079 20.3588V5.68406C15.3079 3.10111 17.4095 0.999712 19.9927 0.999712C22.5757 0.999712 24.6771 3.10106 24.6771 5.68406V7.34163C24.6771 7.81567 24.2914 8.20137 23.8173 8.20137C23.3433 8.20137 22.9576 7.81567 22.9576 7.34163V6.42098C22.9576 6.21749 22.7926 6.05252 22.5891 6.05252C22.3857 6.05252 22.2207 6.21749 22.2207 6.42098V7.34163C22.2207 8.22201 22.937 8.93829 23.8173 8.93829C24.6977 8.93829 25.414 8.22201 25.414 7.34163V5.68406C25.414 2.69477 22.982 0.262794 19.9927 0.262794C17.0032 0.262794 14.571 2.69472 14.571 5.68406V10.2808H5.92388V5.68396C5.92388 4.45547 6.92333 3.45601 8.15183 3.45601C9.38061 3.45601 10.3803 4.45547 10.3803 5.68396V7.34154C10.3803 8.22191 11.0966 8.93819 11.9769 8.93819C12.8573 8.93819 13.5736 8.22191 13.5736 7.34154V5.68396C13.5736 2.69467 11.1414 0.262695 8.15183 0.262695C5.16254 0.262695 2.73056 2.69467 2.73056 5.68396V11.4309H1.16338C0.959893 11.4309 0.794922 11.5959 0.794922 11.7994C0.794922 12.0029 0.959893 12.1679 1.16338 12.1679H2.73056V21.1745C2.54338 21.0895 2.36588 20.9763 2.20504 20.8339L1.40765 20.1279C1.25525 19.993 1.02238 20.0071 0.887528 20.1595C0.752623 20.3118 0.766772 20.5447 0.919166 20.6796L1.71656 21.3856C2.09224 21.7182 2.53464 21.9344 2.99708 22.0349C3.01614 22.0404 3.03579 22.0444 3.05603 22.0467C3.90207 22.212 4.80838 21.992 5.49332 21.3856L6.0466 20.8958L6.59992 21.3857C7.67646 22.3388 9.30004 22.3388 10.3765 21.3857L10.9298 20.8958L11.4831 21.3857C12.5295 22.312 14.0924 22.3377 15.1677 21.4635C15.1729 21.4594 15.1779 21.4551 15.1829 21.4506C15.2087 21.4293 15.2345 21.408 15.2598 21.3856L15.8131 20.8958L16.3664 21.3857C16.6323 21.6212 16.9318 21.7982 17.248 21.9173C17.2627 21.9238 17.278 21.9292 17.2937 21.9338C18.2471 22.2744 19.3452 22.092 20.1429 21.3858L20.6963 20.8959L21.2498 21.3858C21.7881 21.8624 22.463 22.1007 23.1381 22.1006C23.813 22.1006 24.4881 21.8624 25.0263 21.386L25.8242 20.6797C25.9766 20.5448 25.9907 20.3119 25.8559 20.1595C25.7209 20.0071 25.4881 19.9929 25.3357 20.1278V20.1278ZM5.31125 17.9297C5.13242 17.9297 4.96451 17.8602 4.8383 17.734C4.71209 17.6078 4.64262 17.4398 4.64262 17.2611C4.64262 16.8921 4.94255 16.592 5.31125 16.592H6.77674C6.98022 16.592 7.14519 16.427 7.14519 16.2235C7.14519 16.02 6.98022 15.8551 6.77674 15.8551H5.92388V13.0924H14.5709V15.8551H8.25057C8.04708 15.8551 7.88211 16.02 7.88211 16.2235C7.88211 16.427 8.04708 16.592 8.25057 16.592H14.5709V17.9297H5.31125V17.9297ZM14.5709 12.3555H5.3113C4.9425 12.3555 4.64242 12.0554 4.64242 11.6866C4.64242 11.3178 4.9425 11.0177 5.3113 11.0177H14.5709V12.3555ZM3.46748 21.3588V5.68391C3.46748 3.10096 5.56888 0.999565 8.15183 0.999565C10.735 0.999565 12.8367 3.10096 12.8367 5.68391V7.34149C12.8367 7.81552 12.451 8.20122 11.9769 8.20122C11.5029 8.20122 11.1172 7.81552 11.1172 7.34149V5.68391C11.1172 4.04908 9.78695 2.71904 8.15183 2.71904C6.517 2.71904 5.18696 4.04908 5.18696 5.68391V10.2866C4.46989 10.3497 3.9055 10.9533 3.9055 11.6866C3.9055 12.4198 4.46989 13.0234 5.18696 13.0866V15.8608C4.46998 15.9239 3.9057 16.5276 3.9057 17.261C3.9057 17.6366 4.05186 17.9896 4.3172 18.255C4.55306 18.4909 4.85824 18.6323 5.18696 18.6609V20.6725L5.00479 20.8338C4.56917 21.2195 4.0128 21.3941 3.46748 21.3588V21.3588ZM11.9716 20.8339L11.174 20.1278C11.0346 20.0044 10.825 20.0044 10.6855 20.1278L9.88801 20.8339C9.08997 21.5404 7.88644 21.5405 7.08835 20.8339L6.29076 20.1278C6.18784 20.0367 6.04679 20.0131 5.92388 20.0564V18.6666H14.5709V20.9903C13.7819 21.5353 12.7054 21.4836 11.9716 20.8339V20.8339Z" fill="#FE8501"/>
</g>
<defs>
<clipPath id="clip0_2257_12338">
<rect width="25.1535" height="25.1535" fill="white" transform="translate(0.794922 0.20459)"/>
</clipPath>
</defs>
</svg>
