<svg width="31" height="30" viewBox="0 0 31 30" fill="none" xmlns="http://www.w3.org/2000/svg">
<path d="M28.1016 26.1672H2.78032C2.3772 26.1666 1.99076 26.0088 1.70575 25.7283C1.42074 25.4479 1.26044 25.0676 1.26001 24.671V17.6294C1.26001 17.5236 1.3027 17.4222 1.37869 17.3475C1.45468 17.2727 1.55774 17.2307 1.66521 17.2307H29.2188C29.3262 17.2307 29.4293 17.2727 29.5053 17.3475C29.5813 17.4222 29.624 17.5236 29.624 17.6294V24.671C29.6236 25.0679 29.463 25.4485 29.1775 25.729C28.8921 26.0096 28.5051 26.1672 28.1016 26.1672V26.1672ZM2.0696 18.028V24.671C2.06981 24.8563 2.14477 25.034 2.27803 25.1651C2.41128 25.2961 2.59193 25.3697 2.78032 25.3698H28.1016C28.29 25.3696 28.4705 25.2959 28.6037 25.1649C28.7368 25.0339 28.8117 24.8563 28.812 24.671V18.028H2.0696Z" fill="#D98600"/>
<path d="M29.2179 18.0304H1.66434C1.59918 18.0304 1.53498 18.0149 1.47719 17.9853C1.41941 17.9557 1.36974 17.9127 1.3324 17.8602C1.29506 17.8077 1.27115 17.747 1.2627 17.6835C1.25425 17.6199 1.26151 17.5552 1.28386 17.495L3.90469 10.4279C4.01247 10.1403 4.20707 9.89204 4.46238 9.71639C4.71768 9.54074 5.02148 9.44611 5.33302 9.44519H9.55763C9.66509 9.44519 9.76816 9.48719 9.84415 9.56196C9.92014 9.63672 9.96283 9.73812 9.96283 9.84386C9.96283 9.94959 9.92014 10.051 9.84415 10.1258C9.76816 10.2005 9.66509 10.2425 9.55763 10.2425H5.33302C5.1876 10.2429 5.04578 10.287 4.92657 10.369C4.80736 10.4509 4.71646 10.5668 4.66606 10.701L2.24378 17.2331H28.6385L26.2121 10.7014C26.1626 10.5666 26.0719 10.4502 25.9525 10.3681C25.8331 10.2859 25.6909 10.2421 25.5452 10.2425H21.9794C21.872 10.2425 21.7689 10.2005 21.6929 10.1258C21.6169 10.051 21.5742 9.94959 21.5742 9.84386C21.5742 9.73812 21.6169 9.63672 21.6929 9.56196C21.7689 9.48719 21.872 9.44519 21.9794 9.44519H25.5452C25.8572 9.44472 26.1618 9.53889 26.4175 9.71488C26.6731 9.89087 26.8674 10.1401 26.9739 10.4287L29.5988 17.493C29.6212 17.5533 29.6286 17.618 29.6201 17.6817C29.6117 17.7453 29.5878 17.806 29.5504 17.8587C29.513 17.9113 29.4632 17.9542 29.4053 17.9838C29.3475 18.0135 29.2832 18.0289 29.2179 18.0288V18.0304Z" fill="#D98600"/>
<path d="M15.4408 16.053C12.4273 16.053 6.729 15.5686 6.729 13.7363C6.729 13.0187 7.55683 12.4662 9.25907 12.0436C9.311 12.0298 9.3652 12.0263 9.41852 12.0333C9.47184 12.0403 9.5232 12.0577 9.56961 12.0844C9.61603 12.1112 9.65657 12.1468 9.68887 12.1891C9.72116 12.2314 9.74457 12.2796 9.75772 12.331C9.77088 12.3823 9.77351 12.4357 9.76548 12.488C9.75745 12.5403 9.7389 12.5906 9.71093 12.6358C9.68296 12.681 9.64612 12.7202 9.60256 12.7513C9.559 12.7823 9.50959 12.8045 9.45721 12.8166C7.89193 13.2053 7.5394 13.6211 7.5394 13.7363C7.5394 14.2518 10.3284 15.2556 15.4408 15.2556C20.5532 15.2556 23.3422 14.2518 23.3422 13.7363C23.3422 13.6311 23.031 13.248 21.6485 12.8748C21.5448 12.8468 21.4567 12.7794 21.4036 12.6875C21.3504 12.5956 21.3365 12.4866 21.365 12.3847C21.3935 12.2827 21.462 12.196 21.5554 12.1437C21.6488 12.0914 21.7596 12.0778 21.8632 12.1058C23.403 12.5216 24.1526 13.055 24.1526 13.7363C24.1526 15.5686 18.4539 16.053 15.4408 16.053Z" fill="#D98600"/>
<path d="M11.2373 15.7895C11.156 15.7896 11.0765 15.7656 11.0092 15.7206C8.49697 14.037 8.71295 11.9389 9.36775 8.68296C9.94759 5.80182 8.25791 4.31639 8.24089 4.30244C8.18566 4.25519 8.14447 4.19411 8.12169 4.12567C8.09891 4.05724 8.09539 3.98401 8.11152 3.91377C8.12764 3.84353 8.1628 3.7789 8.21326 3.72674C8.26372 3.67458 8.3276 3.63685 8.39811 3.61754C9.5233 3.3332 10.6912 3.24962 11.8464 3.37076C12.5993 3.4492 13.3396 3.61775 14.051 3.87268C15.141 4.24862 17.8502 5.06867 19.4592 4.57034C20.668 4.1952 21.5886 4.1641 22.196 4.47785C22.4577 4.5975 22.6614 4.81333 22.7632 5.07904C22.7784 5.12751 22.7841 5.17839 22.7799 5.22894L21.9435 15.0712C21.9396 15.1237 21.9251 15.175 21.901 15.222C21.8768 15.269 21.8434 15.3108 21.8027 15.3451C21.762 15.3793 21.7148 15.4052 21.6638 15.4214C21.6129 15.4376 21.5591 15.4437 21.5058 15.4393C21.4524 15.4349 21.4005 15.4202 21.3529 15.3959C21.3054 15.3717 21.2632 15.3384 21.2288 15.298C21.1944 15.2576 21.1685 15.2109 21.1526 15.1606C21.1366 15.1103 21.131 15.0574 21.136 15.005L21.9614 5.27478C21.8199 5.11532 21.217 4.86017 19.7032 5.3302C17.9272 5.88075 15.2318 5.12449 13.7828 4.62456C13.133 4.39119 12.4568 4.23656 11.769 4.1641C10.9323 4.08074 10.0882 4.10756 9.25875 4.24384C9.73273 4.90276 10.0585 5.6535 10.2144 6.44605C10.3703 7.23859 10.3527 8.05472 10.1627 8.84004C9.53955 11.9385 9.31467 13.624 11.4655 15.0632C11.5372 15.1111 11.5913 15.1804 11.62 15.2609C11.6487 15.3414 11.6504 15.4288 11.6249 15.5103C11.5994 15.5918 11.5479 15.6631 11.4782 15.7137C11.4084 15.7643 11.324 15.7916 11.2373 15.7915V15.7895Z" fill="#D98600"/>
<path d="M21.4725 15.4534C21.3763 15.4532 21.2832 15.4194 21.21 15.3579C21.1368 15.2964 21.0882 15.2112 21.073 15.1177C20.5102 11.6541 17.5919 8.44405 17.5623 8.41216C17.5157 8.36135 17.4831 8.29958 17.4677 8.23278C17.4524 8.16599 17.4548 8.09643 17.4747 8.03081C17.4946 7.96519 17.5314 7.90572 17.5814 7.85814C17.6315 7.81056 17.6931 7.77647 17.7605 7.75915C20.2995 7.10733 22.039 4.9685 22.0556 4.94857C22.1229 4.86803 22.2196 4.81664 22.325 4.80542C22.4303 4.7942 22.536 4.82404 22.6193 4.88855C22.7025 4.95305 22.7568 5.04709 22.7704 5.15049C22.784 5.2539 22.756 5.35844 22.6922 5.44171C21.5915 6.74085 20.1714 7.74144 18.5668 8.34837C19.4291 9.39965 21.3963 12.0627 21.8725 14.9917C21.8894 15.0961 21.8634 15.2029 21.8004 15.2885C21.7373 15.3741 21.6423 15.4315 21.5361 15.4482C21.5151 15.4516 21.4938 15.4534 21.4725 15.4534V15.4534Z" fill="#D98600"/>
</svg>
