<svg width="16" height="16" viewBox="0 0 16 16" fill="none" xmlns="http://www.w3.org/2000/svg">
<g clip-path="url(#clip0_1926_7775)">
<path d="M8 0C6.41775 0 4.87103 0.469192 3.55544 1.34824C2.23985 2.22729 1.21447 3.47672 0.608967 4.93853C0.00346625 6.40034 -0.15496 8.00887 0.153721 9.56072C0.462403 11.1126 1.22433 12.538 2.34315 13.6569C3.46197 14.7757 4.88743 15.5376 6.43928 15.8463C7.99113 16.155 9.59966 15.9965 11.0615 15.391C12.5233 14.7855 13.7727 13.7602 14.6518 12.4446C15.5308 11.129 16 9.58225 16 8C16 5.87827 15.1571 3.84344 13.6569 2.34315C12.1566 0.842855 10.1217 0 8 0V0ZM8 14.935C6.62839 14.935 5.28758 14.5283 4.14712 13.7662C3.00667 13.0042 2.11779 11.9211 1.5929 10.6539C1.06801 9.3867 0.930669 7.99231 1.19826 6.64705C1.46585 5.30179 2.12634 4.06609 3.09622 3.09621C4.0661 2.12634 5.30179 1.46584 6.64705 1.19825C7.99231 0.930666 9.38671 1.068 10.6539 1.5929C11.9211 2.11779 13.0042 3.00667 13.7662 4.14712C14.5283 5.28758 14.935 6.62839 14.935 8C14.9337 9.83887 14.2026 11.602 12.9023 12.9023C11.602 14.2026 9.83887 14.9337 8 14.935Z" fill="#2A2A2B"/>
<path d="M9.60001 5.60001H6.60001L6.75501 5.44501C6.84463 5.34289 6.89203 5.2105 6.88761 5.07471C6.88318 4.93892 6.82726 4.8099 6.73119 4.71383C6.63512 4.61776 6.5061 4.56184 6.37031 4.55741C6.23452 4.55299 6.10213 4.60039 6.00001 4.69001L4.95501 5.75501C4.85517 5.85527 4.79911 5.99101 4.79911 6.13251C4.79911 6.27401 4.85517 6.40974 4.95501 6.51001L6.00001 7.57501C6.10213 7.66462 6.23452 7.71202 6.37031 7.7076C6.5061 7.70318 6.63512 7.64726 6.73119 7.55119C6.82726 7.45512 6.88318 7.3261 6.88761 7.1903C6.89203 7.05451 6.84463 6.92213 6.75501 6.82001L6.60001 6.66501H9.60001C10.0244 6.66501 10.4313 6.83358 10.7314 7.13364C11.0314 7.43369 11.2 7.84066 11.2 8.26501V8.80001C11.2 9.22435 11.0314 9.63132 10.7314 9.93138C10.4313 10.2314 10.0244 10.4 9.60001 10.4H5.33501C5.26075 10.3928 5.1858 10.4012 5.11497 10.4247C5.04415 10.4482 4.97903 10.4862 4.92378 10.5364C4.86853 10.5865 4.82438 10.6477 4.79417 10.7159C4.76396 10.7841 4.74835 10.8579 4.74835 10.9325C4.74835 11.0071 4.76396 11.0809 4.79417 11.1491C4.82438 11.2174 4.86853 11.2785 4.92378 11.3287C4.97903 11.3788 5.04415 11.4168 5.11497 11.4403C5.1858 11.4638 5.26075 11.4722 5.33501 11.465H9.60001C9.94999 11.465 10.2965 11.3961 10.6199 11.2621C10.9432 11.1282 11.237 10.9319 11.4845 10.6844C11.7319 10.437 11.9282 10.1432 12.0622 9.81986C12.1961 9.49652 12.265 9.14998 12.265 8.80001V8.26501C12.265 7.55821 11.9842 6.88035 11.4845 6.38057C10.9847 5.88078 10.3068 5.60001 9.60001 5.60001Z" fill="#2A2A2B"/>
</g>
<defs>
<clipPath id="clip0_1926_7775">
<rect width="16" height="16" fill="white"/>
</clipPath>
</defs>
</svg>
