<svg width="31" height="31" viewBox="0 0 31 31" fill="none" xmlns="http://www.w3.org/2000/svg">
<path d="M24.118 22.3294C24.3444 22.3294 24.5279 22.1488 24.5279 21.926C24.5279 21.7033 24.3444 21.5227 24.118 21.5227C23.8915 21.5227 23.708 21.7033 23.708 21.926C23.708 22.1488 23.8915 22.3294 24.118 22.3294Z" fill="#D98600"/>
<path d="M24.118 20.9464C24.3444 20.9464 24.5279 20.7659 24.5279 20.5431C24.5279 20.3204 24.3444 20.1398 24.118 20.1398C23.8915 20.1398 23.708 20.3204 23.708 20.5431C23.708 20.7659 23.8915 20.9464 24.118 20.9464Z" fill="#D98600"/>
<path d="M24.118 23.8274C24.3444 23.8274 24.5279 23.6468 24.5279 23.4241C24.5279 23.2013 24.3444 23.0208 24.118 23.0208C23.8915 23.0208 23.708 23.2013 23.708 23.4241C23.708 23.6468 23.8915 23.8274 24.118 23.8274Z" fill="#D98600"/>
<path d="M25.5235 22.3294C25.7499 22.3294 25.9334 22.1488 25.9334 21.926C25.9334 21.7033 25.7499 21.5227 25.5235 21.5227C25.2971 21.5227 25.1135 21.7033 25.1135 21.926C25.1135 22.1488 25.2971 22.3294 25.5235 22.3294Z" fill="#D98600"/>
<path d="M25.5235 20.9464C25.7499 20.9464 25.9334 20.7659 25.9334 20.5431C25.9334 20.3204 25.7499 20.1398 25.5235 20.1398C25.2971 20.1398 25.1135 20.3204 25.1135 20.5431C25.1135 20.7659 25.2971 20.9464 25.5235 20.9464Z" fill="#D98600"/>
<path d="M25.5235 23.8274C25.7499 23.8274 25.9334 23.6468 25.9334 23.4241C25.9334 23.2013 25.7499 23.0208 25.5235 23.0208C25.2971 23.0208 25.1135 23.2013 25.1135 23.4241C25.1135 23.6468 25.2971 23.8274 25.5235 23.8274Z" fill="#D98600"/>
<path d="M24.118 19.2179C24.3444 19.2179 24.5279 19.0373 24.5279 18.8146C24.5279 18.5918 24.3444 18.4113 24.118 18.4113C23.8915 18.4113 23.708 18.5918 23.708 18.8146C23.708 19.0373 23.8915 19.2179 24.118 19.2179Z" fill="#D98600"/>
<path d="M29.275 3.34424H1.89418C1.62663 3.34453 1.37011 3.44923 1.18092 3.63537C0.991722 3.82151 0.885304 4.07389 0.88501 4.33714V20.7595C0.885304 21.0228 0.991722 21.2752 1.18092 21.4613C1.37011 21.6474 1.62663 21.7521 1.89418 21.7524H11.6153V23.8152H10.1779C10.0847 23.8152 9.99532 23.8516 9.92942 23.9165C9.86352 23.9813 9.8265 24.0692 9.8265 24.1609C9.8265 24.2526 9.86352 24.3405 9.92942 24.4054C9.99532 24.4702 10.0847 24.5066 10.1779 24.5066H20.9913C21.0845 24.5066 21.1738 24.4702 21.2397 24.4054C21.3056 24.3405 21.3426 24.2526 21.3426 24.1609C21.3426 24.0692 21.3056 23.9813 21.2397 23.9165C21.1738 23.8516 21.0845 23.8152 20.9913 23.8152H19.5538V21.7524H22.7124V25.441C22.7124 25.9911 22.9345 26.5187 23.3299 26.9077C23.7253 27.2968 24.2615 27.5153 24.8207 27.5153C25.3799 27.5153 25.9161 27.2968 26.3115 26.9077C26.7069 26.5187 26.929 25.9911 26.929 25.441V21.7524H29.275C29.5425 21.7521 29.799 21.6474 29.9882 21.4613C30.1774 21.2751 30.2838 21.0228 30.2841 20.7595V4.33714C30.2838 4.07389 30.1774 3.82151 29.9882 3.63537C29.799 3.44923 29.5425 3.34453 29.275 3.34424V3.34424ZM18.851 23.8151H12.3181V21.7523H18.851V23.8151ZM26.2262 25.0952H25.8113C25.7181 25.0952 25.6287 25.1316 25.5628 25.1965C25.4969 25.2613 25.4599 25.3492 25.4599 25.4409C25.4599 25.5326 25.4969 25.6206 25.5628 25.6854C25.6287 25.7502 25.7181 25.7867 25.8113 25.7867H26.1817C26.1039 26.0836 25.928 26.3467 25.6816 26.5345C25.4352 26.7223 25.1324 26.8243 24.8207 26.8243C24.509 26.8243 24.2062 26.7223 23.9598 26.5345C23.7134 26.3467 23.5375 26.0836 23.4597 25.7867H24.6335C24.7267 25.7867 24.816 25.7502 24.8819 25.6854C24.9478 25.6206 24.9849 25.5326 24.9849 25.4409C24.9849 25.3492 24.9478 25.2613 24.8819 25.1965C24.816 25.1316 24.7267 25.0952 24.6335 25.0952H23.4153V17.9504C23.4153 17.8893 23.44 17.8307 23.484 17.7874C23.5279 17.7442 23.5875 17.7199 23.6496 17.7199H25.9922C26.0543 17.7199 26.1139 17.7442 26.1578 17.7874C26.2017 17.8307 26.2264 17.8893 26.2264 17.9504L26.2262 25.0952ZM29.5814 20.7595C29.5813 20.8395 29.549 20.9161 29.4915 20.9726C29.4341 21.0291 29.3562 21.0609 29.275 21.061H26.929V19.8107H27.9591C28.0523 19.8107 28.1417 19.7742 28.2076 19.7094C28.2735 19.6446 28.3105 19.5566 28.3105 19.4649V5.6315C28.3105 5.53981 28.2735 5.45187 28.2076 5.38704C28.1417 5.32221 28.0523 5.28578 27.9591 5.28578H8.05412C7.96093 5.28578 7.87155 5.32221 7.80565 5.38704C7.73976 5.45187 7.70274 5.53981 7.70274 5.6315C7.70274 5.72319 7.73976 5.81112 7.80565 5.87596C7.87155 5.94079 7.96093 5.97722 8.05412 5.97722H27.6078V19.1194H26.929V17.9504C26.9287 17.706 26.8299 17.4717 26.6542 17.2988C26.4786 17.126 26.2404 17.0288 25.992 17.0285H23.6494C23.401 17.0288 23.1628 17.126 22.9872 17.2988C22.8115 17.4717 22.7127 17.706 22.7124 17.9504V19.1194H3.56138V5.97722H5.71156C5.80475 5.97722 5.89413 5.94079 5.96003 5.87596C6.02592 5.81112 6.06295 5.72319 6.06295 5.6315C6.06295 5.53981 6.02592 5.45187 5.96003 5.38704C5.89413 5.32221 5.80475 5.28578 5.71156 5.28578H3.21C3.11681 5.28578 3.02743 5.32221 2.96153 5.38704C2.89564 5.45187 2.85862 5.53981 2.85862 5.6315V19.4651C2.85862 19.5568 2.89564 19.6447 2.96153 19.7096C3.02743 19.7744 3.11681 19.8108 3.21 19.8108H22.7124V21.0612H1.89418C1.81292 21.0611 1.73501 21.0293 1.67756 20.9727C1.62012 20.9162 1.58782 20.8395 1.58778 20.7595V4.33714C1.58787 4.25721 1.62018 4.18059 1.67762 4.12407C1.73507 4.06755 1.81295 4.03576 1.89418 4.03567H29.275C29.3562 4.03576 29.4341 4.06755 29.4915 4.12407C29.549 4.18059 29.5813 4.25721 29.5814 4.33714V20.7595Z" fill="#D98600"/>
<path d="M18.4153 14.5564C18.3412 14.5008 18.2477 14.4764 18.1553 14.4887C18.063 14.501 17.9793 14.5488 17.9229 14.6218C17.8292 14.7424 17.7263 14.8557 17.6148 14.9607C17.5475 15.0241 17.5085 15.1112 17.5064 15.2029C17.5044 15.2946 17.5395 15.3834 17.6039 15.4496C17.6684 15.5159 17.7569 15.5542 17.8501 15.5563C17.9433 15.5583 18.0335 15.5238 18.1009 15.4603C18.2388 15.3305 18.3663 15.1902 18.482 15.0409C18.51 15.0048 18.5304 14.9636 18.5422 14.9197C18.554 14.8758 18.5569 14.83 18.5507 14.785C18.5445 14.74 18.5293 14.6967 18.5061 14.6574C18.4829 14.6182 18.452 14.5839 18.4153 14.5564V14.5564Z" fill="black"/>
<path d="M15.5846 16.4535C15.9399 16.4537 16.2933 16.4028 16.6336 16.3023C16.6782 16.2896 16.7197 16.2683 16.7558 16.2396C16.792 16.211 16.822 16.1756 16.8441 16.1355C16.8663 16.0954 16.8802 16.0513 16.8849 16.0059C16.8897 15.9605 16.8853 15.9146 16.8719 15.8709C16.8586 15.8272 16.8366 15.7865 16.8071 15.7512C16.7777 15.7159 16.7415 15.6867 16.7005 15.6652C16.6596 15.6438 16.6147 15.6305 16.5685 15.6262C16.5223 15.6219 16.4757 15.6267 16.4314 15.6402C15.8093 15.8239 15.1428 15.7993 14.5364 15.5702C13.93 15.3412 13.418 14.9206 13.0807 14.3745C12.7433 13.8284 12.5997 13.1875 12.6723 12.5525C12.745 11.9174 13.0297 11.324 13.482 10.8653C13.9343 10.4066 14.5285 10.1085 15.1714 10.0178C15.8144 9.92705 16.4698 10.0488 17.0348 10.3639C17.5999 10.6791 18.0427 11.1698 18.2939 11.7592C18.545 12.3485 18.5903 13.0032 18.4226 13.6206C18.3996 13.7088 18.4129 13.8024 18.4596 13.881C18.5064 13.9596 18.5828 14.0169 18.6722 14.0404C18.7616 14.064 18.8568 14.0518 18.9372 14.0067C19.0176 13.9615 19.0766 13.887 19.1014 13.7992C19.2985 13.0763 19.2604 12.3108 18.9926 11.6103C18.7248 10.9097 18.2406 10.3093 17.6082 9.89336C16.9757 9.47742 16.2267 9.26684 15.4664 9.29121C14.706 9.31557 13.9726 9.57365 13.369 10.0292C12.7653 10.4848 12.3219 11.1149 12.101 11.8311C11.8801 12.5473 11.8927 13.3136 12.1372 14.0224C12.3816 14.7312 12.8456 15.3468 13.4639 15.7829C14.0822 16.2189 14.8238 16.4534 15.5846 16.4535V16.4535Z" fill="#D98600"/>
<path d="M17.2363 12.5953L15.3569 11.2084C15.3047 11.1699 15.2426 11.1464 15.1776 11.1407C15.1126 11.1349 15.0473 11.1471 14.9889 11.1758C14.9306 11.2045 14.8815 11.2486 14.8472 11.3032C14.8128 11.3579 14.7947 11.4208 14.7947 11.485V14.2587C14.7947 14.3229 14.8128 14.3858 14.8472 14.4404C14.8815 14.4951 14.9306 14.5392 14.9889 14.5679C15.0473 14.5966 15.1126 14.6088 15.1776 14.603C15.2426 14.5972 15.3047 14.5738 15.3569 14.5353L17.2363 13.1484C17.28 13.1162 17.3154 13.0745 17.3398 13.0264C17.3642 12.9784 17.3769 12.9255 17.3769 12.8718C17.3769 12.8182 17.3642 12.7652 17.3398 12.7172C17.3154 12.6692 17.28 12.6275 17.2363 12.5953V12.5953ZM15.4975 13.5672V12.1764L16.4399 12.8718L15.4975 13.5672Z" fill="#D98600"/>
</svg>
