<svg width="29" height="21" viewBox="0 0 29 21" fill="none" xmlns="http://www.w3.org/2000/svg">
<path d="M24.7867 9.95374C25.617 9.54219 26.1668 8.85758 26.1668 8.08591C26.1668 6.82355 24.7194 5.80257 22.9298 5.80257C21.1402 5.80257 19.6928 6.82355 19.6928 8.08591C19.6928 8.85758 20.2369 9.54219 21.0729 9.95374C20.3604 10.1279 19.7096 10.397 19.1598 10.7452C18.4024 10.2901 17.5104 9.94187 16.5343 9.73609C17.718 9.22956 18.5146 8.30752 18.5146 7.25885C18.5146 5.66011 16.6801 4.36609 14.4137 4.36609C12.1472 4.36609 10.3127 5.66407 10.3127 7.25885C10.3127 8.30752 11.1037 9.22956 12.2931 9.73609C11.3281 9.94187 10.4473 10.2862 9.69558 10.7333C9.14579 10.393 8.50624 10.1279 7.80498 9.9577C8.63527 9.54614 9.18506 8.86154 9.18506 8.08987C9.18506 6.82751 7.73766 5.80653 5.94804 5.80653C4.15842 5.80653 2.71102 6.82751 2.71102 8.08987C2.71102 8.86154 3.25519 9.54614 4.0911 9.9577C1.86389 10.4998 0.265015 11.9917 0.265015 13.7448V14.006C0.265015 14.0139 0.276235 14.0218 0.287455 14.0218H7.1486C7.10933 14.2395 7.08689 14.465 7.08689 14.6906V14.9597C7.08689 16.1231 8.42209 17.0649 10.0715 17.0649H18.7671C20.4165 17.0649 21.7517 16.1231 21.7517 14.9597V14.6906C21.7517 14.465 21.7292 14.2395 21.69 14.0218H28.596C28.6072 14.0218 28.6184 14.0139 28.6184 14.006V13.7448C28.6072 11.9878 27.0139 10.4959 24.7867 9.95374ZM20.5904 8.08196C20.5904 7.17179 21.6395 6.43178 22.9298 6.43178C24.2201 6.43178 25.2692 7.17179 25.2692 8.08196C25.2692 8.98026 24.2426 9.71235 22.9747 9.73214C22.9578 9.73214 22.9466 9.73214 22.9298 9.73214C22.913 9.73214 22.9017 9.73214 22.8849 9.73214C21.6114 9.71631 20.5904 8.98421 20.5904 8.08196ZM11.1991 7.25885C11.1991 6.01231 12.6353 4.99925 14.4025 4.99925C16.1696 4.99925 17.6058 6.01231 17.6058 7.25885C17.6058 8.46185 16.265 9.44721 14.5876 9.51449C14.5259 9.51449 14.4642 9.51449 14.4025 9.51449C14.3407 9.51449 14.279 9.51449 14.2173 9.51449C12.5399 9.44721 11.1991 8.46185 11.1991 7.25885ZM3.5918 8.08196C3.5918 7.17179 4.64089 6.43178 5.93121 6.43178C7.22153 6.43178 8.27062 7.17179 8.27062 8.08196C8.27062 8.98026 7.24397 9.71235 5.97609 9.73214C5.95926 9.73214 5.94804 9.73214 5.93121 9.73214C5.91438 9.73214 5.90316 9.73214 5.88633 9.73214C4.61845 9.71631 3.5918 8.98421 3.5918 8.08196ZM7.30568 13.3847H1.17385C1.4263 11.6989 3.44594 10.3772 5.89755 10.3653C5.90877 10.3653 5.91999 10.3653 5.93121 10.3653C5.94243 10.3653 5.95365 10.3653 5.96487 10.3653C7.13177 10.3693 8.19769 10.674 9.02237 11.1686C8.21452 11.786 7.61424 12.5457 7.30568 13.3847ZM20.8428 14.9597C20.8428 15.7709 19.906 16.4318 18.7559 16.4318H10.0602C8.91017 16.4318 7.97328 15.7709 7.97328 14.9597V14.6906C7.97328 12.2331 10.7559 10.2228 14.2173 10.1516C14.279 10.1556 14.3463 10.1556 14.4081 10.1556C14.4698 10.1556 14.5371 10.1556 14.5988 10.1516C18.0602 10.2228 20.8428 12.2331 20.8428 14.6906V14.9597V14.9597ZM21.5104 13.3847C21.2019 12.5497 20.6128 11.8018 19.8106 11.1844C20.6409 10.6779 21.718 10.3732 22.8961 10.3653C22.9074 10.3653 22.9186 10.3653 22.9298 10.3653C22.941 10.3653 22.9522 10.3653 22.9635 10.3653C25.4151 10.3772 27.4347 11.6989 27.6872 13.3847H21.5104Z" fill="white"/>
</svg>
