<svg width="31" height="31" viewBox="0 0 31 31" fill="none" xmlns="http://www.w3.org/2000/svg">
<path d="M29.704 10.4864C30.4121 11.3513 30.309 12.7019 29.4206 13.4239C28.6054 14.0859 27.4722 13.9395 26.8262 13.1496C23.8722 9.538 19.6433 7.46658 15.2235 7.46658H15.1567C10.7106 7.48733 6.47697 9.59793 3.54057 13.2573C2.89695 14.06 1.76257 14.204 0.950868 13.557C0.0466402 12.8361 -0.0564325 11.4855 0.638137 10.6207C4.1918 6.19377 9.38057 3.43553 15.1374 3.40845H15.2212C18.0082 3.40845 20.7004 4.04111 23.2233 5.28799C23.44 5.39516 23.5273 5.65503 23.4184 5.86822C23.3095 6.08141 23.046 6.16726 22.8292 6.06009C20.4298 4.87429 17.87 4.27274 15.2212 4.27274H15.1409C9.85435 4.29751 4.81902 6.80626 1.32743 11.1565C0.909288 11.6768 1.00299 12.4858 1.50254 12.884C1.93591 13.2297 2.51101 13.1456 2.85127 12.722C5.95399 8.85463 10.4377 6.62419 15.1521 6.60229H15.2235C19.9104 6.60229 24.3888 8.79125 27.5108 12.608C27.8558 13.0297 28.4326 13.1058 28.8595 12.7589C29.3603 12.3521 29.4405 11.5426 29.02 11.0286C27.7293 9.451 26.2294 8.10962 24.5621 7.04078C24.3589 6.91056 24.3015 6.64263 24.4339 6.44269C24.5663 6.24275 24.8385 6.18628 25.0418 6.3165C26.787 7.43489 28.3553 8.83793 29.704 10.4864V10.4864Z" fill="#D98600"/>
<path d="M24.8966 14.2581C25.6784 15.1339 25.57 16.5376 24.6728 17.2664C23.8963 17.8974 22.7982 17.7983 22.1166 17.0365C20.2788 14.9836 17.8279 13.8543 15.2107 13.8543C15.1967 13.8543 15.1826 13.8543 15.1686 13.8543C12.5355 13.8664 10.0788 15.0193 8.25098 17.1006C7.5769 17.868 6.47942 17.9781 5.69817 17.3552L5.697 17.3541C4.79219 16.6326 4.67213 15.2302 5.44459 14.3481C7.90896 11.5334 11.3584 9.81401 15.1492 9.79614C18.9646 9.77938 22.4222 11.4843 24.8966 14.2581V14.2581ZM24.1124 16.6009C24.6307 16.1797 24.691 15.3373 24.2365 14.828C21.8378 12.1389 18.6331 10.6604 15.2083 10.6604C15.1902 10.6604 15.172 10.6604 15.1539 10.6604C11.708 10.6765 8.4963 12.1861 6.1104 14.9115C5.89255 15.1605 5.78596 15.5021 5.81758 15.8491C5.84804 16.1838 6.00557 16.4875 6.24979 16.6822C6.24979 16.6822 6.24979 16.6828 6.25037 16.6828L6.25096 16.6834C6.66208 17.0107 7.22371 16.949 7.58622 16.5354C9.58266 14.2623 12.2737 13.0033 15.1644 12.99H15.2107C18.0839 12.99 20.769 14.2231 22.776 16.4656C23.1426 16.8752 23.7048 16.9322 24.1124 16.6009V16.6009Z" fill="#D98600"/>
<path d="M19.9274 17.977C20.369 18.3584 20.6226 18.9265 20.6226 19.535C20.6226 20.1751 20.349 20.7646 19.8723 21.1518C19.152 21.7372 18.1775 21.6808 17.5063 21.1098C17.111 20.7733 16.6678 20.5296 16.1881 20.3867C15.9556 20.3169 15.8244 20.0755 15.8952 19.8473C15.9655 19.6192 16.211 19.4901 16.4429 19.5592C17.0408 19.7379 17.5925 20.0398 18.0809 20.4559C18.4428 20.7635 18.9377 20.7906 19.3131 20.4858C19.8771 20.0272 19.8882 19.0932 19.3476 18.6264C18.1518 17.5938 16.7152 17.0482 15.1943 17.0482H15.1662C13.6336 17.0551 12.1929 17.6146 10.9982 18.6651C10.4535 19.1439 10.4933 20.0796 11.0509 20.5239C11.4263 20.8228 11.9211 20.7963 12.2819 20.4829C12.8359 20.0024 13.4948 19.6607 14.1876 19.4959C14.423 19.4395 14.6608 19.5824 14.7176 19.814C14.775 20.0462 14.6297 20.2795 14.3943 20.3361C13.8403 20.468 13.3103 20.7429 12.8628 21.1312C12.1905 21.7149 11.2166 21.7685 10.498 21.1951C9.5042 20.4035 9.47902 18.8426 10.4125 18.0209C11.7501 16.8443 13.4368 16.1921 15.1615 16.184H15.1943C16.9067 16.1838 18.5881 16.8205 19.9274 17.977V17.977Z" fill="#D98600"/>
<path d="M15.1772 22.9691C16.4293 22.9691 17.4471 23.9746 17.4471 25.21C17.4471 26.4459 16.4293 27.4508 15.1772 27.4508C13.9257 27.4508 12.9072 26.446 12.9072 25.21C12.9072 23.9746 13.9257 22.9691 15.1772 22.9691ZM16.5686 25.21C16.5686 24.4511 15.9444 23.8334 15.1772 23.8334C14.41 23.8334 13.7857 24.4511 13.7857 25.21C13.7857 25.9694 14.41 26.5865 15.1772 26.5865C15.9444 26.5865 16.5686 25.9694 16.5686 25.21Z" fill="#D98600"/>
</svg>
